<?xml version="1.0" standalone="no"?>
<!DOCTYPE svg PUBLIC "-//W3C//DTD SVG 1.1//EN" "http://www.w3.org/Graphics/SVG/1.1/DTD/svg11.dtd" >
<svg xmlns="http://www.w3.org/2000/svg" xmlns:xlink="http://www.w3.org/1999/xlink" version="1.1">
<metadata>
Created by FontForge 20190801 at Thu Jan  8 18:48:00 2015
 By Jimmy Wärting
Copyright (c) 2015 by S-Core Co., Ltd.. All rights reserved.
</metadata>
<defs>
<font id="CoreSansE-85Heavy" horiz-adv-x="394" >
  <font-face 
    font-family="Core Sans E 85 Heavy"
    font-weight="800"
    font-stretch="normal"
    units-per-em="1000"
    panose-1="2 11 9 3 3 3 2 2 2 4"
    ascent="800"
    descent="-200"
    x-height="500"
    cap-height="700"
    bbox="-416 -252 1208 1007"
    underline-thickness="24"
    underline-position="-207"
    unicode-range="U+0008-FB04"
  />
<missing-glyph horiz-adv-x="420" 
d="M390 0h-360v750h360v-750zM105 65h210v620h-210v-620z" />
    <glyph glyph-name="f_i" unicode="fi" horiz-adv-x="680" 
d="M387 584h-65c-45 0 -59 -15 -59 -51v-33h124v-123h-124v-377h-166v377h-75v123h75v48c0 109 55 159 192 159c35 0 73 -1 98 -5v-118zM457 567v133h166v-133h-166zM457 0v500h166v-500h-166z" />
    <glyph glyph-name="f_l" unicode="fl" horiz-adv-x="680" 
d="M387 584h-65c-45 0 -59 -15 -59 -51v-33h124v-123h-124v-377h-166v377h-75v123h75v48c0 109 55 159 192 159c35 0 73 -1 98 -5v-118zM623 0h-166v700h166v-700z" />
    <glyph glyph-name="f_f" unicode="ff" horiz-adv-x="755" 
d="M737 584h-65c-45 0 -59 -15 -59 -51v-33h124v-123h-124v-377h-166v377h-184v-377h-166v377h-75v123h75v48c0 109 55 159 198 159c35 0 73 -1 103 -5v-118h-76c-45 0 -59 -15 -59 -51v-33h184v48c0 109 55 159 192 159c35 0 73 -1 98 -5v-118z" />
    <glyph glyph-name="f_f_i" unicode="ffi" horiz-adv-x="1030" 
d="M737 584h-65c-45 0 -59 -15 -59 -51v-33h124v-123h-124v-377h-166v377h-184v-377h-166v377h-75v123h75v48c0 109 55 159 198 159c35 0 73 -1 103 -5v-118h-76c-45 0 -59 -15 -59 -51v-33h184v48c0 109 55 159 192 159c35 0 73 -1 98 -5v-118zM807 567v133h166v-133h-166z
M807 0v500h166v-500h-166z" />
    <glyph glyph-name="f_f_l" unicode="ffl" horiz-adv-x="1030" 
d="M737 584h-65c-45 0 -59 -15 -59 -51v-33h124v-123h-124v-377h-166v377h-184v-377h-166v377h-75v123h75v48c0 109 55 159 198 159c35 0 73 -1 103 -5v-118h-76c-45 0 -59 -15 -59 -51v-33h184v48c0 109 55 159 192 159c35 0 73 -1 98 -5v-118zM973 0h-166v700h166v-700z
" />
    <glyph glyph-name=".notdef" horiz-adv-x="420" 
d="M390 0h-360v750h360v-750zM105 65h210v620h-210v-620z" />
    <glyph glyph-name="quotesingle" unicode="'" horiz-adv-x="276" 
d="M71 477v223h134v-223h-134z" />
    <glyph glyph-name="parenleft" unicode="(" horiz-adv-x="371" 
d="M71 346c0 377 78 453 281 453v-125c-77 0 -115 -16 -115 -328s38 -328 115 -328v-125c-203 0 -281 76 -281 453z" />
    <glyph glyph-name="parenright" unicode=")" horiz-adv-x="371" 
d="M300 346c0 -377 -78 -453 -281 -453v125c77 0 115 16 115 328s-38 328 -115 328v125c203 0 281 -76 281 -453z" />
    <glyph glyph-name="asterisk" unicode="*" horiz-adv-x="541" 
d="M36 386l65 113l126 -99l-22 159h131l-23 -159l127 99l65 -113l-149 -61l149 -60l-65 -113l-127 99l23 -159h-131l22 159l-126 -99l-65 113l149 60z" />
    <glyph glyph-name="plus" unicode="+" horiz-adv-x="558" 
d="M44 263v125h159v171h152v-171h159v-125h-159v-171h-152v171h-159z" />
    <glyph glyph-name="comma" unicode="," horiz-adv-x="294" 
d="M231 166v-166c0 -80 -60 -137 -168 -140v73c56 2 84 23 84 67h-84v166h168z" />
    <glyph glyph-name="hyphen" unicode="-" horiz-adv-x="430" 
d="M44 258v135h342v-135h-342z" />
    <glyph glyph-name="period" unicode="." horiz-adv-x="294" 
d="M231 166v-166h-168v166h168z" />
    <glyph glyph-name="slash" unicode="/" horiz-adv-x="500" 
d="M500 783l-328 -876h-172l328 876h172z" />
    <glyph glyph-name="zero" unicode="0" horiz-adv-x="588" 
d="M544 350c0 -142 -20 -234 -72 -294c-39 -45 -98 -68 -178 -68s-139 23 -178 68c-52 60 -72 152 -72 294s20 234 72 294c39 45 98 68 178 68s139 -23 178 -68c52 -60 72 -152 72 -294zM371 350c0 105 -4 168 -21 198c-13 22 -32 31 -56 31s-43 -9 -56 -31
c-17 -30 -21 -93 -21 -198s4 -168 21 -198c13 -22 32 -31 56 -31s43 9 56 31c17 30 21 93 21 198z" />
    <glyph glyph-name="one" unicode="1" horiz-adv-x="588" 
d="M424 0h-173v546l-140 -62v140l165 76h148v-700z" />
    <glyph glyph-name="two" unicode="2" horiz-adv-x="588" 
d="M526 501c0 -74 -20 -116 -75 -180l-164 -188h249v-133h-466v123l237 273c33 38 46 66 46 107c0 49 -18 76 -60 76s-60 -27 -60 -76v-34h-173v32c0 114 81 211 233 211s233 -97 233 -211z" />
    <glyph glyph-name="three" unicode="3" horiz-adv-x="588" 
d="M291 121c47 0 71 30 71 84c0 74 -27 97 -94 97h-49v132h49c48 0 78 19 78 78c0 44 -20 67 -55 67c-36 0 -56 -23 -56 -67v-13h-167v18c0 118 83 195 223 195c139 0 223 -79 223 -190c0 -83 -42 -131 -108 -150c85 -19 129 -83 129 -174c0 -126 -97 -210 -244 -210
c-148 0 -244 84 -244 210v24h173v-17c0 -54 24 -84 71 -84z" />
    <glyph glyph-name="four" unicode="4" horiz-adv-x="588" 
d="M184 260h125v209zM549 260v-133h-72v-127h-168v127h-271v133l262 440h177v-440h72z" />
    <glyph glyph-name="five" unicode="5" horiz-adv-x="588" 
d="M297 331c-28 0 -45 -15 -53 -36h-160l18 405h399v-133h-239l-7 -150c19 22 54 37 99 37c107 0 181 -72 181 -234c0 -142 -81 -232 -238 -232c-150 0 -228 81 -237 213h174c4 -52 22 -80 63 -80c44 0 65 30 65 105c0 73 -20 105 -65 105z" />
    <glyph glyph-name="six" unicode="6" horiz-adv-x="588" 
d="M526 521h-170c-2 41 -20 63 -54 63c-52 0 -76 -54 -78 -186c21 36 64 56 115 56c110 0 201 -82 201 -230c0 -145 -91 -236 -238 -236c-183 0 -247 124 -247 338c0 287 86 386 249 386c134 0 213 -71 222 -191zM229 225c0 -69 23 -104 69 -104s69 35 69 104
s-23 104 -69 104s-69 -35 -69 -104z" />
    <glyph glyph-name="seven" unicode="7" horiz-adv-x="588" 
d="M63 567v133h462v-122l-215 -578h-176l217 567h-288z" />
    <glyph glyph-name="eight" unicode="8" horiz-adv-x="588" 
d="M294 712c144 0 233 -76 233 -189c0 -72 -42 -128 -102 -151c73 -26 123 -82 123 -174c0 -130 -99 -210 -254 -210s-254 80 -254 210c0 92 50 148 123 174c-60 23 -102 79 -102 151c0 113 89 189 233 189zM294 121c50 0 81 32 81 94c0 61 -31 93 -81 93s-81 -32 -81 -93
c0 -62 31 -94 81 -94zM294 436c41 0 65 25 65 71s-24 72 -65 72s-65 -26 -65 -72s24 -71 65 -71z" />
    <glyph glyph-name="nine" unicode="9" horiz-adv-x="588" 
d="M62 179h170c2 -41 20 -63 54 -63c52 0 76 54 78 186c-21 -36 -64 -56 -115 -56c-110 0 -201 82 -201 230c0 145 91 236 238 236c183 0 247 -124 247 -338c0 -287 -86 -386 -249 -386c-134 0 -213 71 -222 191zM359 475c0 69 -23 104 -69 104s-69 -35 -69 -104
s23 -104 69 -104s69 35 69 104z" />
    <glyph glyph-name="colon" unicode=":" horiz-adv-x="294" 
d="M231 500v-167h-168v167h168zM231 166v-166h-168v166h168z" />
    <glyph glyph-name="semicolon" unicode=";" horiz-adv-x="294" 
d="M231 500v-167h-168v167h168zM231 166v-166c0 -80 -60 -137 -168 -140v73c56 2 84 23 84 67h-84v166h168z" />
    <glyph glyph-name="less" unicode="&#x3c;" horiz-adv-x="558" 
d="M52 261v130l454 175v-147l-271 -93l271 -93v-147z" />
    <glyph glyph-name="equal" unicode="=" horiz-adv-x="558" 
d="M44 367v125h470v-125h-470zM44 159v125h470v-125h-470z" />
    <glyph glyph-name="greater" unicode="&#x3e;" horiz-adv-x="558" 
d="M506 391v-130l-454 -175v147l271 93l-271 93v147z" />
    <glyph glyph-name="question" unicode="?" horiz-adv-x="548" 
d="M329 513c0 42 -20 66 -57 66s-57 -24 -57 -66v-15h-166v15c0 116 74 199 223 199c148 0 223 -83 223 -199c0 -75 -22 -117 -81 -170c-55 -48 -64 -68 -64 -107v-32h-166v48c0 71 17 104 76 155c53 46 69 68 69 106zM184 0v148h166v-148h-166z" />
    <glyph glyph-name="at" unicode="@" horiz-adv-x="770" 
d="M385 605c-144 0 -191 -79 -191 -344c0 -277 55 -343 191 -343c39 0 76 7 105 25l37 -99c-42 -22 -95 -33 -146 -33c-197 0 -319 88 -319 450c0 324 90 451 323 451s323 -129 323 -444c0 -168 -78 -260 -223 -260c-136 0 -209 87 -209 234c0 153 71 228 179 228
c60 0 100 -24 115 -63c-17 140 -63 198 -185 198zM414 239c0 -85 24 -122 81 -122s81 37 81 122c0 84 -24 122 -81 122s-81 -38 -81 -122z" />
    <glyph glyph-name="A" unicode="A" horiz-adv-x="642" 
d="M230 700h182l222 -700h-180l-31 117h-205l-30 -117h-180zM321 509l-67 -256h134z" />
    <glyph glyph-name="B" unicode="B" horiz-adv-x="623" 
d="M398 494c0 54 -27 75 -78 75h-80v-150h80c51 0 78 21 78 75zM348 0h-287v700h278c155 0 233 -67 233 -192c0 -74 -37 -121 -98 -143c72 -22 117 -80 117 -159c0 -138 -85 -206 -243 -206zM412 215c0 59 -26 84 -82 84h-90v-168h90c56 0 82 25 82 84z" />
    <glyph glyph-name="C" unicode="C" horiz-adv-x="660" 
d="M44 350c0 115 19 209 74 275c49 58 120 87 217 87c182 0 285 -108 285 -258h-178c-2 73 -39 115 -107 115c-37 0 -63 -13 -82 -40c-22 -33 -30 -82 -30 -179s8 -146 30 -179c19 -27 45 -40 82 -40c68 0 107 43 107 115h178c0 -150 -103 -258 -285 -258
c-97 0 -168 29 -217 87c-55 66 -74 160 -74 275z" />
    <glyph glyph-name="D" unicode="D" horiz-adv-x="659" 
d="M332 0h-271v700h271c223 0 283 -134 283 -350s-60 -350 -283 -350zM436 350c0 176 -34 207 -112 207h-84v-414h84c78 0 112 31 112 207z" />
    <glyph glyph-name="E" unicode="E" horiz-adv-x="557" 
d="M61 0v700h451v-143h-272v-127h236v-143h-236v-144h277v-143h-456z" />
    <glyph glyph-name="F" unicode="F" horiz-adv-x="534" 
d="M61 0v700h446v-143h-267v-137h236v-143h-236v-277h-179z" />
    <glyph glyph-name="G" unicode="G" horiz-adv-x="675" 
d="M44 350c0 115 19 209 74 275c49 58 120 87 217 87c182 0 285 -108 285 -258h-178c-2 73 -39 115 -107 115c-37 0 -63 -13 -82 -40c-22 -33 -30 -82 -30 -179c0 -99 8 -151 34 -185c19 -24 46 -34 81 -34c71 0 108 46 112 121h-113v123h281v-375h-127l-17 77
c-24 -54 -84 -89 -165 -89c-181 0 -265 143 -265 362z" />
    <glyph glyph-name="H" unicode="H" horiz-adv-x="645" 
d="M405 0v287h-165v-287h-179v700h179v-270h165v270h179v-700h-179z" />
    <glyph glyph-name="I" unicode="I" horiz-adv-x="301" 
d="M240 700v-700h-179v700h179z" />
    <glyph glyph-name="J" unicode="J" horiz-adv-x="559" 
d="M259 131c41 0 63 26 63 83v486h179v-487c0 -139 -83 -225 -242 -225s-242 86 -242 225v21h179v-20c0 -57 22 -83 63 -83z" />
    <glyph glyph-name="K" unicode="K" horiz-adv-x="627" 
d="M607 700l-171 -341l198 -359h-194l-148 287h-52v-287h-179v700h179v-270h52l125 270h190z" />
    <glyph glyph-name="L" unicode="L" horiz-adv-x="531" 
d="M61 0v700h179v-557h277v-143h-456z" />
    <glyph glyph-name="M" unicode="M" horiz-adv-x="854" 
d="M493 0h-132l-127 338v-338h-173v700h169l197 -522l197 522h169v-700h-173v338z" />
    <glyph glyph-name="N" unicode="N" horiz-adv-x="655" 
d="M420 0l-185 400v-400h-174v700h174l185 -400v400h174v-700h-174z" />
    <glyph glyph-name="O" unicode="O" horiz-adv-x="670" 
d="M626 350c0 -115 -19 -209 -74 -275c-49 -58 -120 -87 -217 -87s-168 29 -217 87c-55 66 -74 160 -74 275s19 209 74 275c49 58 120 87 217 87s168 -29 217 -87c55 -66 74 -160 74 -275zM223 350c0 -95 8 -146 30 -179c19 -27 45 -40 82 -40s63 13 82 40
c22 33 30 84 30 179s-8 146 -30 179c-19 27 -45 40 -82 40s-63 -13 -82 -40c-22 -33 -30 -84 -30 -179z" />
    <glyph glyph-name="P" unicode="P" horiz-adv-x="617" 
d="M353 238h-113v-238h-179v700h292c154 0 238 -84 238 -231c0 -148 -84 -231 -238 -231zM240 381h85c57 0 87 27 87 88s-30 88 -87 88h-85v-176z" />
    <glyph glyph-name="Q" unicode="Q" horiz-adv-x="670" 
d="M626 350c0 -94 -13 -174 -48 -234l79 -67l-92 -106l-91 78c-36 -23 -85 -33 -139 -33c-97 0 -168 29 -217 87c-55 66 -74 160 -74 275s19 209 74 275c49 58 120 87 217 87s168 -29 217 -87c55 -66 74 -160 74 -275zM223 350c0 -95 8 -146 30 -179c19 -27 45 -40 82 -40
s63 13 82 40c22 33 30 84 30 179s-8 146 -30 179c-19 27 -45 40 -82 40s-63 -13 -82 -40c-22 -33 -30 -84 -30 -179z" />
    <glyph glyph-name="R" unicode="R" horiz-adv-x="639" 
d="M408 65l-5 87c-4 65 -25 86 -86 86h-77v-238h-179v700h300c151 0 230 -84 230 -214c0 -95 -46 -155 -120 -176c73 -13 102 -57 108 -149l6 -95c2 -29 7 -50 15 -66h-179c-7 15 -12 41 -13 65zM240 381h85c56 0 87 25 87 88s-31 88 -87 88h-85v-176z" />
    <glyph glyph-name="S" unicode="S" horiz-adv-x="600" 
d="M567 206c0 -126 -89 -218 -260 -218c-165 0 -261 87 -261 213v12h179v-15c0 -44 28 -72 82 -72c53 0 81 28 81 72c0 42 -24 68 -91 82l-54 11c-127 26 -202 89 -202 214c0 118 91 207 250 207s250 -92 250 -200v-11h-179v11c0 39 -26 62 -71 62c-46 0 -71 -23 -71 -62
c0 -41 26 -63 93 -77l54 -11c133 -27 200 -96 200 -218z" />
    <glyph glyph-name="T" unicode="T" horiz-adv-x="561" 
d="M13 557v143h535v-143h-178v-557h-179v557h-178z" />
    <glyph glyph-name="U" unicode="U" horiz-adv-x="668" 
d="M334 -12c-188 0 -277 105 -277 273v439h179v-446c0 -85 34 -123 98 -123s98 38 98 123v446h179v-439c0 -168 -89 -273 -277 -273z" />
    <glyph glyph-name="W" unicode="W" horiz-adv-x="974" 
d="M411 700h152l124 -475l95 475h178l-179 -700h-162l-132 503l-132 -503h-162l-179 700h178l95 -475z" />
    <glyph glyph-name="X" unicode="X" horiz-adv-x="636" 
d="M438 0l-120 256l-120 -256h-184l185 362l-170 338h184l105 -234l105 234h184l-170 -338l185 -362h-184z" />
    <glyph glyph-name="Y" unicode="Y" horiz-adv-x="636" 
d="M318 422l122 278h182l-214 -424v-276h-180v276l-214 424h182z" />
    <glyph glyph-name="Z" unicode="Z" horiz-adv-x="562" 
d="M35 133l273 424h-263v143h477v-133l-273 -424h278v-143h-492v133z" />
    <glyph glyph-name="bracketleft" unicode="[" horiz-adv-x="381" 
d="M71 -93v876h274v-124h-108v-628h108v-124h-274z" />
    <glyph glyph-name="backslash" unicode="\" horiz-adv-x="500" 
d="M328 -93l-328 876h172l328 -876h-172z" />
    <glyph glyph-name="bracketright" unicode="]" horiz-adv-x="381" 
d="M310 783v-876h-274v124h108v628h-108v124h274z" />
    <glyph glyph-name="asciicircum" unicode="^" horiz-adv-x="472" 
d="M171 700h130l154 -247h-154l-65 114l-65 -114h-154z" />
    <glyph glyph-name="underscore" unicode="_" horiz-adv-x="500" 
d="M0 -172v72h500v-72h-500z" />
    <glyph glyph-name="grave" unicode="`" horiz-adv-x="418" 
d="M199 569l-124 161h176l92 -161h-144z" />
    <glyph glyph-name="a" unicode="a" horiz-adv-x="556" 
d="M501 342v-266c0 -28 5 -59 15 -76h-170c-6 13 -10 35 -11 59c-19 -42 -67 -71 -134 -71c-98 0 -166 59 -166 158c0 98 67 158 166 158c63 0 114 -26 134 -71v104c0 35 -18 58 -55 58c-36 0 -54 -21 -55 -53h-166c0 97 73 170 221 170c142 0 221 -73 221 -170zM201 146
c0 -35 23 -54 67 -54s67 19 67 54s-23 54 -67 54s-67 -19 -67 -54z" />
    <glyph glyph-name="b" unicode="b" horiz-adv-x="575" 
d="M219 76v-76h-166v700h166v-276c17 51 67 88 136 88c118 0 184 -89 184 -262s-66 -262 -184 -262c-69 0 -119 37 -136 88zM219 250c0 -105 24 -139 77 -139s77 34 77 139s-24 139 -77 139s-77 -34 -77 -139z" />
    <glyph glyph-name="c" unicode="c" horiz-adv-x="548" 
d="M36 250c0 158 75 262 243 262c149 0 233 -80 238 -196h-165c-5 51 -27 73 -73 73c-53 0 -77 -34 -77 -139s24 -139 77 -139c46 0 68 22 73 73h165c-5 -116 -89 -196 -238 -196c-168 0 -243 104 -243 262z" />
    <glyph glyph-name="d" unicode="d" horiz-adv-x="575" 
d="M356 0v76c-17 -51 -67 -88 -136 -88c-118 0 -184 89 -184 262s66 262 184 262c69 0 119 -37 136 -88v276h166v-700h-166zM356 250c0 105 -24 139 -77 139s-77 -34 -77 -139s24 -139 77 -139s77 34 77 139z" />
    <glyph glyph-name="e" unicode="e" horiz-adv-x="558" 
d="M520 211h-317v-9c0 -67 29 -101 76 -101c40 0 64 20 69 53h163c-18 -112 -107 -166 -232 -166c-169 0 -243 105 -243 262c0 156 73 262 243 262s243 -106 243 -262c0 -14 -1 -29 -2 -39zM203 302h152c-1 63 -26 97 -76 97s-75 -34 -76 -97z" />
    <glyph glyph-name="f" unicode="f" horiz-adv-x="405" 
d="M387 584h-65c-45 0 -59 -15 -59 -51v-33h124v-123h-124v-377h-166v377h-75v123h75v48c0 109 55 159 192 159c35 0 73 -1 98 -5v-118z" />
    <glyph glyph-name="g" unicode="g" horiz-adv-x="575" 
d="M356 250c0 105 -24 139 -77 139s-77 -34 -77 -139s24 -139 77 -139s77 34 77 139zM522 500v-531c0 -117 -73 -202 -230 -202c-140 0 -215 66 -229 167h168c3 -35 26 -54 61 -54c42 0 64 23 64 77v119c-17 -51 -67 -88 -136 -88c-118 0 -184 89 -184 262s66 262 184 262
c69 0 119 -37 136 -88v76h166z" />
    <glyph glyph-name="h" unicode="h" horiz-adv-x="566" 
d="M515 320v-320h-166v316c0 51 -19 73 -56 73c-46 0 -74 -38 -74 -104v-285h-166v700h166v-278c18 54 67 90 137 90c101 0 159 -63 159 -192z" />
    <glyph glyph-name="i" unicode="i" horiz-adv-x="280" 
d="M57 567v133h166v-133h-166zM57 0v500h166v-500h-166z" />
    <glyph glyph-name="j" unicode="j" horiz-adv-x="280" 
d="M57 -26v526h166v-537c0 -117 -58 -181 -193 -181c-20 0 -58 1 -77 3v119h41c44 0 63 21 63 70zM57 567v133h166v-133h-166z" />
    <glyph glyph-name="k" unicode="k" horiz-adv-x="534" 
d="M53 0v700h166v-383h32l85 183h172l-123 -240l143 -260h-174l-104 204h-31v-204h-166z" />
    <glyph glyph-name="l" unicode="l" horiz-adv-x="280" 
d="M223 0h-166v700h166v-700z" />
    <glyph glyph-name="m" unicode="m" horiz-adv-x="856" 
d="M639 0v318c0 47 -18 71 -55 71c-45 0 -72 -38 -72 -104v-285h-166v318c0 47 -18 71 -55 71c-45 0 -72 -38 -72 -104v-285h-166v500h166v-78c18 54 66 90 135 90c68 0 118 -30 141 -91c26 56 77 91 150 91c103 0 160 -63 160 -192v-320h-166z" />
    <glyph glyph-name="n" unicode="n" horiz-adv-x="566" 
d="M515 320v-320h-166v316c0 51 -19 73 -56 73c-46 0 -74 -38 -74 -104v-285h-166v500h166v-78c18 54 67 90 137 90c101 0 159 -63 159 -192z" />
    <glyph glyph-name="o" unicode="o" horiz-adv-x="558" 
d="M202 250c0 -105 24 -139 77 -139s77 34 77 139s-24 139 -77 139s-77 -34 -77 -139zM36 250c0 158 75 262 243 262s243 -104 243 -262s-75 -262 -243 -262s-243 104 -243 262z" />
    <glyph glyph-name="p" unicode="p" horiz-adv-x="575" 
d="M219 500v-76c17 51 67 88 136 88c118 0 184 -89 184 -262s-66 -262 -184 -262c-69 0 -119 37 -136 88v-294h-166v718h166zM219 250c0 -105 24 -139 77 -139s77 34 77 139s-24 139 -77 139s-77 -34 -77 -139z" />
    <glyph glyph-name="q" unicode="q" horiz-adv-x="575" 
d="M356 424v76h166v-718h-166v294c-17 -51 -67 -88 -136 -88c-118 0 -184 89 -184 262s66 262 184 262c69 0 119 -37 136 -88zM356 250c0 105 -24 139 -77 139s-77 -34 -77 -139s24 -139 77 -139s77 34 77 139z" />
    <glyph glyph-name="r" unicode="r" 
d="M343 374c-77 0 -124 -48 -124 -140v-234h-166v500h166v-100c13 75 55 112 126 112c15 0 27 -1 35 -4l-2 -135c-10 1 -20 1 -35 1z" />
    <glyph glyph-name="s" unicode="s" horiz-adv-x="501" 
d="M39 148v4h166v-11c0 -26 17 -44 49 -44c33 0 49 19 49 44c0 28 -16 42 -54 50l-57 12c-100 21 -155 71 -155 152c0 91 71 157 205 157c136 0 205 -67 205 -149v-7h-166v8c0 20 -13 35 -40 35c-26 0 -40 -14 -40 -35c0 -23 18 -38 56 -46l57 -12c107 -23 155 -66 155 -155
c0 -97 -77 -163 -215 -163c-145 0 -215 69 -215 160z" />
    <glyph glyph-name="t" unicode="t" horiz-adv-x="420" 
d="M261 377v-192c0 -57 18 -70 79 -70h51v-119c-23 -2 -72 -3 -101 -3c-145 0 -195 47 -195 172v212h-75v123h75v142h166v-142h130v-123h-130z" />
    <glyph glyph-name="u" unicode="u" horiz-adv-x="566" 
d="M51 180v320h166v-316c0 -51 19 -73 56 -73c46 0 74 38 74 104v285h166v-500h-166v78c-18 -54 -67 -90 -137 -90c-101 0 -159 63 -159 192z" />
    <glyph glyph-name="v" unicode="v" horiz-adv-x="544" 
d="M357 0h-170l-174 500h170l89 -323l89 323h170z" />
    <glyph glyph-name="w" unicode="w" horiz-adv-x="834" 
d="M356 500h122l92 -322l82 322h169l-159 -500h-160l-85 297l-85 -297h-160l-159 500h169l82 -322z" />
    <glyph glyph-name="x" unicode="x" horiz-adv-x="510" 
d="M332 0l-77 171l-77 -171h-170l137 257l-127 243h170l67 -158l67 158h170l-127 -243l137 -257h-170z" />
    <glyph glyph-name="y" unicode="y" horiz-adv-x="544" 
d="M178 -41l14 41l-179 500h170l90 -315l88 315h170l-192 -553c-46 -132 -83 -165 -191 -165c-22 0 -54 0 -74 2v121h37c32 0 52 11 67 54z" />
    <glyph glyph-name="z" unicode="z" horiz-adv-x="478" 
d="M236 123h211v-123h-416v113l204 264h-196v123h401v-113z" />
    <glyph glyph-name="braceleft" unicode="{" horiz-adv-x="397" 
d="M35 283v124h20c42 0 60 28 60 70v131c0 121 53 175 184 175h63v-124h-20c-40 0 -60 -26 -60 -70v-138c0 -51 -21 -91 -73 -106c52 -15 73 -55 73 -106v-138c0 -44 20 -70 60 -70h20v-124h-63c-131 0 -184 54 -184 175v131c0 42 -18 70 -60 70h-20z" />
    <glyph glyph-name="bar" unicode="|" horiz-adv-x="342" 
d="M88 -93v876h166v-876h-166z" />
    <glyph glyph-name="braceright" unicode="}" horiz-adv-x="397" 
d="M362 407v-124h-20c-42 0 -60 -28 -60 -70v-131c0 -121 -53 -175 -184 -175h-63v124h20c40 0 60 26 60 70v138c0 51 21 91 73 106c-52 15 -73 55 -73 106v138c0 44 -20 70 -60 70h-20v124h63c131 0 184 -54 184 -175v-131c0 -42 18 -70 60 -70h20z" />
    <glyph glyph-name="asciitilde" unicode="~" horiz-adv-x="558" 
d="M387 232c-84 0 -113 49 -155 49c-21 0 -31 -15 -31 -40v-3h-147c0 114 29 183 117 183c84 0 113 -49 155 -49c21 0 31 15 31 40v3h147c0 -114 -29 -183 -117 -183z" />
    <glyph glyph-name="periodcentered" unicode="&#xb7;" horiz-adv-x="294" 
d="M231 408v-166h-168v166h168z" />
    <glyph glyph-name="twodotenleader" unicode="&#x2025;" horiz-adv-x="588" 
d="M231 166v-166h-168v166h168zM525 166v-166h-168v166h168z" />
    <glyph glyph-name="ellipsis" unicode="&#x2026;" horiz-adv-x="882" 
d="M231 166v-166h-168v166h168zM525 166v-166h-168v166h168zM819 166v-166h-168v166h168z" />
    <glyph glyph-name="dieresis" unicode="&#xa8;" horiz-adv-x="418" 
d="M181 717v-141h-143v141h143zM380 717v-141h-143v141h143z" />
    <glyph glyph-name="uni00AD" unicode="&#xad;" horiz-adv-x="430" 
d="M44 258v135h342v-135h-342z" />
    <glyph glyph-name="afii00208" unicode="&#x2015;" horiz-adv-x="1000" 
d="M900 258h-800v135h800v-135z" />
    <glyph glyph-name="quoteleft" unicode="&#x2018;" horiz-adv-x="294" 
d="M63 470v166c0 80 60 137 168 140v-73c-56 -2 -84 -23 -84 -67h84v-166h-168z" />
    <glyph glyph-name="quoteright" unicode="&#x2019;" horiz-adv-x="294" 
d="M231 776v-166c0 -80 -60 -137 -168 -140v73c56 2 84 23 84 67h-84v166h168z" />
    <glyph glyph-name="quotedblleft" unicode="&#x201c;" horiz-adv-x="517" 
d="M286 470v166c0 80 60 137 168 140v-73c-56 -2 -84 -23 -84 -67h84v-166h-168zM63 470v166c0 80 60 137 168 140v-73c-56 -2 -84 -23 -84 -67h84v-166h-168z" />
    <glyph glyph-name="quotedblright" unicode="&#x201d;" horiz-adv-x="517" 
d="M454 776v-166c0 -80 -60 -137 -168 -140v73c56 2 84 23 84 67h-84v166h168zM231 776v-166c0 -80 -60 -137 -168 -140v73c56 2 84 23 84 67h-84v166h168z" />
    <glyph glyph-name="plusminus" unicode="&#xb1;" horiz-adv-x="558" 
d="M44 312v125h159v157h152v-157h159v-125h-159v-157h-152v157h-159zM44 0v125h470v-125h-470z" />
    <glyph glyph-name="multiply" unicode="&#xd7;" horiz-adv-x="558" 
d="M44 195l130 130l-130 131l105 104l130 -130l130 130l105 -104l-131 -131l131 -130l-105 -104l-130 130l-130 -130z" />
    <glyph glyph-name="divide" unicode="&#xf7;" horiz-adv-x="558" 
d="M44 263v125h470v-125h-470zM355 589v-149h-152v149h152zM203 63v149h152v-149h-152z" />
    <glyph glyph-name="notequal" unicode="&#x2260;" horiz-adv-x="558" 
d="M44 367v125h287l59 97h100l-59 -97h83v-125h-160l-50 -83h210v-125h-287l-59 -97h-100l59 97h-83v125h160l50 83h-210z" />
    <glyph glyph-name="lessequal" unicode="&#x2264;" horiz-adv-x="558" 
d="M44 0v125h470v-125h-470zM52 302v146l454 154v-147l-261 -80l261 -80v-147z" />
    <glyph glyph-name="greaterequal" unicode="&#x2265;" horiz-adv-x="558" 
d="M514 125v-125h-470v125h470zM506 448v-146l-454 -154v147l261 80l-261 80v147z" />
    <glyph glyph-name="infinity" unicode="&#x221e;" horiz-adv-x="792" 
d="M315 331c-22 27 -47 41 -71 41c-26 0 -45 -14 -45 -41s19 -41 45 -41c24 0 49 14 71 41zM477 331c22 -27 47 -41 71 -41c26 0 45 14 45 41s-19 41 -45 41c-24 0 -49 -14 -71 -41zM396 254c-46 -54 -104 -81 -173 -81c-102 0 -171 60 -171 158s69 158 171 158
c69 0 127 -27 173 -81c46 54 104 81 173 81c102 0 171 -60 171 -158s-69 -158 -171 -158c-69 0 -127 27 -173 81z" />
    <glyph glyph-name="degree" unicode="&#xb0;" horiz-adv-x="376" 
d="M341 562c0 -85 -61 -146 -153 -146s-153 61 -153 146s61 146 153 146s153 -61 153 -146zM234 562c0 31 -19 50 -46 50s-46 -19 -46 -50s19 -50 46 -50s46 19 46 50z" />
    <glyph glyph-name="minute" unicode="&#x2032;" horiz-adv-x="262" 
d="M24 463l50 237h164l-76 -237h-138z" />
    <glyph glyph-name="second" unicode="&#x2033;" horiz-adv-x="466" 
d="M24 463l50 237h164l-76 -237h-138zM228 463l50 237h164l-76 -237h-138z" />
    <glyph glyph-name="partialdiff" unicode="&#x2202;" horiz-adv-x="581" 
d="M251 521h-170c30 116 111 191 244 191c158 0 215 -99 215 -270c0 -286 -64 -454 -285 -454c-136 0 -214 80 -214 218c0 161 103 248 222 248c50 0 89 -18 106 -50c1 16 2 36 2 50c0 90 -17 128 -57 128c-33 0 -54 -21 -63 -61zM274 121c53 0 78 43 78 122
c0 54 -20 78 -60 78c-53 0 -78 -43 -78 -122c0 -54 20 -78 60 -78z" />
    <glyph glyph-name="equivalence" unicode="&#x2261;" horiz-adv-x="558" 
d="M44 437v125h470v-125h-470zM44 89v125h470v-125h-470zM44 263v125h470v-125h-470z" />
    <glyph glyph-name="section" unicode="&#xa7;" horiz-adv-x="509" 
d="M285 208h1c17 15 27 36 27 65c0 39 -19 60 -68 74l-22 6c-17 -15 -27 -36 -27 -65c0 -39 19 -60 68 -74zM202 555c0 -33 21 -54 71 -68l46 -13c98 -28 153 -76 153 -183c0 -52 -25 -103 -71 -134c45 -31 68 -75 68 -137c0 -104 -78 -171 -205 -171
c-126 0 -205 66 -205 158v19h162v-20c0 -29 17 -45 43 -45c27 0 43 16 43 45c0 33 -21 54 -71 68l-46 13c-98 28 -153 76 -153 183c0 52 25 103 71 134c-45 31 -68 75 -68 137c0 104 78 171 205 171c126 0 205 -66 205 -158v-19h-162v20c0 29 -17 45 -43 45
c-27 0 -43 -16 -43 -45z" />
    <glyph glyph-name="arrowright" unicode="&#x2192;" horiz-adv-x="860" 
d="M36 240v184h528v116l260 -208l-260 -208v116h-528z" />
    <glyph glyph-name="arrowleft" unicode="&#x2190;" horiz-adv-x="860" 
d="M824 424v-184h-528v-116l-260 208l260 208v-116h528z" />
    <glyph glyph-name="arrowup" unicode="&#x2191;" horiz-adv-x="860" 
d="M522 -38h-184v527h-116l208 261l208 -261h-116v-527z" />
    <glyph glyph-name="arrowdown" unicode="&#x2193;" horiz-adv-x="860" 
d="M338 750h184v-527h116l-208 -261l-208 261h116v527z" />
    <glyph glyph-name="arrowboth" unicode="&#x2194;" horiz-adv-x="860" 
d="M296 540v-116h268v116l260 -208l-260 -208v116h-268v-116l-260 208z" />
    <glyph glyph-name="radical" unicode="&#x221a;" horiz-adv-x="605" 
d="M365 -111h-181l-176 375h182l67 -161l174 647h174z" />
    <glyph glyph-name="integral" unicode="&#x222b;" horiz-adv-x="466" 
d="M316 623v-573c0 -109 -55 -159 -192 -159c-35 0 -73 1 -98 5v118h65c45 0 59 15 59 51v573c0 109 55 159 192 159c35 0 73 -1 98 -5v-118h-65c-45 0 -59 -15 -59 -51z" />
    <glyph glyph-name="intersection" unicode="&#x2229;" horiz-adv-x="656" 
d="M328 617c171 0 267 -89 267 -270v-347h-179v343c0 99 -29 131 -88 131s-88 -32 -88 -131v-343h-179v347c0 181 96 270 267 270z" />
    <glyph glyph-name="acute" unicode="&#xb4;" horiz-adv-x="418" 
d="M343 730l-124 -161h-144l92 161h176z" />
    <glyph glyph-name="caron" unicode="&#x2c7;" horiz-adv-x="418" 
d="M274 569h-130l-119 161h135l49 -68l49 68h135z" />
    <glyph glyph-name="breve" unicode="&#x2d8;" horiz-adv-x="418" 
d="M209 567c-99 0 -168 54 -169 154h124c0 -36 15 -55 45 -55s45 19 45 55h124c-1 -100 -70 -154 -169 -154z" />
    <glyph glyph-name="hungarumlaut" unicode="&#x2dd;" horiz-adv-x="418" 
d="M438 730l-132 -169h-140l102 169h170zM222 730l-102 -169h-140l72 169h170z" />
    <glyph glyph-name="ring" unicode="&#x2da;" horiz-adv-x="418" 
d="M324 649c0 -67 -49 -107 -115 -107s-115 40 -115 107s49 107 115 107s115 -40 115 -107zM238 649c0 19 -11 31 -29 31s-29 -12 -29 -31s11 -31 29 -31s29 12 29 31z" />
    <glyph glyph-name="dotaccent" unicode="&#x2d9;" horiz-adv-x="418" 
d="M281 717v-141h-144v141h144z" />
    <glyph glyph-name="cedilla" unicode="&#xb8;" horiz-adv-x="418" 
d="M80 -202l37 70c20 -14 42 -23 64 -23c21 0 35 8 35 26s-16 28 -42 28c-10 0 -27 -2 -36 -5l-17 21l41 85h106l-22 -41c59 -7 92 -44 92 -91c0 -61 -48 -106 -136 -106c-51 0 -93 15 -122 36z" />
    <glyph glyph-name="ogonek" unicode="&#x2db;" horiz-adv-x="418" 
d="M164 0h116c-50 -30 -75 -66 -75 -95v-5c0 -22 13 -36 40 -36c19 0 35 5 49 16l41 -62c-24 -24 -64 -37 -111 -37c-87 0 -140 39 -140 99v7c0 45 30 87 80 113z" />
    <glyph glyph-name="exclamdown" unicode="&#xa1;" horiz-adv-x="340" 
d="M253 500v-148h-166v148h166zM241 281l12 -381v-100h-166v100l12 381h142z" />
    <glyph glyph-name="questiondown" unicode="&#xbf;" horiz-adv-x="548" 
d="M219 -13c0 -42 20 -66 57 -66s57 24 57 66v15h166v-15c0 -116 -74 -199 -223 -199c-148 0 -223 83 -223 199c0 75 22 117 81 170c55 48 64 68 64 107v32h166v-48c0 -71 -17 -104 -76 -155c-53 -46 -69 -68 -69 -106zM364 500v-148h-166v148h166z" />
    <glyph glyph-name="summation" unicode="&#x2211;" horiz-adv-x="583" 
d="M44 32l145 258l-145 266v144h495v-143h-295l130 -248v-40l-130 -237h295v-143h-495v143z" />
    <glyph glyph-name="product" unicode="&#x220f;" horiz-adv-x="665" 
d="M415 -111v668h-165v-668h-179v811h523v-811h-179z" />
    <glyph glyph-name="currency" unicode="&#xa4;" horiz-adv-x="658" 
d="M560 326c0 -39 -9 -76 -26 -107l84 -86l-104 -104l-90 90c-29 -12 -60 -20 -95 -20s-66 8 -95 20l-90 -90l-104 104l84 86c-17 31 -26 68 -26 107s9 76 26 107l-84 86l104 104l90 -90c29 12 60 20 95 20s66 -8 95 -20l90 90l104 -104l-84 -86c17 -31 26 -68 26 -107z
M405 326c0 51 -32 82 -76 82s-76 -31 -76 -82s32 -82 76 -82s76 31 76 82z" />
    <glyph glyph-name="uni2109" unicode="&#x2109;" horiz-adv-x="852" 
d="M341 562c0 -85 -61 -146 -153 -146s-153 61 -153 146s61 146 153 146s153 -61 153 -146zM234 562c0 31 -19 50 -46 50s-46 -19 -46 -50s19 -50 46 -50s46 19 46 50zM379 0v700h446v-143h-267v-137h236v-143h-236v-277h-179z" />
    <glyph glyph-name="perthousand" unicode="&#x2030;" horiz-adv-x="1201" 
d="M510 700h118l-287 -700h-118zM170 523c0 -72 9 -92 36 -92s36 20 36 92s-9 92 -36 92s-36 -20 -36 -92zM49 523c0 123 50 189 156 189c108 0 158 -66 158 -189s-50 -189 -158 -189c-106 0 -156 66 -156 189zM681 177c0 72 -9 92 -36 92s-36 -20 -36 -92s9 -92 36 -92
s36 20 36 92zM802 177c0 -123 -50 -189 -156 -189c-108 0 -158 66 -158 189s50 189 158 189c106 0 156 -66 156 -189zM1031 177c0 72 -9 92 -36 92s-36 -20 -36 -92s9 -92 36 -92s36 20 36 92zM1152 177c0 -123 -50 -189 -156 -189c-108 0 -158 66 -158 189s50 189 158 189
c106 0 156 -66 156 -189z" />
    <glyph glyph-name="paragraph" unicode="&#xb6;" horiz-adv-x="639" 
d="M243 700h325v-831h-120v726h-46v-726h-120v398h-27c-124 0 -216 79 -216 214v7c0 134 77 212 204 212z" />
    <glyph glyph-name="dagger" unicode="&#x2020;" horiz-adv-x="570" 
d="M518 580v-123h-155v-588h-156v588h-155v123h155v168h156v-168h155z" />
    <glyph glyph-name="daggerdbl" unicode="&#x2021;" horiz-adv-x="570" 
d="M52 37v123h155v297h-155v123h155v168h156v-168h155v-123h-155v-297h155v-123h-155v-168h-156v168h-155z" />
    <glyph glyph-name="arrowupdn" unicode="&#x2195;" horiz-adv-x="860" 
d="M222 223h116v266h-116l208 261l208 -261h-116v-266h116l-208 -261z" />
    <glyph glyph-name="afii61352" unicode="&#x2116;" horiz-adv-x="965" 
d="M372 0l-143 379v-379h-168v700h151l143 -379v379h168v-700h-151zM571 0v104h350v-104h-350zM925 340c0 -138 -55 -204 -179 -204s-179 66 -179 204s55 204 179 204s179 -66 179 -204zM785 340c0 81 -9 100 -39 100s-39 -19 -39 -100s9 -100 39 -100s39 19 39 100z" />
    <glyph glyph-name="trademark" unicode="&#x2122;" horiz-adv-x="686" 
d="M8 615v85h261v-85h-77v-249h-107v249h-77zM494 366h-54l-47 119v-119h-106v334h98l82 -207l82 207h98v-334h-106v119z" />
    <glyph glyph-name="uni2121" unicode="&#x2121;" horiz-adv-x="1056" 
d="M791 211h-247v-24c0 -70 15 -89 43 -89c23 0 39 16 41 63h158c-17 -116 -85 -173 -199 -173c-132 0 -206 70 -206 262c0 191 74 262 206 262s205 -71 205 -262c0 -14 0 -27 -1 -39zM13 557v143h450v-143h-135v-557h-180v557h-135zM999 0h-166v700h166v-700zM545 302h84
v25c0 50 -12 74 -42 74s-42 -24 -42 -74v-25z" />
    <glyph glyph-name="Euro" unicode="&#x20ac;" horiz-adv-x="660" 
d="M44 329v41h-42v74h47c9 73 30 134 69 181c49 58 120 87 217 87c182 0 285 -108 285 -258h-178c-2 73 -39 115 -107 115c-37 0 -63 -13 -82 -40c-14 -20 -22 -46 -26 -85h149c-4 -25 -8 -49 -12 -74h-141v-41h134c-4 -25 -8 -49 -12 -74h-118c4 -39 12 -64 26 -84
c19 -27 45 -40 82 -40c68 0 107 43 107 115h178c0 -150 -103 -258 -285 -258c-97 0 -168 29 -217 87c-39 47 -60 107 -69 180h-47v74h42z" />
    <glyph glyph-name="registered" unicode="&#xae;" horiz-adv-x="754" 
d="M420 178l-3 47c-2 34 -15 46 -45 46h-26v-130h-134v418h186c108 0 163 -43 163 -134c0 -62 -27 -97 -77 -109c48 -6 65 -34 70 -89l4 -48c1 -16 3 -28 7 -38h-139c-3 9 -5 22 -6 37zM346 364h30c34 0 49 14 49 51s-15 50 -49 50h-30v-101zM709 350
c0 -244 -126 -362 -332 -362s-332 118 -332 362s126 362 332 362s332 -118 332 -362zM101 350c0 -205 93 -310 276 -310s276 105 276 310s-93 310 -276 310s-276 -105 -276 -310z" />
    <glyph glyph-name="afii61289" unicode="&#x2113;" horiz-adv-x="563" 
d="M13 244c37 9 71 18 102 28v247c0 118 70 193 201 193c132 0 202 -76 202 -186v-8c0 -157 -95 -260 -240 -328v-12c0 -45 17 -65 49 -65c23 0 43 14 51 55l154 -30c-23 -93 -87 -150 -212 -150c-123 0 -187 60 -201 149c-16 -7 -39 -13 -58 -17zM278 528v-185
c53 40 76 97 76 175v9c0 36 -13 54 -38 54s-38 -16 -38 -53z" />
    <glyph glyph-name="Omega" unicode="&#x2126;" horiz-adv-x="674" 
d="M337 712c94 0 170 -29 218 -87c55 -65 73 -148 73 -240c0 -121 -40 -201 -117 -242h105v-143h-253v143c57 27 86 84 86 207c0 97 -7 145 -29 178c-19 28 -46 41 -83 41s-64 -13 -83 -41c-22 -33 -29 -81 -29 -178c0 -123 29 -180 86 -207v-143h-253v143h105
c-77 41 -117 121 -117 242c0 92 18 175 73 240c48 58 124 87 218 87z" />
    <glyph glyph-name="AE" unicode="&#xc6;" horiz-adv-x="938" 
d="M898 0h-456v117h-197l-54 -117h-204l338 700h568v-143h-272v-127h236v-143h-236v-144h277v-143zM442 253v297l-136 -297h136z" />
    <glyph glyph-name="Eth" unicode="&#xd0;" horiz-adv-x="659" 
d="M332 0h-271v298h-60v104h60v298h271c223 0 283 -134 283 -350s-60 -350 -283 -350zM240 402h86v-104h-86v-155h84c78 0 112 31 112 207s-34 207 -112 207h-84v-155z" />
    <glyph glyph-name="ordfeminine" unicode="&#xaa;" horiz-adv-x="426" 
d="M246 371c-11 -29 -43 -47 -90 -47c-75 0 -120 45 -120 116c0 70 45 116 120 116c47 0 79 -19 90 -48v72c0 24 -8 34 -28 34c-19 0 -27 -10 -28 -31h-135c5 77 59 125 163 125c107 0 162 -52 162 -129v-195c0 -19 4 -39 10 -51h-135c-5 9 -9 24 -9 38zM246 440
c0 22 -16 31 -41 31s-42 -9 -42 -31s17 -31 42 -31s41 9 41 31z" />
    <glyph glyph-name="Hbar" unicode="&#x126;" horiz-adv-x="645" 
d="M1 611h60v89h179v-89h165v89h179v-89h60v-104h-60v-507h-179v287h-165v-287h-179v507h-60v104zM240 430h165v77h-165v-77z" />
    <glyph glyph-name="IJ" unicode="&#x132;" horiz-adv-x="860" 
d="M240 700v-700h-179v700h179zM560 131c-41 0 -63 26 -63 83v20h-179v-21c0 -139 83 -225 242 -225s242 86 242 225v487h-179v-486c0 -57 -22 -83 -63 -83z" />
    <glyph glyph-name="Ldot" unicode="&#x13f;" horiz-adv-x="531" 
d="M61 0v700h179v-557h277v-143h-456zM454 447v-141h-144v141h144z" />
    <glyph glyph-name="Lslash" unicode="&#x141;" horiz-adv-x="531" 
d="M-5 189v124l66 35v352h179v-258l143 76v-124l-143 -76v-175h277v-143h-456v224z" />
    <glyph glyph-name="Oslash" unicode="&#xd8;" horiz-adv-x="670" 
d="M626 350c0 -115 -19 -209 -74 -275c-49 -58 -120 -87 -217 -87c-56 0 -104 10 -143 29l-29 -49h-102l60 103c-1 1 -2 2 -3 4c-55 66 -74 160 -74 275s19 209 74 275c49 58 120 87 217 87c56 0 103 -10 143 -30l29 50h102l-60 -103c1 -1 2 -3 3 -4c55 -66 74 -160 74 -275
zM447 350c0 39 -1 71 -4 97l-173 -295c17 -14 38 -21 65 -21c37 0 63 13 82 40c22 33 30 82 30 179zM223 350c0 -40 1 -71 4 -97l172 295c-17 14 -38 21 -64 21c-37 0 -63 -13 -82 -40c-22 -33 -30 -82 -30 -179z" />
    <glyph glyph-name="OE" unicode="&#x152;" horiz-adv-x="915" 
d="M875 0h-548c-223 0 -283 134 -283 350s60 350 283 350h543v-143h-272v-127h236v-143h-236v-144h277v-143zM223 350c0 -176 34 -207 112 -207h84v414h-84c-78 0 -112 -31 -112 -207z" />
    <glyph glyph-name="ordmasculine" unicode="&#xba;" horiz-adv-x="426" 
d="M213 324c-57 0 -97 14 -126 41c-37 34 -52 84 -52 150c0 68 15 118 52 152c29 27 69 41 126 41s97 -14 126 -41c37 -34 52 -84 52 -152c0 -66 -15 -116 -52 -150c-29 -27 -69 -41 -126 -41zM213 613c-16 0 -26 -5 -33 -17c-9 -14 -11 -37 -11 -80s2 -66 11 -80
c7 -12 17 -17 33 -17s26 5 33 17c9 14 11 37 11 80s-2 66 -11 80c-7 12 -17 17 -33 17z" />
    <glyph glyph-name="Thorn" unicode="&#xde;" horiz-adv-x="617" 
d="M240 581h113c154 0 238 -84 238 -231c0 -148 -84 -231 -238 -231h-113v-119h-179v700h179v-119zM240 262h85c57 0 87 27 87 88s-30 88 -87 88h-85v-176z" />
    <glyph glyph-name="Tbar" unicode="&#x166;" horiz-adv-x="561" 
d="M105 410h86v147h-178v143h535v-143h-178v-147h86v-104h-86v-306h-179v306h-86v104z" />
    <glyph glyph-name="Eng" unicode="&#x14a;" horiz-adv-x="655" 
d="M417 36l-182 360v-396h-174v700h159l200 -396v396h174v-737c0 -116 -60 -181 -193 -181c-21 0 -58 1 -77 3v122h32c42 0 61 19 61 68v61z" />
    <glyph glyph-name="onehalf" unicode="&#xbd;" horiz-adv-x="965" 
d="M606 305v24c0 89 65 143 161 143c95 0 162 -53 162 -143c0 -49 -15 -78 -52 -120l-91 -101h143v-108h-314v95l153 175c17 19 31 36 31 58c0 21 -11 34 -32 34c-22 0 -32 -13 -32 -34v-23h-129zM720 700l-342 -700h-133l342 700h133zM292 236h-133v341l-94 -40v114l111 49
h116v-464z" />
    <glyph glyph-name="onethird" unicode="&#x2153;" horiz-adv-x="965" 
d="M720 700l-342 -700h-133l342 700h133zM292 236h-133v341l-94 -40v114l111 49h116v-464zM768 371c-22 0 -31 -14 -31 -34v-5h-124v15c0 72 56 125 155 125c98 0 155 -52 155 -130c0 -45 -24 -81 -65 -95c49 -14 77 -54 77 -109c0 -86 -60 -146 -167 -146
c-108 0 -167 63 -167 144v17h130v-12c0 -31 13 -45 37 -45c23 0 36 14 36 49c0 32 -14 48 -45 48h-46v101h44c27 0 42 14 42 40c0 24 -9 37 -31 37z" />
    <glyph glyph-name="twothirds" unicode="&#x2154;" horiz-adv-x="965" 
d="M35 541v24c0 89 65 143 161 143c95 0 162 -53 162 -143c0 -49 -15 -78 -52 -120l-91 -101h143v-108h-314v95l153 175c17 19 31 36 31 58c0 21 -11 34 -32 34c-22 0 -32 -13 -32 -34v-23h-129zM720 700l-342 -700h-133l342 700h133zM768 371c-22 0 -31 -14 -31 -34v-5
h-124v15c0 72 56 125 155 125c98 0 155 -52 155 -130c0 -45 -24 -81 -65 -95c49 -14 77 -54 77 -109c0 -86 -60 -146 -167 -146c-108 0 -167 63 -167 144v17h130v-12c0 -31 13 -45 37 -45c23 0 36 14 36 49c0 32 -14 48 -45 48h-46v101h44c27 0 42 14 42 40
c0 24 -9 37 -31 37z" />
    <glyph glyph-name="onequarter" unicode="&#xbc;" horiz-adv-x="965" 
d="M720 700l-342 -700h-133l342 700h133zM292 236h-133v341l-94 -40v114l111 49h116v-464zM699 182h70v119zM949 182v-108h-44v-74h-136v74h-182v101l171 289h147v-282h44z" />
    <glyph glyph-name="threequarters" unicode="&#xbe;" horiz-adv-x="965" 
d="M720 700l-342 -700h-133l342 700h133zM197 607c-22 0 -31 -14 -31 -34v-5h-124v15c0 72 56 125 155 125c98 0 155 -52 155 -130c0 -45 -24 -81 -65 -95c49 -14 77 -54 77 -109c0 -86 -60 -146 -167 -146c-108 0 -167 63 -167 144v17h130v-12c0 -31 13 -45 37 -45
c23 0 36 14 36 49c0 32 -14 48 -45 48h-46v101h44c27 0 42 14 42 40c0 24 -9 37 -31 37zM699 182h70v119zM949 182v-108h-44v-74h-136v74h-182v101l171 289h147v-282h44z" />
    <glyph glyph-name="oneeighth" unicode="&#x215b;" horiz-adv-x="965" 
d="M720 700l-342 -700h-133l342 700h133zM292 236h-133v341l-94 -40v114l111 49h116v-464zM768 370c25 0 37 -15 37 -40s-12 -40 -37 -40s-37 15 -37 40s12 40 37 40zM768 197c25 0 40 -15 40 -53s-15 -53 -40 -53s-40 15 -40 53s15 53 40 53zM768 -9c102 0 173 54 173 144
c0 56 -28 92 -76 112c40 17 64 54 64 100c0 70 -57 124 -161 124s-161 -54 -161 -124c0 -46 24 -83 64 -100c-48 -20 -76 -56 -76 -112c0 -90 71 -144 173 -144z" />
    <glyph glyph-name="threeeighths" unicode="&#x215c;" horiz-adv-x="965" 
d="M720 700l-342 -700h-133l342 700h133zM197 607c-22 0 -31 -14 -31 -34v-5h-124v15c0 72 56 125 155 125c98 0 155 -52 155 -130c0 -45 -24 -81 -65 -95c49 -14 77 -54 77 -109c0 -86 -60 -146 -167 -146c-108 0 -167 63 -167 144v17h130v-12c0 -31 13 -45 37 -45
c23 0 36 14 36 49c0 32 -14 48 -45 48h-46v101h44c27 0 42 14 42 40c0 24 -9 37 -31 37zM768 370c25 0 37 -15 37 -40s-12 -40 -37 -40s-37 15 -37 40s12 40 37 40zM768 197c25 0 40 -15 40 -53s-15 -53 -40 -53s-40 15 -40 53s15 53 40 53zM768 -9c102 0 173 54 173 144
c0 56 -28 92 -76 112c40 17 64 54 64 100c0 70 -57 124 -161 124s-161 -54 -161 -124c0 -46 24 -83 64 -100c-48 -20 -76 -56 -76 -112c0 -90 71 -144 173 -144z" />
    <glyph glyph-name="fiveeighths" unicode="&#x215d;" horiz-adv-x="965" 
d="M720 700l-342 -700h-133l342 700h133zM31 370h133c1 -24 13 -37 33 -37c22 0 35 16 35 61c0 48 -12 62 -33 62c-13 0 -26 -7 -29 -24h-124l12 268h283v-108h-161l-4 -72c11 15 34 25 61 25c76 0 124 -52 124 -151c0 -106 -55 -165 -164 -165c-105 0 -160 55 -166 141z
M768 370c25 0 37 -15 37 -40s-12 -40 -37 -40s-37 15 -37 40s12 40 37 40zM768 197c25 0 40 -15 40 -53s-15 -53 -40 -53s-40 15 -40 53s15 53 40 53zM768 -9c102 0 173 54 173 144c0 56 -28 92 -76 112c40 17 64 54 64 100c0 70 -57 124 -161 124s-161 -54 -161 -124
c0 -46 24 -83 64 -100c-48 -20 -76 -56 -76 -112c0 -90 71 -144 173 -144z" />
    <glyph glyph-name="seveneighths" unicode="&#x215e;" horiz-adv-x="965" 
d="M720 700l-342 -700h-133l342 700h133zM33 591v109h326v-93l-137 -371h-140l136 355h-185zM768 370c25 0 37 -15 37 -40s-12 -40 -37 -40s-37 15 -37 40s12 40 37 40zM768 197c25 0 40 -15 40 -53s-15 -53 -40 -53s-40 15 -40 53s15 53 40 53zM768 -9
c102 0 173 54 173 144c0 56 -28 92 -76 112c40 17 64 54 64 100c0 70 -57 124 -161 124s-161 -54 -161 -124c0 -46 24 -83 64 -100c-48 -20 -76 -56 -76 -112c0 -90 71 -144 173 -144z" />
    <glyph glyph-name="ae" unicode="&#xe6;" horiz-adv-x="857" 
d="M502 302h152c-1 63 -26 97 -76 97s-75 -34 -76 -97zM201 146c0 -35 23 -54 67 -54s67 19 67 54s-23 54 -67 54s-67 -19 -67 -54zM581 -12c-75 0 -131 33 -154 83c-35 -55 -91 -83 -188 -83c-135 0 -204 59 -204 158c0 98 67 158 166 158c63 0 114 -26 134 -71v104
c0 35 -21 58 -55 58c-36 0 -54 -21 -55 -53h-166c0 97 75 170 203 170c86 0 141 -31 168 -83c26 51 82 83 156 83c162 0 235 -106 235 -262c0 -14 -1 -29 -2 -39h-317v-9c0 -67 29 -101 76 -101c40 0 64 20 69 53h163c-18 -112 -108 -166 -229 -166z" />
    <glyph glyph-name="dcroat" unicode="&#x111;" horiz-adv-x="575" 
d="M244 644h112v56h166v-56h55v-88h-55v-556h-166v76c-17 -51 -67 -88 -136 -88c-118 0 -184 89 -184 262s66 262 184 262c69 0 119 -37 136 -88v132h-112v88zM356 250c0 105 -24 139 -77 139s-77 -34 -77 -139s24 -139 77 -139s77 34 77 139z" />
    <glyph glyph-name="eth" unicode="&#xf0;" horiz-adv-x="558" 
d="M212 520l-38 48l40 30c-24 9 -50 18 -79 25l80 101c41 -13 77 -27 109 -44l56 43l38 -48l-38 -29c101 -73 142 -185 142 -386c0 -170 -75 -272 -243 -272s-243 104 -243 262c0 173 66 262 184 262c69 0 119 -37 136 -88c-4 59 -31 106 -83 142zM356 250
c0 105 -24 139 -77 139s-77 -34 -77 -139s24 -139 77 -139s77 34 77 139z" />
    <glyph glyph-name="hbar" unicode="&#x127;" horiz-adv-x="566" 
d="M-2 644h55v56h166v-56h112v-88h-112v-134c18 54 67 90 137 90c101 0 159 -63 159 -192v-320h-166v316c0 51 -19 73 -56 73c-46 0 -74 -38 -74 -104v-285h-166v556h-55v88z" />
    <glyph glyph-name="dotlessi" unicode="&#x131;" horiz-adv-x="280" 
d="M57 0v500h166v-500h-166z" />
    <glyph glyph-name="ij" unicode="&#x133;" horiz-adv-x="560" 
d="M57 567v133h166v-133h-166zM57 0v500h166v-500h-166zM337 -26v526h166v-537c0 -117 -58 -181 -193 -181c-20 0 -58 1 -77 3v119h41c44 0 63 21 63 70zM337 567v133h166v-133h-166z" />
    <glyph glyph-name="kgreenlandic" unicode="&#x138;" horiz-adv-x="534" 
d="M53 0v500h166v-183h32l85 183h172l-123 -240l143 -260h-174l-104 204h-31v-204h-166z" />
    <glyph glyph-name="ldot" unicode="&#x140;" horiz-adv-x="420" 
d="M223 0h-166v700h166v-700zM413 447v-141h-144v141h144z" />
    <glyph glyph-name="lslash" unicode="&#x142;" horiz-adv-x="342" 
d="M5 322l83 44v334h166v-247l83 44v-119l-83 -44v-334h-166v246l-83 -43v119z" />
    <glyph glyph-name="oslash" unicode="&#xf8;" horiz-adv-x="558" 
d="M408 538h86l-48 -81c51 -45 76 -118 76 -207c0 -158 -75 -262 -243 -262c-40 0 -74 6 -104 16l-25 -42h-86l48 80c-52 46 -76 118 -76 208c0 158 75 262 243 262c39 0 74 -6 103 -17zM356 250c0 20 -1 37 -3 52l-110 -184c10 -5 22 -7 36 -7c53 0 77 34 77 139zM202 250
c0 -20 0 -38 2 -53l110 184c-10 5 -22 8 -35 8c-53 0 -77 -34 -77 -139z" />
    <glyph glyph-name="oe" unicode="&#x153;" horiz-adv-x="878" 
d="M202 250c0 -105 24 -139 77 -139s77 34 77 139s-24 139 -77 139s-77 -34 -77 -139zM523 302h152c-1 63 -25 97 -76 97s-75 -34 -76 -97zM608 -12c-77 0 -138 32 -169 84c-31 -52 -92 -84 -169 -84c-155 0 -234 104 -234 262s79 262 234 262c77 0 138 -32 169 -84
c31 52 92 84 169 84c155 0 234 -104 234 -262c0 -14 -1 -29 -2 -39h-317v-9c0 -67 29 -101 76 -101c40 0 64 20 69 53h163c-18 -112 -108 -166 -223 -166z" />
    <glyph glyph-name="germandbls" unicode="&#xdf;" horiz-adv-x="608" 
d="M579 178c0 -126 -92 -190 -221 -190c-30 0 -66 4 -91 10v140c15 -5 38 -7 58 -7c41 0 70 21 70 66c0 53 -42 85 -97 85h-17v139h21c40 0 63 21 63 75c0 47 -24 73 -67 73c-42 0 -66 -25 -66 -75v-494h-179v504c0 117 88 208 246 208s245 -94 245 -204
c0 -80 -43 -138 -116 -155c96 -19 151 -75 151 -175z" />
    <glyph glyph-name="thorn" unicode="&#xfe;" horiz-adv-x="575" 
d="M219 250c0 -105 24 -139 77 -139s77 34 77 139s-24 139 -77 139s-77 -34 -77 -139zM53 -218v918h166v-276c17 51 67 88 136 88c118 0 184 -89 184 -262s-66 -262 -184 -262c-69 0 -119 37 -136 88v-294h-166z" />
    <glyph glyph-name="tbar" unicode="&#x167;" horiz-adv-x="420" 
d="M34 304h61v73h-75v123h75v142h166v-142h130v-123h-130v-73h102v-88h-102v-31c0 -57 18 -70 79 -70h51v-119c-23 -2 -72 -3 -101 -3c-145 0 -195 47 -195 172v51h-61v88z" />
    <glyph glyph-name="eng" unicode="&#x14b;" horiz-adv-x="566" 
d="M349 -26v342c0 51 -19 73 -56 73c-46 0 -74 -38 -74 -104v-285h-166v500h166v-78c18 54 67 90 137 90c101 0 159 -63 159 -192v-357c0 -117 -58 -181 -193 -181c-20 0 -58 1 -77 3v119h41c44 0 63 21 63 70z" />
    <glyph glyph-name="napostrophe" unicode="&#x149;" horiz-adv-x="653" 
d="M602 320v-320h-166v316c0 51 -19 73 -56 73c-46 0 -74 -38 -74 -104v-285h-166v500h166v-78c18 54 67 90 137 90c101 0 159 -63 159 -192zM147 700v-140c0 -69 -51 -118 -144 -121v62c48 2 71 20 71 59h-71v140h144z" />
    <glyph glyph-name="onesuperior" unicode="&#xb9;" 
d="M292 236h-133v341l-94 -40v114l111 49h116v-464z" />
    <glyph glyph-name="twosuperior" unicode="&#xb2;" 
d="M35 541v24c0 89 65 143 161 143c95 0 162 -53 162 -143c0 -49 -15 -78 -52 -120l-91 -101h143v-108h-314v95l153 175c17 19 31 36 31 58c0 21 -11 34 -32 34c-22 0 -32 -13 -32 -34v-23h-129z" />
    <glyph glyph-name="threesuperior" unicode="&#xb3;" 
d="M197 607c-22 0 -31 -14 -31 -34v-5h-124v15c0 72 56 125 155 125c98 0 155 -52 155 -130c0 -45 -24 -81 -65 -95c49 -14 77 -54 77 -109c0 -86 -60 -146 -167 -146c-108 0 -167 63 -167 144v17h130v-12c0 -31 13 -45 37 -45c23 0 36 14 36 49c0 32 -14 48 -45 48h-46v101
h44c27 0 42 14 42 40c0 24 -9 37 -31 37z" />
    <glyph glyph-name="foursuperior" unicode="&#x2074;" 
d="M128 418h70v119zM378 418v-108h-44v-74h-136v74h-182v101l171 289h147v-282h44z" />
    <glyph glyph-name="uni207F" unicode="&#x207f;" 
d="M33 237v351h132v-57c11 39 46 66 98 66c57 0 99 -35 99 -113v-247h-132v220c0 22 -9 33 -28 33c-24 0 -37 -17 -37 -46v-207h-132z" />
    <glyph glyph-name="oneinferior" unicode="&#x2081;" 
d="M292 -127h-133v341l-94 -40v114l111 49h116v-464z" />
    <glyph glyph-name="twoinferior" unicode="&#x2082;" 
d="M35 178v24c0 89 65 143 161 143c95 0 162 -53 162 -143c0 -49 -15 -78 -52 -120l-91 -101h143v-108h-314v95l153 175c17 19 31 36 31 58c0 21 -11 34 -32 34c-22 0 -32 -13 -32 -34v-23h-129z" />
    <glyph glyph-name="threeinferior" unicode="&#x2083;" 
d="M197 244c-22 0 -31 -14 -31 -34v-5h-124v15c0 72 56 125 155 125c98 0 155 -52 155 -130c0 -45 -24 -81 -65 -95c49 -14 77 -54 77 -109c0 -86 -60 -146 -167 -146c-108 0 -167 63 -167 144v17h130v-12c0 -31 13 -45 37 -45c23 0 36 14 36 49c0 32 -14 48 -45 48h-46v101
h44c27 0 42 14 42 40c0 24 -9 37 -31 37z" />
    <glyph glyph-name="fourinferior" unicode="&#x2084;" 
d="M128 55h70v119zM378 55v-108h-44v-74h-136v74h-182v101l171 289h147v-282h44z" />
    <glyph glyph-name="afii10017" unicode="&#x410;" horiz-adv-x="642" 
d="M230 700h182l222 -700h-180l-31 117h-205l-30 -117h-180zM321 509l-67 -256h134z" />
    <glyph glyph-name="afii10018" unicode="&#x411;" horiz-adv-x="604" 
d="M574 215c0 -143 -86 -215 -235 -215h-278v700h471v-143h-292v-127h99c149 0 235 -72 235 -215zM240 288v-146h77c51 0 78 21 78 73s-27 73 -78 73h-77z" />
    <glyph glyph-name="afii10019" unicode="&#x412;" horiz-adv-x="623" 
d="M398 494c0 54 -27 75 -78 75h-80v-150h80c51 0 78 21 78 75zM348 0h-287v700h278c155 0 233 -67 233 -192c0 -74 -37 -121 -98 -143c72 -22 117 -80 117 -159c0 -138 -85 -206 -243 -206zM412 215c0 59 -26 84 -82 84h-90v-168h90c56 0 82 25 82 84z" />
    <glyph glyph-name="afii10020" unicode="&#x413;" horiz-adv-x="523" 
d="M61 700h452v-143h-273v-557h-179v700z" />
    <glyph glyph-name="afii10021" unicode="&#x414;" horiz-adv-x="675" 
d="M658 143v-263h-179v120h-288v-120h-179v263h69c19 78 26 174 26 269v288h471v-557h80zM262 143h137v414h-113v-154c0 -96 -7 -184 -24 -260z" />
    <glyph glyph-name="afii10022" unicode="&#x415;" horiz-adv-x="557" 
d="M61 0v700h451v-143h-272v-127h236v-143h-236v-144h277v-143h-456z" />
    <glyph glyph-name="afii10023" unicode="&#x401;" horiz-adv-x="557" 
d="M61 0v700h451v-143h-272v-127h236v-143h-236v-144h277v-143h-456zM259 911v-141h-143v141h143zM458 911v-141h-143v141h143z" />
    <glyph glyph-name="afii10024" unicode="&#x416;" horiz-adv-x="929" 
d="M554 700v-270h47l110 270h182l-154 -341l179 -359h-183l-134 287h-47v-287h-179v287h-47l-134 -287h-183l179 359l-154 341h182l110 -270h47v270h179z" />
    <glyph glyph-name="afii10025" unicode="&#x417;" horiz-adv-x="593" 
d="M294 -12c-151 0 -259 78 -259 219v7h179v-2c0 -50 25 -81 80 -81c56 0 80 32 80 81c0 63 -31 84 -98 84h-84v141h84c57 0 80 23 80 71c0 38 -19 63 -62 63s-61 -25 -61 -64h-177v9c0 105 76 196 238 196s238 -91 238 -192c0 -76 -40 -128 -107 -148
c76 -18 128 -77 128 -165c0 -139 -105 -219 -259 -219z" />
    <glyph glyph-name="afii10026" unicode="&#x418;" horiz-adv-x="655" 
d="M420 400l-185 -400h-174v700h174v-400l185 400h174v-700h-174v400z" />
    <glyph glyph-name="afii10027" unicode="&#x419;" horiz-adv-x="655" 
d="M420 400l-185 -400h-174v700h174v-400l185 400h174v-700h-174v400zM327 759c-99 0 -168 54 -169 154h124c0 -36 15 -55 45 -55s45 19 45 55h124c-1 -100 -70 -154 -169 -154z" />
    <glyph glyph-name="afii10028" unicode="&#x41a;" horiz-adv-x="627" 
d="M607 700l-171 -341l198 -359h-194l-148 287h-52v-287h-179v700h179v-270h52l125 270h190z" />
    <glyph glyph-name="afii10029" unicode="&#x41b;" horiz-adv-x="678" 
d="M104 194v506h513v-700h-179v557h-155v-370c0 -144 -53 -194 -198 -194c-30 0 -56 1 -77 3v139h35c43 0 61 13 61 59z" />
    <glyph glyph-name="afii10030" unicode="&#x41c;" horiz-adv-x="854" 
d="M493 0h-132l-127 338v-338h-173v700h169l197 -522l197 522h169v-700h-173v338z" />
    <glyph glyph-name="afii10031" unicode="&#x41d;" horiz-adv-x="645" 
d="M405 0v287h-165v-287h-179v700h179v-270h165v270h179v-700h-179z" />
    <glyph glyph-name="afii10032" unicode="&#x41e;" horiz-adv-x="670" 
d="M626 350c0 -115 -19 -209 -74 -275c-49 -58 -120 -87 -217 -87s-168 29 -217 87c-55 66 -74 160 -74 275s19 209 74 275c49 58 120 87 217 87s168 -29 217 -87c55 -66 74 -160 74 -275zM223 350c0 -95 8 -146 30 -179c19 -27 45 -40 82 -40s63 13 82 40
c22 33 30 84 30 179s-8 146 -30 179c-19 27 -45 40 -82 40s-63 -13 -82 -40c-22 -33 -30 -84 -30 -179z" />
    <glyph glyph-name="afii10033" unicode="&#x41f;" horiz-adv-x="645" 
d="M405 0v557h-165v-557h-179v700h523v-700h-179z" />
    <glyph glyph-name="afii10034" unicode="&#x420;" horiz-adv-x="617" 
d="M353 238h-113v-238h-179v700h292c154 0 238 -84 238 -231c0 -148 -84 -231 -238 -231zM240 381h85c57 0 87 27 87 88s-30 88 -87 88h-85v-176z" />
    <glyph glyph-name="afii10035" unicode="&#x421;" horiz-adv-x="660" 
d="M44 350c0 115 19 209 74 275c49 58 120 87 217 87c182 0 285 -108 285 -258h-178c-2 73 -39 115 -107 115c-37 0 -63 -13 -82 -40c-22 -33 -30 -82 -30 -179s8 -146 30 -179c19 -27 45 -40 82 -40c68 0 107 43 107 115h178c0 -150 -103 -258 -285 -258
c-97 0 -168 29 -217 87c-55 66 -74 160 -74 275z" />
    <glyph glyph-name="afii10036" unicode="&#x422;" horiz-adv-x="561" 
d="M13 557v143h535v-143h-178v-557h-179v557h-178z" />
    <glyph glyph-name="afii10037" unicode="&#x423;" horiz-adv-x="624" 
d="M236 191l5 12l-224 497h182l119 -304l115 304h182l-236 -569c-42 -102 -93 -131 -193 -131c-16 0 -41 0 -57 2v141h38c36 0 54 10 69 48z" />
    <glyph glyph-name="afii10038" unicode="&#x424;" horiz-adv-x="807" 
d="M314 237v226c-72 -2 -110 -36 -110 -113s38 -111 110 -113zM493 463v-226c72 2 110 36 110 113s-38 111 -110 113zM314 700h179v-99c163 -11 283 -80 283 -251s-120 -240 -283 -251v-99h-179v99c-163 11 -283 80 -283 251s120 240 283 251v99z" />
    <glyph glyph-name="afii10039" unicode="&#x425;" horiz-adv-x="636" 
d="M438 0l-120 256l-120 -256h-184l185 362l-170 338h184l105 -234l105 234h184l-170 -338l185 -362h-184z" />
    <glyph glyph-name="afii10040" unicode="&#x426;" horiz-adv-x="681" 
d="M485 -120v120h-424v700h179v-557h165v557h179v-557h80v-263h-179z" />
    <glyph glyph-name="afii10041" unicode="&#x427;" horiz-adv-x="623" 
d="M383 0v281c-28 -25 -82 -43 -135 -43c-132 0 -197 68 -197 207v255h179v-244c0 -50 20 -75 66 -75c36 0 70 12 87 36v283h179v-700h-179z" />
    <glyph glyph-name="afii10042" unicode="&#x428;" horiz-adv-x="969" 
d="M729 143v557h179v-700h-847v700h179v-557h155v557h179v-557h155z" />
    <glyph glyph-name="afii10043" unicode="&#x429;" horiz-adv-x="1005" 
d="M809 0h-748v700h179v-557h155v557h179v-557h155v557h179v-557h80v-263h-179v120z" />
    <glyph glyph-name="afii10044" unicode="&#x42a;" horiz-adv-x="728" 
d="M698 215c0 -143 -86 -215 -235 -215h-278v557h-172v143h351v-270h99c149 0 235 -72 235 -215zM364 288v-146h77c51 0 78 21 78 73s-27 73 -78 73h-77z" />
    <glyph glyph-name="afii10045" unicode="&#x42b;" horiz-adv-x="880" 
d="M240 288v-146h77c51 0 78 21 78 73s-27 73 -78 73h-77zM574 215c0 -143 -86 -215 -235 -215h-278v700h179v-270h99c149 0 235 -72 235 -215zM819 700v-700h-179v700h179z" />
    <glyph glyph-name="afii10046" unicode="&#x42c;" horiz-adv-x="604" 
d="M240 288v-146h77c51 0 78 21 78 73s-27 73 -78 73h-77zM574 215c0 -143 -86 -215 -235 -215h-278v700h179v-270h99c149 0 235 -72 235 -215z" />
    <glyph glyph-name="afii10047" unicode="&#x42d;" horiz-adv-x="660" 
d="M616 350c0 -115 -19 -209 -74 -275c-49 -58 -120 -87 -217 -87c-182 0 -285 108 -285 258h178c0 -72 39 -115 107 -115c37 0 63 13 82 40c16 23 25 55 28 107h-177v143h177c-3 52 -12 84 -28 108c-19 27 -45 40 -82 40c-68 0 -105 -42 -107 -115h-178
c0 150 103 258 285 258c97 0 168 -29 217 -87c55 -66 74 -160 74 -275z" />
    <glyph glyph-name="afii10048" unicode="&#x42e;" horiz-adv-x="930" 
d="M886 350c0 -115 -19 -209 -74 -275c-49 -58 -120 -87 -217 -87s-168 29 -217 87c-43 51 -64 120 -71 203h-67v-278h-179v700h179v-279h67c7 83 28 152 71 204c49 58 120 87 217 87s168 -29 217 -87c55 -66 74 -160 74 -275zM483 350c0 -97 8 -146 30 -179
c19 -27 45 -40 82 -40s63 13 82 40c22 33 30 82 30 179s-8 146 -30 179c-19 27 -45 40 -82 40s-63 -13 -82 -40c-22 -33 -30 -82 -30 -179z" />
    <glyph glyph-name="afii10049" unicode="&#x42f;" horiz-adv-x="639" 
d="M236 152l-5 -87c-1 -24 -6 -50 -13 -65h-179c8 16 13 37 15 66l6 95c6 92 35 136 108 149c-74 21 -120 81 -120 176c0 130 79 214 230 214h300v-700h-179v238h-77c-61 0 -82 -21 -86 -86zM314 381h85v176h-85c-56 0 -87 -25 -87 -88s31 -88 87 -88z" />
    <glyph glyph-name="afii10065" unicode="&#x430;" horiz-adv-x="556" 
d="M501 342v-266c0 -28 5 -59 15 -76h-170c-6 13 -10 35 -11 59c-19 -42 -67 -71 -134 -71c-98 0 -166 59 -166 158c0 98 67 158 166 158c63 0 114 -26 134 -71v104c0 35 -18 58 -55 58c-36 0 -54 -21 -55 -53h-166c0 97 73 170 221 170c142 0 221 -73 221 -170zM201 146
c0 -35 23 -54 67 -54s67 19 67 54s-23 54 -67 54s-67 -19 -67 -54z" />
    <glyph glyph-name="afii10066" unicode="&#x431;" horiz-adv-x="565" 
d="M209 250c0 -105 24 -139 77 -139s77 34 77 139s-24 139 -77 139s-77 -34 -77 -139zM529 250c0 -158 -75 -262 -243 -262s-243 104 -243 268v57c0 296 44 346 252 384l130 24l41 -120l-135 -25c-102 -19 -122 -42 -122 -134v-18c17 51 67 88 136 88
c118 0 184 -89 184 -262z" />
    <glyph glyph-name="afii10067" unicode="&#x432;" horiz-adv-x="532" 
d="M310 0h-257v500h249c127 0 184 -51 184 -138c0 -51 -29 -89 -74 -103c53 -12 88 -51 88 -112c0 -85 -51 -147 -190 -147zM334 157c0 39 -20 49 -62 49h-53v-97h53c42 0 62 10 62 48zM219 305h56c32 0 48 12 48 43s-16 43 -48 43h-56v-86z" />
    <glyph glyph-name="afii10068" unicode="&#x433;" horiz-adv-x="431" 
d="M413 377h-194v-377h-166v500h360v-123z" />
    <glyph glyph-name="afii10069" unicode="&#x434;" horiz-adv-x="567" 
d="M552 122v-232h-166v110h-209v-110h-167v232h55c14 60 19 131 19 196v182h403v-378h65zM226 122h100v255h-82v-69c0 -61 -5 -127 -18 -186z" />
    <glyph glyph-name="afii10070" unicode="&#x435;" horiz-adv-x="558" 
d="M520 211h-317v-9c0 -67 29 -101 76 -101c40 0 64 20 69 53h163c-18 -112 -107 -166 -232 -166c-169 0 -243 105 -243 262c0 156 73 262 243 262s243 -106 243 -262c0 -14 -1 -29 -2 -39zM203 302h152c-1 63 -26 97 -76 97s-75 -34 -76 -97z" />
    <glyph glyph-name="afii10071" unicode="&#x451;" horiz-adv-x="558" 
d="M520 211h-317v-9c0 -67 29 -101 76 -101c40 0 64 20 69 53h163c-18 -112 -107 -166 -232 -166c-169 0 -243 105 -243 262c0 156 73 262 243 262s243 -106 243 -262c0 -14 -1 -29 -2 -39zM203 302h152c-1 63 -26 97 -76 97s-75 -34 -76 -97zM251 712v-141h-143v141h143z
M450 712v-141h-143v141h143z" />
    <glyph glyph-name="afii10072" unicode="&#x436;" horiz-adv-x="782" 
d="M308 500h166v-180h35l72 180h171l-109 -240l131 -260h-174l-92 201h-34v-201h-166v201h-34l-92 -201h-174l131 260l-109 240h171l72 -180h35v180z" />
    <glyph glyph-name="afii10073" unicode="&#x437;" horiz-adv-x="512" 
d="M251 200h-72v108h74c32 0 54 17 54 45s-18 44 -51 44c-35 0 -52 -17 -52 -44h-161v9c0 86 71 150 213 150c138 0 213 -63 213 -146c0 -57 -39 -98 -94 -111c64 -13 105 -52 105 -115c0 -90 -87 -152 -227 -152s-227 62 -227 152v7h167c1 -27 22 -45 60 -45
c36 0 60 20 60 50c0 31 -22 48 -62 48z" />
    <glyph glyph-name="afii10074" unicode="&#x438;" horiz-adv-x="548" 
d="M219 500v-257l119 257h157v-500h-166v257l-119 -257h-157v500h166z" />
    <glyph glyph-name="afii10075" unicode="&#x439;" horiz-adv-x="548" 
d="M219 500v-257l119 257h157v-500h-166v257l-119 -257h-157v500h166zM274 562c-99 0 -168 54 -169 154h124c0 -36 15 -55 45 -55s45 19 45 55h124c-1 -100 -70 -154 -169 -154z" />
    <glyph glyph-name="afii10076" unicode="&#x43a;" horiz-adv-x="534" 
d="M53 0v500h166v-183h32l85 183h172l-123 -240l143 -260h-174l-104 204h-31v-204h-166z" />
    <glyph glyph-name="afii10077" unicode="&#x43b;" horiz-adv-x="571" 
d="M518 500v-500h-166v377h-97v-220c0 -123 -48 -164 -184 -164c-20 0 -45 1 -59 3v119h23c38 0 54 11 54 60v325h429z" />
    <glyph glyph-name="afii10078" unicode="&#x43c;" horiz-adv-x="676" 
d="M204 500l134 -344l134 344h151v-500h-158v210l-82 -210h-90l-82 210v-210h-158v500h151z" />
    <glyph glyph-name="afii10079" unicode="&#x43d;" horiz-adv-x="540" 
d="M487 500v-500h-166v195h-102v-195h-166v500h166v-182h102v182h166z" />
    <glyph glyph-name="afii10080" unicode="&#x43e;" horiz-adv-x="558" 
d="M202 250c0 -105 24 -139 77 -139s77 34 77 139s-24 139 -77 139s-77 -34 -77 -139zM36 250c0 158 75 262 243 262s243 -104 243 -262s-75 -262 -243 -262s-243 104 -243 262z" />
    <glyph glyph-name="afii10081" unicode="&#x43f;" horiz-adv-x="540" 
d="M487 500v-500h-166v377h-102v-377h-166v500h434z" />
    <glyph glyph-name="afii10082" unicode="&#x440;" horiz-adv-x="575" 
d="M219 500v-76c17 51 67 88 136 88c118 0 184 -89 184 -262s-66 -262 -184 -262c-69 0 -119 37 -136 88v-294h-166v718h166zM219 250c0 -105 24 -139 77 -139s77 34 77 139s-24 139 -77 139s-77 -34 -77 -139z" />
    <glyph glyph-name="afii10083" unicode="&#x441;" horiz-adv-x="548" 
d="M36 250c0 158 75 262 243 262c149 0 233 -80 238 -196h-165c-5 51 -27 73 -73 73c-53 0 -77 -34 -77 -139s24 -139 77 -139c46 0 68 22 73 73h165c-5 -116 -89 -196 -238 -196c-168 0 -243 104 -243 262z" />
    <glyph glyph-name="afii10084" unicode="&#x442;" horiz-adv-x="482" 
d="M158 377h-141v123h448v-123h-141v-377h-166v377z" />
    <glyph glyph-name="afii10085" unicode="&#x443;" horiz-adv-x="544" 
d="M178 -41l14 41l-179 500h170l90 -315l88 315h170l-192 -553c-46 -132 -83 -165 -191 -165c-22 0 -54 0 -74 2v121h37c32 0 52 11 67 54z" />
    <glyph glyph-name="afii10086" unicode="&#x444;" horiz-adv-x="878" 
d="M36 250c0 173 66 262 184 262c69 0 119 -37 136 -88v276h166v-276c17 51 67 88 136 88c118 0 184 -89 184 -262s-66 -262 -184 -262c-69 0 -119 37 -136 88v-285h-166v285c-17 -51 -67 -88 -136 -88c-118 0 -184 89 -184 262zM522 250c0 -105 24 -139 77 -139
s77 34 77 139s-24 139 -77 139s-77 -34 -77 -139zM356 250c0 105 -24 139 -77 139s-77 -34 -77 -139s24 -139 77 -139s77 34 77 139z" />
    <glyph glyph-name="afii10087" unicode="&#x445;" horiz-adv-x="510" 
d="M332 0l-77 171l-77 -171h-170l137 257l-127 243h170l67 -158l67 158h170l-127 -243l137 -257h-170z" />
    <glyph glyph-name="afii10088" unicode="&#x446;" horiz-adv-x="567" 
d="M552 122v-232h-166v110h-333v500h166v-378h102v378h166v-378h65z" />
    <glyph glyph-name="afii10089" unicode="&#x447;" horiz-adv-x="522" 
d="M303 0v174c-19 -14 -59 -24 -97 -24c-105 0 -163 50 -163 171v179h166v-178c0 -35 12 -50 42 -50c20 0 41 6 52 17v211h166v-500h-166z" />
    <glyph glyph-name="afii10090" unicode="&#x448;" horiz-adv-x="796" 
d="M743 500v-500h-690v500h166v-378h96v378h166v-378h96v378h166z" />
    <glyph glyph-name="afii10091" unicode="&#x449;" horiz-adv-x="823" 
d="M642 0h-589v500h166v-378h96v378h166v-378h96v378h166v-378h65v-232h-166v110z" />
    <glyph glyph-name="afii10092" unicode="&#x44a;" horiz-adv-x="615" 
d="M319 500v-174h74c125 0 195 -56 195 -163s-70 -163 -195 -163h-240v377h-136v123h302zM319 113h56c33 0 52 16 52 50s-19 50 -52 50h-56v-100z" />
    <glyph glyph-name="afii10093" unicode="&#x44b;" horiz-adv-x="759" 
d="M540 0v500h166v-500h-166zM219 500v-174h74c125 0 195 -56 195 -163s-70 -163 -195 -163h-240v500h166zM219 113h56c33 0 52 16 52 50s-19 50 -52 50h-56v-100z" />
    <glyph glyph-name="afii10094" unicode="&#x44c;" horiz-adv-x="515" 
d="M219 500v-174h74c125 0 195 -56 195 -163s-70 -163 -195 -163h-240v500h166zM219 113h56c33 0 52 16 52 50s-19 50 -52 50h-56v-100z" />
    <glyph glyph-name="afii10095" unicode="&#x44d;" horiz-adv-x="548" 
d="M267 -12c-144 0 -224 74 -236 181h166c8 -37 28 -58 70 -58s70 22 76 80h-116v117h116c-6 58 -34 81 -76 81s-62 -21 -70 -58h-166c12 107 92 181 236 181c168 0 245 -104 245 -262s-77 -262 -245 -262z" />
    <glyph glyph-name="afii10096" unicode="&#x44e;" horiz-adv-x="778" 
d="M219 500v-189h41c18 123 93 201 239 201c168 0 243 -104 243 -262s-75 -262 -243 -262c-145 0 -221 77 -239 200h-41v-188h-166v500h166zM422 250c0 -105 24 -139 77 -139s77 34 77 139s-24 139 -77 139s-77 -34 -77 -139z" />
    <glyph glyph-name="afii10097" unicode="&#x44f;" horiz-adv-x="535" 
d="M219 110l-4 -66c-1 -18 -3 -33 -7 -44h-165c3 12 6 26 7 46l4 70c4 62 28 96 83 107c-55 15 -92 58 -92 128c0 98 68 149 197 149h240v-500h-166v161h-47c-35 0 -48 -15 -50 -51zM211 329c0 -37 21 -54 53 -54h52v108h-52c-32 0 -53 -16 -53 -54z" />
    <glyph glyph-name="AEacute" unicode="&#x1fc;" horiz-adv-x="938" 
d="M898 0h-456v117h-197l-54 -117h-204l338 700h568v-143h-272v-127h236v-143h-236v-144h277v-143zM442 253v297l-136 -297h136zM734 924l-124 -161h-144l92 161h176z" />
    <glyph glyph-name="Aacute" unicode="&#xc1;" horiz-adv-x="642" 
d="M230 700h182l222 -700h-180l-31 117h-205l-30 -117h-180zM321 509l-67 -256h134zM485 924l-124 -161h-144l92 161h176z" />
    <glyph glyph-name="Abreve" unicode="&#x102;" horiz-adv-x="642" 
d="M230 700h182l222 -700h-180l-31 117h-205l-30 -117h-180zM321 509l-67 -256h134zM321 759c-99 0 -168 54 -169 154h124c0 -36 15 -55 45 -55s45 19 45 55h124c-1 -100 -70 -154 -169 -154z" />
    <glyph glyph-name="Acircumflex" unicode="&#xc2;" horiz-adv-x="642" 
d="M230 700h182l222 -700h-180l-31 117h-205l-30 -117h-180zM321 509l-67 -256h134zM256 924h130l119 -161h-135l-49 68l-49 -68h-135z" />
    <glyph glyph-name="Adieresis" unicode="&#xc4;" horiz-adv-x="642" 
d="M230 700h182l222 -700h-180l-31 117h-205l-30 -117h-180zM321 509l-67 -256h134zM293 911v-141h-143v141h143zM492 911v-141h-143v141h143z" />
    <glyph glyph-name="Agrave" unicode="&#xc0;" horiz-adv-x="642" 
d="M230 700h182l222 -700h-180l-31 117h-205l-30 -117h-180zM321 509l-67 -256h134zM281 763l-124 161h176l92 -161h-144z" />
    <glyph glyph-name="Amacron" unicode="&#x100;" horiz-adv-x="642" 
d="M230 700h182l222 -700h-180l-31 117h-205l-30 -117h-180zM321 509l-67 -256h134zM165 782v120h312v-120h-312z" />
    <glyph glyph-name="Aogonek" unicode="&#x104;" horiz-adv-x="642" 
d="M454 0l-31 117h-205l-30 -117h-180l222 700h182l222 -700h-64c-50 -30 -75 -66 -75 -95v-5c0 -22 13 -36 40 -36c19 0 35 5 49 16l41 -62c-24 -24 -64 -37 -111 -37c-87 0 -140 39 -140 99v7c0 45 30 87 80 113zM321 509l-67 -256h134z" />
    <glyph glyph-name="Aring" unicode="&#xc5;" horiz-adv-x="642" 
d="M230 700h182l222 -700h-180l-31 117h-205l-30 -117h-180zM321 509l-67 -256h134zM436 843c0 -67 -49 -107 -115 -107s-115 40 -115 107s49 107 115 107s115 -40 115 -107zM350 843c0 19 -11 31 -29 31s-29 -12 -29 -31s11 -31 29 -31s29 12 29 31z" />
    <glyph glyph-name="Aringacute" unicode="&#x1fa;" horiz-adv-x="642" 
d="M436 768c0 -32 -12 -59 -34 -76h10l222 -692h-180l-31 117h-205l-30 -117h-180l222 692h10c-22 17 -34 44 -34 76c0 67 49 107 115 107s115 -40 115 -107zM321 509l-67 -256h134zM350 768c0 19 -11 31 -29 31s-29 -12 -29 -31s11 -31 29 -31s29 12 29 31zM307 1007h155
l-84 -113h-123z" />
    <glyph glyph-name="Atilde" unicode="&#xc3;" horiz-adv-x="642" 
d="M230 700h182l222 -700h-180l-31 117h-205l-30 -117h-180zM321 509l-67 -256h134zM373 910h128c0 -106 -35 -147 -103 -147c-61 0 -87 40 -112 40c-13 0 -17 -9 -17 -27v-5h-128c0 106 35 147 103 147c61 0 87 -40 112 -40c13 0 17 9 17 27v5z" />
    <glyph glyph-name="Cacute" unicode="&#x106;" horiz-adv-x="660" 
d="M44 350c0 115 19 209 74 275c49 58 120 87 217 87c182 0 285 -108 285 -258h-178c-2 73 -39 115 -107 115c-37 0 -63 -13 -82 -40c-22 -33 -30 -82 -30 -179s8 -146 30 -179c19 -27 45 -40 82 -40c68 0 107 43 107 115h178c0 -150 -103 -258 -285 -258
c-97 0 -168 29 -217 87c-55 66 -74 160 -74 275zM483 924l-124 -161h-144l92 161h176z" />
    <glyph glyph-name="Ccaron" unicode="&#x10c;" horiz-adv-x="660" 
d="M44 350c0 115 19 209 74 275c49 58 120 87 217 87c182 0 285 -108 285 -258h-178c-2 73 -39 115 -107 115c-37 0 -63 -13 -82 -40c-22 -33 -30 -82 -30 -179s8 -146 30 -179c19 -27 45 -40 82 -40c68 0 107 43 107 115h178c0 -150 -103 -258 -285 -258
c-97 0 -168 29 -217 87c-55 66 -74 160 -74 275zM393 763h-130l-119 161h135l49 -68l49 68h135z" />
    <glyph glyph-name="Ccedilla" unicode="&#xc7;" horiz-adv-x="660" 
d="M44 350c0 115 19 209 74 275c49 58 120 87 217 87c182 0 285 -108 285 -258h-178c-2 73 -39 115 -107 115c-37 0 -63 -13 -82 -40c-22 -33 -30 -82 -30 -179s8 -146 30 -179c19 -27 45 -40 82 -40c68 0 107 43 107 115h178c0 -132 -79 -231 -221 -253l-18 -34
c59 -7 92 -44 92 -91c0 -61 -48 -106 -136 -106c-51 0 -93 15 -122 36l37 70c20 -14 42 -23 64 -23c21 0 35 8 35 26s-16 28 -42 28c-10 0 -27 -2 -36 -5l-17 21l36 75c-76 8 -133 36 -174 85c-55 66 -74 160 -74 275z" />
    <glyph glyph-name="Ccircumflex" unicode="&#x108;" horiz-adv-x="660" 
d="M44 350c0 115 19 209 74 275c49 58 120 87 217 87c182 0 285 -108 285 -258h-178c-2 73 -39 115 -107 115c-37 0 -63 -13 -82 -40c-22 -33 -30 -82 -30 -179s8 -146 30 -179c19 -27 45 -40 82 -40c68 0 107 43 107 115h178c0 -150 -103 -258 -285 -258
c-97 0 -168 29 -217 87c-55 66 -74 160 -74 275zM263 924h130l119 -161h-135l-49 68l-49 -68h-135z" />
    <glyph glyph-name="Cdotaccent" unicode="&#x10a;" horiz-adv-x="660" 
d="M44 350c0 115 19 209 74 275c49 58 120 87 217 87c182 0 285 -108 285 -258h-178c-2 73 -39 115 -107 115c-37 0 -63 -13 -82 -40c-22 -33 -30 -82 -30 -179s8 -146 30 -179c19 -27 45 -40 82 -40c68 0 107 43 107 115h178c0 -150 -103 -258 -285 -258
c-97 0 -168 29 -217 87c-55 66 -74 160 -74 275zM400 911v-141h-144v141h144z" />
    <glyph glyph-name="Dcaron" unicode="&#x10e;" horiz-adv-x="659" 
d="M61 0h271c223 0 283 134 283 350s-60 350 -283 350h-271v-700zM436 350c0 -176 -34 -207 -112 -207h-84v414h84c78 0 112 -31 112 -207zM373 763h-130l-119 161h135l49 -68l49 68h135z" />
    <glyph glyph-name="Dcroat" unicode="&#x110;" horiz-adv-x="659" 
d="M332 0h-271v298h-60v104h60v298h271c223 0 283 -134 283 -350s-60 -350 -283 -350zM240 402h86v-104h-86v-155h84c78 0 112 31 112 207s-34 207 -112 207h-84v-155z" />
    <glyph glyph-name="Eacute" unicode="&#xc9;" horiz-adv-x="557" 
d="M61 0v700h451v-143h-272v-127h236v-143h-236v-144h277v-143h-456zM452 924l-124 -161h-144l92 161h176z" />
    <glyph glyph-name="Ebreve" unicode="&#x114;" horiz-adv-x="557" 
d="M61 0v700h451v-143h-272v-127h236v-143h-236v-144h277v-143h-456zM287 759c-99 0 -168 54 -169 154h124c0 -36 15 -55 45 -55s45 19 45 55h124c-1 -100 -70 -154 -169 -154z" />
    <glyph glyph-name="Ecaron" unicode="&#x11a;" horiz-adv-x="557" 
d="M61 0v700h451v-143h-272v-127h236v-143h-236v-144h277v-143h-456zM352 763h-130l-119 161h135l49 -68l49 68h135z" />
    <glyph glyph-name="Ecircumflex" unicode="&#xca;" horiz-adv-x="557" 
d="M61 0v700h451v-143h-272v-127h236v-143h-236v-144h277v-143h-456zM222 924h130l119 -161h-135l-49 68l-49 -68h-135z" />
    <glyph glyph-name="Edieresis" unicode="&#xcb;" horiz-adv-x="557" 
d="M61 0v700h451v-143h-272v-127h236v-143h-236v-144h277v-143h-456zM259 911v-141h-143v141h143zM458 911v-141h-143v141h143z" />
    <glyph glyph-name="Edotaccent" unicode="&#x116;" horiz-adv-x="557" 
d="M61 0v700h451v-143h-272v-127h236v-143h-236v-144h277v-143h-456zM359 911v-141h-144v141h144z" />
    <glyph glyph-name="Egrave" unicode="&#xc8;" horiz-adv-x="557" 
d="M61 0v700h451v-143h-272v-127h236v-143h-236v-144h277v-143h-456zM256 763l-124 161h176l92 -161h-144z" />
    <glyph glyph-name="Emacron" unicode="&#x112;" horiz-adv-x="557" 
d="M61 0v700h451v-143h-272v-127h236v-143h-236v-144h277v-143h-456zM131 782v120h312v-120h-312z" />
    <glyph glyph-name="Eogonek" unicode="&#x118;" horiz-adv-x="557" 
d="M61 0v700h451v-143h-272v-127h236v-143h-236v-144h277v-143h-52c-50 -30 -75 -66 -75 -95v-5c0 -22 13 -36 40 -36c19 0 35 5 49 16l41 -62c-24 -24 -64 -37 -111 -37c-87 0 -140 39 -140 99v7c0 45 30 87 80 113h-288z" />
    <glyph glyph-name="Gbreve" unicode="&#x11e;" horiz-adv-x="675" 
d="M44 350c0 115 19 209 74 275c49 58 120 87 217 87c182 0 285 -108 285 -258h-178c-2 73 -39 115 -107 115c-37 0 -63 -13 -82 -40c-22 -33 -30 -82 -30 -179c0 -99 8 -151 34 -185c19 -24 46 -34 81 -34c71 0 108 46 112 121h-113v123h281v-375h-127l-17 77
c-24 -54 -84 -89 -165 -89c-181 0 -265 143 -265 362zM329 759c-99 0 -168 54 -169 154h124c0 -36 15 -55 45 -55s45 19 45 55h124c-1 -100 -70 -154 -169 -154z" />
    <glyph glyph-name="Gcircumflex" unicode="&#x11c;" horiz-adv-x="675" 
d="M44 350c0 115 19 209 74 275c49 58 120 87 217 87c182 0 285 -108 285 -258h-178c-2 73 -39 115 -107 115c-37 0 -63 -13 -82 -40c-22 -33 -30 -82 -30 -179c0 -99 8 -151 34 -185c19 -24 46 -34 81 -34c71 0 108 46 112 121h-113v123h281v-375h-127l-17 77
c-24 -54 -84 -89 -165 -89c-181 0 -265 143 -265 362zM264 924h130l119 -161h-135l-49 68l-49 -68h-135z" />
    <glyph glyph-name="Gcommaaccent" unicode="&#x122;" horiz-adv-x="675" 
d="M44 350c0 115 19 209 74 275c49 58 120 87 217 87c182 0 285 -108 285 -258h-178c-2 73 -39 115 -107 115c-37 0 -63 -13 -82 -40c-22 -33 -30 -82 -30 -179c0 -99 8 -151 34 -185c19 -24 46 -34 81 -34c71 0 108 46 112 121h-113v123h281v-375h-127l-17 77
c-24 -54 -84 -89 -165 -89c-181 0 -265 143 -265 362zM392 -218h-130l40 170h154z" />
    <glyph glyph-name="Gdotaccent" unicode="&#x120;" horiz-adv-x="675" 
d="M44 350c0 115 19 209 74 275c49 58 120 87 217 87c182 0 285 -108 285 -258h-178c-2 73 -39 115 -107 115c-37 0 -63 -13 -82 -40c-22 -33 -30 -82 -30 -179c0 -99 8 -151 34 -185c19 -24 46 -34 81 -34c71 0 108 46 112 121h-113v123h281v-375h-127l-17 77
c-24 -54 -84 -89 -165 -89c-181 0 -265 143 -265 362zM401 911v-141h-144v141h144z" />
    <glyph glyph-name="Hcircumflex" unicode="&#x124;" horiz-adv-x="645" 
d="M405 0v287h-165v-287h-179v700h179v-270h165v270h179v-700h-179zM257 924h130l119 -161h-135l-49 68l-49 -68h-135z" />
    <glyph glyph-name="Iacute" unicode="&#xcd;" horiz-adv-x="301" 
d="M240 700v-700h-179v700h179zM320 924l-124 -161h-144l92 161h176z" />
    <glyph glyph-name="Ibreve" unicode="&#x12c;" horiz-adv-x="301" 
d="M240 700v-700h-179v700h179zM150 759c-99 0 -168 54 -169 154h124c0 -36 15 -55 45 -55s45 19 45 55h124c-1 -100 -70 -154 -169 -154z" />
    <glyph glyph-name="Icircumflex" unicode="&#xce;" horiz-adv-x="301" 
d="M240 700v-700h-179v700h179zM85 924h130l119 -161h-135l-49 68l-49 -68h-135z" />
    <glyph glyph-name="Idieresis" unicode="&#xcf;" horiz-adv-x="301" 
d="M240 700v-700h-179v700h179zM122 911v-141h-143v141h143zM321 911v-141h-143v141h143z" />
    <glyph glyph-name="Idotaccent" unicode="&#x130;" horiz-adv-x="301" 
d="M240 700v-700h-179v700h179zM222 911v-141h-144v141h144z" />
    <glyph glyph-name="Igrave" unicode="&#xcc;" horiz-adv-x="301" 
d="M240 700v-700h-179v700h179zM105 763l-124 161h176l92 -161h-144z" />
    <glyph glyph-name="Imacron" unicode="&#x12a;" horiz-adv-x="301" 
d="M240 700v-700h-179v700h179zM-6 782v120h312v-120h-312z" />
    <glyph glyph-name="Iogonek" unicode="&#x12e;" horiz-adv-x="301" 
d="M124 0h-63v700h179v-700c-50 -30 -75 -66 -75 -95v-5c0 -22 13 -36 40 -36c19 0 35 5 49 16l41 -62c-24 -24 -64 -37 -111 -37c-87 0 -140 39 -140 99v7c0 45 30 87 80 113z" />
    <glyph glyph-name="Itilde" unicode="&#x128;" horiz-adv-x="301" 
d="M240 700v-700h-179v700h179zM202 910h128c0 -106 -35 -147 -103 -147c-61 0 -87 40 -112 40c-13 0 -17 -9 -17 -27v-5h-128c0 106 35 147 103 147c61 0 87 -40 112 -40c13 0 17 9 17 27v5z" />
    <glyph glyph-name="Jcircumflex" unicode="&#x134;" horiz-adv-x="559" 
d="M259 131c41 0 63 26 63 83v486h179v-487c0 -139 -83 -225 -242 -225s-242 86 -242 225v21h179v-20c0 -57 22 -83 63 -83zM345 924h130l119 -161h-135l-49 68l-49 -68h-135z" />
    <glyph glyph-name="Kcommaaccent" unicode="&#x136;" horiz-adv-x="627" 
d="M607 700l-171 -341l198 -359h-194l-148 287h-52v-287h-179v700h179v-270h52l125 270h190zM354 -218h-130l40 170h154z" />
    <glyph glyph-name="Lacute" unicode="&#x139;" horiz-adv-x="531" 
d="M61 0v700h179v-557h277v-143h-456zM330 924l-124 -161h-144l92 161h176z" />
    <glyph glyph-name="Lcaron" unicode="&#x13d;" horiz-adv-x="531" 
d="M61 0v700h179v-557h277v-143h-456zM462 700v-140c0 -69 -51 -118 -144 -121v62c48 2 71 20 71 59h-71v140h144z" />
    <glyph glyph-name="Lcommaaccent" unicode="&#x13b;" horiz-adv-x="531" 
d="M61 0v700h179v-557h277v-143h-456zM324 -218h-130l40 170h154z" />
    <glyph glyph-name="Nacute" unicode="&#x143;" horiz-adv-x="655" 
d="M420 0l-185 400v-400h-174v700h174l185 -400v400h174v-700h-174zM491 924l-124 -161h-144l92 161h176z" />
    <glyph glyph-name="Ncaron" unicode="&#x147;" horiz-adv-x="655" 
d="M420 0l-185 400v-400h-174v700h174l185 -400v400h174v-700h-174zM392 763h-130l-119 161h135l49 -68l49 68h135z" />
    <glyph glyph-name="Ncommaaccent" unicode="&#x145;" horiz-adv-x="655" 
d="M420 0l-185 400v-400h-174v700h174l185 -400v400h174v-700h-174zM368 -218h-130l40 170h154z" />
    <glyph glyph-name="Ntilde" unicode="&#xd1;" horiz-adv-x="655" 
d="M420 0l-185 400v-400h-174v700h174l185 -400v400h174v-700h-174zM379 910h128c0 -106 -35 -147 -103 -147c-61 0 -87 40 -112 40c-13 0 -17 -9 -17 -27v-5h-128c0 106 35 147 103 147c61 0 87 -40 112 -40c13 0 17 9 17 27v5z" />
    <glyph glyph-name="Oacute" unicode="&#xd3;" horiz-adv-x="670" 
d="M626 350c0 -115 -19 -209 -74 -275c-49 -58 -120 -87 -217 -87s-168 29 -217 87c-55 66 -74 160 -74 275s19 209 74 275c49 58 120 87 217 87s168 -29 217 -87c55 -66 74 -160 74 -275zM223 350c0 -95 8 -146 30 -179c19 -27 45 -40 82 -40s63 13 82 40
c22 33 30 84 30 179s-8 146 -30 179c-19 27 -45 40 -82 40s-63 -13 -82 -40c-22 -33 -30 -84 -30 -179zM500 924l-124 -161h-144l92 161h176z" />
    <glyph glyph-name="Obreve" unicode="&#x14e;" horiz-adv-x="670" 
d="M626 350c0 -115 -19 -209 -74 -275c-49 -58 -120 -87 -217 -87s-168 29 -217 87c-55 66 -74 160 -74 275s19 209 74 275c49 58 120 87 217 87s168 -29 217 -87c55 -66 74 -160 74 -275zM223 350c0 -95 8 -146 30 -179c19 -27 45 -40 82 -40s63 13 82 40
c22 33 30 84 30 179s-8 146 -30 179c-19 27 -45 40 -82 40s-63 -13 -82 -40c-22 -33 -30 -84 -30 -179zM335 759c-99 0 -168 54 -169 154h124c0 -36 15 -55 45 -55s45 19 45 55h124c-1 -100 -70 -154 -169 -154z" />
    <glyph glyph-name="Ocircumflex" unicode="&#xd4;" horiz-adv-x="670" 
d="M626 350c0 -115 -19 -209 -74 -275c-49 -58 -120 -87 -217 -87s-168 29 -217 87c-55 66 -74 160 -74 275s19 209 74 275c49 58 120 87 217 87s168 -29 217 -87c55 -66 74 -160 74 -275zM223 350c0 -95 8 -146 30 -179c19 -27 45 -40 82 -40s63 13 82 40
c22 33 30 84 30 179s-8 146 -30 179c-19 27 -45 40 -82 40s-63 -13 -82 -40c-22 -33 -30 -84 -30 -179zM270 924h130l119 -161h-135l-49 68l-49 -68h-135z" />
    <glyph glyph-name="Odieresis" unicode="&#xd6;" horiz-adv-x="670" 
d="M626 350c0 -115 -19 -209 -74 -275c-49 -58 -120 -87 -217 -87s-168 29 -217 87c-55 66 -74 160 -74 275s19 209 74 275c49 58 120 87 217 87s168 -29 217 -87c55 -66 74 -160 74 -275zM223 350c0 -95 8 -146 30 -179c19 -27 45 -40 82 -40s63 13 82 40
c22 33 30 84 30 179s-8 146 -30 179c-19 27 -45 40 -82 40s-63 -13 -82 -40c-22 -33 -30 -84 -30 -179zM307 911v-141h-143v141h143zM506 911v-141h-143v141h143z" />
    <glyph glyph-name="Ograve" unicode="&#xd2;" horiz-adv-x="670" 
d="M626 350c0 -115 -19 -209 -74 -275c-49 -58 -120 -87 -217 -87s-168 29 -217 87c-55 66 -74 160 -74 275s19 209 74 275c49 58 120 87 217 87s168 -29 217 -87c55 -66 74 -160 74 -275zM223 350c0 -95 8 -146 30 -179c19 -27 45 -40 82 -40s63 13 82 40
c22 33 30 84 30 179s-8 146 -30 179c-19 27 -45 40 -82 40s-63 -13 -82 -40c-22 -33 -30 -84 -30 -179zM294 763l-124 161h176l92 -161h-144z" />
    <glyph glyph-name="Ohungarumlaut" unicode="&#x150;" horiz-adv-x="670" 
d="M626 350c0 -115 -19 -209 -74 -275c-49 -58 -120 -87 -217 -87s-168 29 -217 87c-55 66 -74 160 -74 275s19 209 74 275c49 58 120 87 217 87s168 -29 217 -87c55 -66 74 -160 74 -275zM223 350c0 -95 8 -146 30 -179c19 -27 45 -40 82 -40s63 13 82 40
c22 33 30 84 30 179s-8 146 -30 179c-19 27 -45 40 -82 40s-63 -13 -82 -40c-22 -33 -30 -84 -30 -179zM604 924l-132 -169h-140l102 169h170zM388 924l-102 -169h-140l72 169h170z" />
    <glyph glyph-name="Omacron" unicode="&#x14c;" horiz-adv-x="670" 
d="M626 350c0 -115 -19 -209 -74 -275c-49 -58 -120 -87 -217 -87s-168 29 -217 87c-55 66 -74 160 -74 275s19 209 74 275c49 58 120 87 217 87s168 -29 217 -87c55 -66 74 -160 74 -275zM223 350c0 -95 8 -146 30 -179c19 -27 45 -40 82 -40s63 13 82 40
c22 33 30 84 30 179s-8 146 -30 179c-19 27 -45 40 -82 40s-63 -13 -82 -40c-22 -33 -30 -84 -30 -179zM179 782v120h312v-120h-312z" />
    <glyph glyph-name="Oslashacute" unicode="&#x1fe;" horiz-adv-x="670" 
d="M626 350c0 -115 -19 -209 -74 -275c-49 -58 -120 -87 -217 -87c-56 0 -104 10 -143 29l-29 -49h-102l60 103c-1 1 -2 2 -3 4c-55 66 -74 160 -74 275s19 209 74 275c49 58 120 87 217 87c56 0 103 -10 143 -30l29 50h102l-60 -103c1 -1 2 -3 3 -4c55 -66 74 -160 74 -275
zM447 350c0 39 -1 71 -4 97l-173 -295c17 -14 38 -21 65 -21c37 0 63 13 82 40c22 33 30 82 30 179zM223 350c0 -40 1 -71 4 -97l172 295c-17 14 -38 21 -64 21c-37 0 -63 -13 -82 -40c-22 -33 -30 -82 -30 -179zM500 924l-124 -161h-144l92 161h176z" />
    <glyph glyph-name="Otilde" unicode="&#xd5;" horiz-adv-x="670" 
d="M626 350c0 -115 -19 -209 -74 -275c-49 -58 -120 -87 -217 -87s-168 29 -217 87c-55 66 -74 160 -74 275s19 209 74 275c49 58 120 87 217 87s168 -29 217 -87c55 -66 74 -160 74 -275zM223 350c0 -95 8 -146 30 -179c19 -27 45 -40 82 -40s63 13 82 40
c22 33 30 84 30 179s-8 146 -30 179c-19 27 -45 40 -82 40s-63 -13 -82 -40c-22 -33 -30 -84 -30 -179zM387 910h128c0 -106 -35 -147 -103 -147c-61 0 -87 40 -112 40c-13 0 -17 -9 -17 -27v-5h-128c0 106 35 147 103 147c61 0 87 -40 112 -40c13 0 17 9 17 27v5z" />
    <glyph glyph-name="Racute" unicode="&#x154;" horiz-adv-x="639" 
d="M408 65l-5 87c-4 65 -25 86 -86 86h-77v-238h-179v700h300c151 0 230 -84 230 -214c0 -95 -46 -155 -120 -176c73 -13 102 -57 108 -149l6 -95c2 -29 7 -50 15 -66h-179c-7 15 -12 41 -13 65zM240 381h85c56 0 87 25 87 88s-31 88 -87 88h-85v-176zM464 924l-124 -161
h-144l92 161h176z" />
    <glyph glyph-name="Rcaron" unicode="&#x158;" horiz-adv-x="639" 
d="M408 65l-5 87c-4 65 -25 86 -86 86h-77v-238h-179v700h300c151 0 230 -84 230 -214c0 -95 -46 -155 -120 -176c73 -13 102 -57 108 -149l6 -95c2 -29 7 -50 15 -66h-179c-7 15 -12 41 -13 65zM240 381h85c56 0 87 25 87 88s-31 88 -87 88h-85v-176zM362 763h-130
l-119 161h135l49 -68l49 68h135z" />
    <glyph glyph-name="Rcommaaccent" unicode="&#x156;" horiz-adv-x="639" 
d="M408 65l-5 87c-4 65 -25 86 -86 86h-77v-238h-179v700h300c151 0 230 -84 230 -214c0 -95 -46 -155 -120 -176c73 -13 102 -57 108 -149l6 -95c2 -29 7 -50 15 -66h-179c-7 15 -12 41 -13 65zM240 381h85c56 0 87 25 87 88s-31 88 -87 88h-85v-176zM346 -218h-130l40 170
h154z" />
    <glyph glyph-name="Sacute" unicode="&#x15a;" horiz-adv-x="600" 
d="M567 206c0 -126 -89 -218 -260 -218c-165 0 -261 87 -261 213v12h179v-15c0 -44 28 -72 82 -72c53 0 81 28 81 72c0 42 -24 68 -91 82l-54 11c-127 26 -202 89 -202 214c0 118 91 207 250 207s250 -92 250 -200v-11h-179v11c0 39 -26 62 -71 62c-46 0 -71 -23 -71 -62
c0 -41 26 -63 93 -77l54 -11c133 -27 200 -96 200 -218zM447 924l-124 -161h-144l92 161h176z" />
    <glyph glyph-name="Scaron" unicode="&#x160;" horiz-adv-x="600" 
d="M567 206c0 -126 -89 -218 -260 -218c-165 0 -261 87 -261 213v12h179v-15c0 -44 28 -72 82 -72c53 0 81 28 81 72c0 42 -24 68 -91 82l-54 11c-127 26 -202 89 -202 214c0 118 91 207 250 207s250 -92 250 -200v-11h-179v11c0 39 -26 62 -71 62c-46 0 -71 -23 -71 -62
c0 -41 26 -63 93 -77l54 -11c133 -27 200 -96 200 -218zM355 763h-130l-119 161h135l49 -68l49 68h135z" />
    <glyph glyph-name="Scedilla" unicode="&#x15e;" horiz-adv-x="600" 
d="M195 -202l37 70c20 -14 42 -23 64 -23c21 0 35 8 35 26s-16 28 -42 28c-10 0 -27 -2 -36 -5l-17 21l36 75c-144 11 -226 94 -226 211v12h179v-15c0 -44 28 -72 82 -72c53 0 81 28 81 72c0 42 -24 68 -91 82l-54 11c-127 26 -202 89 -202 214c0 118 91 207 250 207
s250 -92 250 -200v-11h-179v11c0 39 -26 62 -71 62c-46 0 -71 -23 -71 -62c0 -41 26 -63 93 -77l54 -11c133 -27 200 -96 200 -218c0 -107 -64 -189 -187 -211l-19 -36c59 -7 92 -44 92 -91c0 -61 -48 -106 -136 -106c-51 0 -93 15 -122 36z" />
    <glyph glyph-name="Scircumflex" unicode="&#x15c;" horiz-adv-x="600" 
d="M567 206c0 -126 -89 -218 -260 -218c-165 0 -261 87 -261 213v12h179v-15c0 -44 28 -72 82 -72c53 0 81 28 81 72c0 42 -24 68 -91 82l-54 11c-127 26 -202 89 -202 214c0 118 91 207 250 207s250 -92 250 -200v-11h-179v11c0 39 -26 62 -71 62c-46 0 -71 -23 -71 -62
c0 -41 26 -63 93 -77l54 -11c133 -27 200 -96 200 -218zM225 924h130l119 -161h-135l-49 68l-49 -68h-135z" />
    <glyph glyph-name="Tcaron" unicode="&#x164;" horiz-adv-x="561" 
d="M13 557v143h535v-143h-178v-557h-179v557h-178zM345 763h-130l-119 161h135l49 -68l49 68h135z" />
    <glyph glyph-name="Tcommaaccent" unicode="&#x162;" horiz-adv-x="561" 
d="M146 -202l37 70c20 -14 42 -23 64 -23c21 0 35 8 35 26s-16 28 -42 28c-10 0 -27 -2 -36 -5l-17 21l41 85h-37v557h-178v143h535v-143h-178v-557h-36l-22 -41c59 -7 92 -44 92 -91c0 -61 -48 -106 -136 -106c-51 0 -93 15 -122 36z" />
    <glyph glyph-name="Uacute" unicode="&#xda;" horiz-adv-x="668" 
d="M334 -12c-188 0 -277 105 -277 273v439h179v-446c0 -85 34 -123 98 -123s98 38 98 123v446h179v-439c0 -168 -89 -273 -277 -273zM498 924l-124 -161h-144l92 161h176z" />
    <glyph glyph-name="Ubreve" unicode="&#x16c;" horiz-adv-x="668" 
d="M334 -12c-188 0 -277 105 -277 273v439h179v-446c0 -85 34 -123 98 -123s98 38 98 123v446h179v-439c0 -168 -89 -273 -277 -273zM334 759c-99 0 -168 54 -169 154h124c0 -36 15 -55 45 -55s45 19 45 55h124c-1 -100 -70 -154 -169 -154z" />
    <glyph glyph-name="Ucircumflex" unicode="&#xdb;" horiz-adv-x="668" 
d="M334 -12c-188 0 -277 105 -277 273v439h179v-446c0 -85 34 -123 98 -123s98 38 98 123v446h179v-439c0 -168 -89 -273 -277 -273zM269 924h130l119 -161h-135l-49 68l-49 -68h-135z" />
    <glyph glyph-name="Udieresis" unicode="&#xdc;" horiz-adv-x="668" 
d="M334 -12c188 0 277 105 277 273v439h-179v-446c0 -85 -34 -123 -98 -123s-98 38 -98 123v446h-179v-439c0 -168 89 -273 277 -273zM306 911v-141h-143v141h143zM505 911v-141h-143v141h143z" />
    <glyph glyph-name="Ugrave" unicode="&#xd9;" horiz-adv-x="668" 
d="M334 -12c188 0 277 105 277 273v439h-179v-446c0 -85 -34 -123 -98 -123s-98 38 -98 123v446h-179v-439c0 -168 89 -273 277 -273zM294 763l-124 161h176l92 -161h-144z" />
    <glyph glyph-name="Uhungarumlaut" unicode="&#x170;" horiz-adv-x="668" 
d="M334 -12c188 0 277 105 277 273v439h-179v-446c0 -85 -34 -123 -98 -123s-98 38 -98 123v446h-179v-439c0 -168 89 -273 277 -273zM613 924l-132 -169h-140l102 169h170zM397 924l-102 -169h-140l72 169h170z" />
    <glyph glyph-name="Umacron" unicode="&#x16a;" horiz-adv-x="668" 
d="M334 -12c188 0 277 105 277 273v439h-179v-446c0 -85 -34 -123 -98 -123s-98 38 -98 123v446h-179v-439c0 -168 89 -273 277 -273zM178 782v120h312v-120h-312z" />
    <glyph glyph-name="Uogonek" unicode="&#x172;" horiz-adv-x="668" 
d="M433 0c-50 -30 -75 -66 -75 -95v-5c0 -22 13 -36 40 -36c19 0 35 5 49 16l41 -62c-24 -24 -64 -37 -111 -37c-87 0 -140 39 -140 99v7c0 40 23 77 62 103c-164 12 -242 114 -242 271v439h179v-446c0 -85 34 -123 98 -123s98 38 98 123v446h179v-439
c0 -135 -58 -229 -178 -261z" />
    <glyph glyph-name="Uring" unicode="&#x16e;" horiz-adv-x="668" 
d="M334 -12c188 0 277 105 277 273v439h-179v-446c0 -85 -34 -123 -98 -123s-98 38 -98 123v446h-179v-439c0 -168 89 -273 277 -273zM449 843c0 -67 -49 -107 -115 -107s-115 40 -115 107s49 107 115 107s115 -40 115 -107zM363 843c0 19 -11 31 -29 31s-29 -12 -29 -31
s11 -31 29 -31s29 12 29 31z" />
    <glyph glyph-name="Utilde" unicode="&#x168;" horiz-adv-x="668" 
d="M334 -12c188 0 277 105 277 273v439h-179v-446c0 -85 -34 -123 -98 -123s-98 38 -98 123v446h-179v-439c0 -168 89 -273 277 -273zM386 910h128c0 -106 -35 -147 -103 -147c-61 0 -87 40 -112 40c-13 0 -17 -9 -17 -27v-5h-128c0 106 35 147 103 147c61 0 87 -40 112 -40
c13 0 17 9 17 27v5z" />
    <glyph glyph-name="Wcircumflex" unicode="&#x174;" horiz-adv-x="974" 
d="M411 700h152l124 -475l95 475h178l-179 -700h-162l-132 503l-132 -503h-162l-179 700h178l95 -475zM422 924h130l119 -161h-135l-49 68l-49 -68h-135z" />
    <glyph glyph-name="Yacute" unicode="&#xdd;" horiz-adv-x="636" 
d="M318 422l122 278h182l-214 -424v-276h-180v276l-214 424h182zM481 924l-124 -161h-144l92 161h176z" />
    <glyph glyph-name="Ycircumflex" unicode="&#x176;" horiz-adv-x="636" 
d="M318 422l122 278h182l-214 -424v-276h-180v276l-214 424h182zM251 924h130l119 -161h-135l-49 68l-49 -68h-135z" />
    <glyph glyph-name="Ydieresis" unicode="&#x178;" horiz-adv-x="636" 
d="M318 422l122 278h182l-214 -424v-276h-180v276l-214 424h182zM290 911v-141h-143v141h143zM489 911v-141h-143v141h143z" />
    <glyph glyph-name="Zacute" unicode="&#x179;" horiz-adv-x="562" 
d="M35 133l273 424h-263v143h477v-133l-273 -424h278v-143h-492v133zM457 924l-124 -161h-144l92 161h176z" />
    <glyph glyph-name="Zcaron" unicode="&#x17d;" horiz-adv-x="562" 
d="M35 133l273 424h-263v143h477v-133l-273 -424h278v-143h-492v133zM354 763h-130l-119 161h135l49 -68l49 68h135z" />
    <glyph glyph-name="Zdotaccent" unicode="&#x17b;" horiz-adv-x="562" 
d="M35 133l273 424h-263v143h477v-133l-273 -424h278v-143h-492v133zM361 911v-141h-144v141h144z" />
    <glyph glyph-name="aacute" unicode="&#xe1;" horiz-adv-x="556" 
d="M501 342v-266c0 -28 5 -59 15 -76h-170c-6 13 -10 35 -11 59c-19 -42 -67 -71 -134 -71c-98 0 -166 59 -166 158c0 98 67 158 166 158c63 0 114 -26 134 -71v104c0 35 -18 58 -55 58c-36 0 -54 -21 -55 -53h-166c0 97 73 170 221 170c142 0 221 -73 221 -170zM201 146
c0 -35 23 -54 67 -54s67 19 67 54s-23 54 -67 54s-67 -19 -67 -54zM439 725l-124 -161h-144l92 161h176z" />
    <glyph glyph-name="abreve" unicode="&#x103;" horiz-adv-x="556" 
d="M501 342v-266c0 -28 5 -59 15 -76h-170c-6 13 -10 35 -11 59c-19 -42 -67 -71 -134 -71c-98 0 -166 59 -166 158c0 98 67 158 166 158c63 0 114 -26 134 -71v104c0 35 -18 58 -55 58c-36 0 -54 -21 -55 -53h-166c0 97 73 170 221 170c142 0 221 -73 221 -170zM201 146
c0 -35 23 -54 67 -54s67 19 67 54s-23 54 -67 54s-67 -19 -67 -54zM282 562c-99 0 -168 54 -169 154h124c0 -36 15 -55 45 -55s45 19 45 55h124c-1 -100 -70 -154 -169 -154z" />
    <glyph glyph-name="acircumflex" unicode="&#xe2;" horiz-adv-x="556" 
d="M501 342v-266c0 -28 5 -59 15 -76h-170c-6 13 -10 35 -11 59c-19 -42 -67 -71 -134 -71c-98 0 -166 59 -166 158c0 98 67 158 166 158c63 0 114 -26 134 -71v104c0 35 -18 58 -55 58c-36 0 -54 -21 -55 -53h-166c0 97 73 170 221 170c142 0 221 -73 221 -170zM201 146
c0 -35 23 -54 67 -54s67 19 67 54s-23 54 -67 54s-67 -19 -67 -54zM217 725h130l119 -161h-135l-49 68l-49 -68h-135z" />
    <glyph glyph-name="acutecomb" unicode="&#x301;" horiz-adv-x="0" 
d="M-98 730l-124 -161h-144l92 161h176z" />
    <glyph glyph-name="adieresis" unicode="&#xe4;" horiz-adv-x="556" 
d="M501 342v-266c0 -28 5 -59 15 -76h-170c-6 13 -10 35 -11 59c-19 -42 -67 -71 -134 -71c-98 0 -166 59 -166 158c0 98 67 158 166 158c63 0 114 -26 134 -71v104c0 35 -18 58 -55 58c-36 0 -54 -21 -55 -53h-166c0 97 73 170 221 170c142 0 221 -73 221 -170zM201 146
c0 -35 23 -54 67 -54s67 19 67 54s-23 54 -67 54s-67 -19 -67 -54zM254 712v-141h-143v141h143zM453 712v-141h-143v141h143z" />
    <glyph glyph-name="aeacute" unicode="&#x1fd;" horiz-adv-x="857" 
d="M502 302h152c-1 63 -26 97 -76 97s-75 -34 -76 -97zM201 146c0 -35 23 -54 67 -54s67 19 67 54s-23 54 -67 54s-67 -19 -67 -54zM581 -12c-75 0 -131 33 -154 83c-35 -55 -91 -83 -188 -83c-135 0 -204 59 -204 158c0 98 67 158 166 158c63 0 114 -26 134 -71v104
c0 35 -21 58 -55 58c-36 0 -54 -21 -55 -53h-166c0 97 75 170 203 170c86 0 141 -31 168 -83c26 51 82 83 156 83c162 0 235 -106 235 -262c0 -14 -1 -29 -2 -39h-317v-9c0 -67 29 -101 76 -101c40 0 64 20 69 53h163c-18 -112 -108 -166 -229 -166zM587 725l-124 -161h-144
l92 161h176z" />
    <glyph glyph-name="agrave" unicode="&#xe0;" horiz-adv-x="556" 
d="M501 342v-266c0 -28 5 -59 15 -76h-170c-6 13 -10 35 -11 59c-19 -42 -67 -71 -134 -71c-98 0 -166 59 -166 158c0 98 67 158 166 158c63 0 114 -26 134 -71v104c0 35 -18 58 -55 58c-36 0 -54 -21 -55 -53h-166c0 97 73 170 221 170c142 0 221 -73 221 -170zM201 146
c0 -35 23 -54 67 -54s67 19 67 54s-23 54 -67 54s-67 -19 -67 -54zM248 564l-124 161h176l92 -161h-144z" />
    <glyph glyph-name="amacron" unicode="&#x101;" horiz-adv-x="556" 
d="M501 342v-266c0 -28 5 -59 15 -76h-170c-6 13 -10 35 -11 59c-19 -42 -67 -71 -134 -71c-98 0 -166 59 -166 158c0 98 67 158 166 158c63 0 114 -26 134 -71v104c0 35 -18 58 -55 58c-36 0 -54 -21 -55 -53h-166c0 97 73 170 221 170c142 0 221 -73 221 -170zM201 146
c0 -35 23 -54 67 -54s67 19 67 54s-23 54 -67 54s-67 -19 -67 -54zM126 583v120h312v-120h-312z" />
    <glyph glyph-name="aogonek" unicode="&#x105;" horiz-adv-x="556" 
d="M501 342v-266c0 -28 5 -59 15 -76h-54c-50 -30 -75 -66 -75 -95v-5c0 -22 13 -36 40 -36c19 0 35 5 49 16l41 -62c-24 -24 -64 -37 -111 -37c-87 0 -140 39 -140 99v7c0 45 30 87 80 113c-6 13 -10 35 -11 59c-19 -42 -67 -71 -134 -71c-98 0 -166 59 -166 158
c0 98 67 158 166 158c63 0 114 -26 134 -71v104c0 35 -18 58 -55 58c-36 0 -54 -21 -55 -53h-166c0 97 73 170 221 170c142 0 221 -73 221 -170zM201 146c0 -35 23 -54 67 -54s67 19 67 54s-23 54 -67 54s-67 -19 -67 -54z" />
    <glyph glyph-name="approxequal" unicode="&#x2248;" horiz-adv-x="558" 
d="M387 119c-84 0 -113 49 -155 49c-21 0 -31 -15 -31 -40v-3h-147c0 114 29 183 117 183c84 0 113 -49 155 -49c21 0 31 15 31 40v3h147c0 -114 -29 -183 -117 -183zM387 344c-84 0 -113 49 -155 49c-21 0 -31 -15 -31 -40v-3h-147c0 114 29 183 117 183
c84 0 113 -49 155 -49c21 0 31 15 31 40v3h147c0 -114 -29 -183 -117 -183z" />
    <glyph glyph-name="aring" unicode="&#xe5;" horiz-adv-x="556" 
d="M501 342v-266c0 -28 5 -59 15 -76h-170c-6 13 -10 35 -11 59c-19 -42 -67 -71 -134 -71c-98 0 -166 59 -166 158c0 98 67 158 166 158c63 0 114 -26 134 -71v104c0 35 -18 58 -55 58c-36 0 -54 -21 -55 -53h-166c0 97 73 170 221 170c142 0 221 -73 221 -170zM201 146
c0 -35 23 -54 67 -54s67 19 67 54s-23 54 -67 54s-67 -19 -67 -54zM397 644c0 -67 -49 -107 -115 -107s-115 40 -115 107s49 107 115 107s115 -40 115 -107zM311 644c0 19 -11 31 -29 31s-29 -12 -29 -31s11 -31 29 -31s29 12 29 31z" />
    <glyph glyph-name="aringacute" unicode="&#x1fb;" horiz-adv-x="556" 
d="M268 883h155l-84 -113h-123zM397 644c0 -67 -49 -107 -115 -107s-115 40 -115 107s49 107 115 107s115 -40 115 -107zM311 644c0 19 -11 31 -29 31s-29 -12 -29 -31s11 -31 29 -31s29 12 29 31zM501 342v-266c0 -28 5 -59 15 -76h-170c-6 13 -10 35 -11 59
c-19 -42 -67 -71 -134 -71c-98 0 -166 59 -166 158c0 98 67 158 166 158c63 0 114 -26 134 -71v104c0 35 -18 58 -55 58c-36 0 -54 -21 -55 -53h-166c0 97 73 170 221 170c142 0 221 -73 221 -170zM201 146c0 -35 23 -54 67 -54s67 19 67 54s-23 54 -67 54s-67 -19 -67 -54z
" />
    <glyph glyph-name="arrowupdnbse" unicode="&#x21a8;" horiz-adv-x="860" 
d="M222 223h116v266h-116l208 261l208 -261h-116v-266h116l-197 -247h180v-94h-382v94h180z" />
    <glyph glyph-name="atilde" unicode="&#xe3;" horiz-adv-x="556" 
d="M501 342v-266c0 -28 5 -59 15 -76h-170c-6 13 -10 35 -11 59c-19 -42 -67 -71 -134 -71c-98 0 -166 59 -166 158c0 98 67 158 166 158c63 0 114 -26 134 -71v104c0 35 -18 58 -55 58c-36 0 -54 -21 -55 -53h-166c0 97 73 170 221 170c142 0 221 -73 221 -170zM201 146
c0 -35 23 -54 67 -54s67 19 67 54s-23 54 -67 54s-67 -19 -67 -54zM335 711h128c0 -106 -35 -147 -103 -147c-61 0 -87 40 -112 40c-13 0 -17 -9 -17 -27v-5h-128c0 106 35 147 103 147c61 0 87 -40 112 -40c13 0 17 9 17 27v5z" />
    <glyph glyph-name="brokenbar" unicode="&#xa6;" horiz-adv-x="342" 
d="M88 -93v388h166v-388h-166zM88 395v388h166v-388h-166z" />
    <glyph glyph-name="bullet" unicode="&#x2022;" horiz-adv-x="362" 
d="M312 326c0 -72 -59 -131 -131 -131s-131 59 -131 131s59 131 131 131s131 -59 131 -131z" />
    <glyph glyph-name="cacute" unicode="&#x107;" horiz-adv-x="548" 
d="M36 250c0 158 75 262 243 262c149 0 233 -80 238 -196h-165c-5 51 -27 73 -73 73c-53 0 -77 -34 -77 -139s24 -139 77 -139c46 0 68 22 73 73h165c-5 -116 -89 -196 -238 -196c-168 0 -243 104 -243 262zM435 725l-124 -161h-144l92 161h176z" />
    <glyph glyph-name="ccaron" unicode="&#x10d;" horiz-adv-x="548" 
d="M36 250c0 158 75 262 243 262c149 0 233 -80 238 -196h-165c-5 51 -27 73 -73 73c-53 0 -77 -34 -77 -139s24 -139 77 -139c46 0 68 22 73 73h165c-5 -116 -89 -196 -238 -196c-168 0 -243 104 -243 262zM339 564h-130l-119 161h135l49 -68l49 68h135z" />
    <glyph glyph-name="ccedilla" unicode="&#xe7;" horiz-adv-x="548" 
d="M36 250c0 158 75 262 243 262c149 0 233 -80 238 -196h-165c-5 51 -27 73 -73 73c-53 0 -77 -34 -77 -139s24 -139 77 -139c46 0 68 22 73 73h165c-5 -100 -67 -172 -178 -191l-18 -34c59 -7 92 -44 92 -91c0 -61 -48 -106 -136 -106c-51 0 -93 15 -122 36l37 70
c20 -14 42 -23 64 -23c21 0 35 8 35 26s-16 28 -42 28c-10 0 -27 -2 -36 -5l-17 21l36 76c-135 18 -196 116 -196 259z" />
    <glyph glyph-name="ccircumflex" unicode="&#x109;" horiz-adv-x="548" 
d="M36 250c0 158 75 262 243 262c149 0 233 -80 238 -196h-165c-5 51 -27 73 -73 73c-53 0 -77 -34 -77 -139s24 -139 77 -139c46 0 68 22 73 73h165c-5 -116 -89 -196 -238 -196c-168 0 -243 104 -243 262zM209 725h130l119 -161h-135l-49 68l-49 -68h-135z" />
    <glyph glyph-name="cdotaccent" unicode="&#x10b;" horiz-adv-x="548" 
d="M36 250c0 158 75 262 243 262c149 0 233 -80 238 -196h-165c-5 51 -27 73 -73 73c-53 0 -77 -34 -77 -139s24 -139 77 -139c46 0 68 22 73 73h165c-5 -116 -89 -196 -238 -196c-168 0 -243 104 -243 262zM346 712v-141h-144v141h144z" />
    <glyph glyph-name="cent" unicode="&#xa2;" horiz-adv-x="548" 
d="M36 250c0 131 52 225 166 253v86h147v-84c105 -21 164 -93 168 -189h-165c-5 51 -27 73 -73 73c-53 0 -77 -34 -77 -139s24 -139 77 -139c46 0 68 22 73 73h165c-4 -97 -63 -168 -168 -189v-84h-147v86c-114 28 -166 121 -166 253z" />
    <glyph glyph-name="circumflex" unicode="&#x2c6;" horiz-adv-x="418" 
d="M144 730h130l119 -161h-135l-49 68l-49 -68h-135z" />
    <glyph glyph-name="colonmonetary" unicode="&#x20a1;" horiz-adv-x="660" 
d="M353 -92v81c-6 0 -12 -1 -18 -1c-8 0 -15 0 -22 1v-81h-94v97c-41 15 -74 38 -101 70c-55 66 -74 160 -74 275s19 209 74 275c27 32 60 55 101 69v98h94v-81c7 1 14 1 22 1c6 0 12 -1 18 -1v81h94v-96c111 -36 173 -127 173 -242h-178c-2 73 -39 115 -107 115
c-37 0 -63 -13 -82 -40c-22 -33 -30 -82 -30 -179s8 -146 30 -179c19 -27 45 -40 82 -40c68 0 107 43 107 115h178c0 -116 -62 -207 -173 -242v-96h-94z" />
    <glyph glyph-name="copyright" unicode="&#xa9;" horiz-adv-x="754" 
d="M709 350c0 -244 -126 -362 -332 -362s-332 118 -332 362s126 362 332 362s332 -118 332 -362zM101 350c0 -205 93 -310 276 -310s276 105 276 310s-93 310 -276 310s-276 -105 -276 -310zM190 350c0 -87 17 -137 55 -174c29 -28 76 -43 134 -43c59 0 105 15 135 43
c28 27 45 62 51 115h-136c-1 -17 -4 -28 -10 -39c-9 -16 -22 -21 -40 -21c-17 0 -30 5 -39 21c-10 18 -13 41 -13 98s3 80 13 98c9 16 22 21 39 21c18 0 31 -5 40 -21c6 -11 9 -22 10 -39h136c-6 53 -23 88 -51 115c-30 28 -76 43 -135 43c-58 0 -105 -15 -134 -43
c-38 -37 -55 -87 -55 -174z" />
    <glyph glyph-name="dcaron" unicode="&#x10f;" horiz-adv-x="698" 
d="M356 0v76c-17 -51 -67 -88 -136 -88c-118 0 -184 89 -184 262s66 262 184 262c69 0 119 -37 136 -88v276h166v-700h-166zM356 250c0 105 -24 139 -77 139s-77 -34 -77 -139s24 -139 77 -139s77 34 77 139zM698 700v-140c0 -69 -51 -118 -144 -121v62c48 2 71 20 71 59
h-71v140h144z" />
    <glyph glyph-name="dong" unicode="&#x20ab;" horiz-adv-x="575" 
d="M244 644h112v56h166v-56h55v-88h-55v-556h-166v76c-17 -51 -67 -88 -136 -88c-118 0 -184 89 -184 262s66 262 184 262c69 0 119 -37 136 -88v132h-112v88zM356 250c0 105 -24 139 -77 139s-77 -34 -77 -139s24 -139 77 -139s77 34 77 139zM146 -64h350v-105h-350v105z
" />
    <glyph glyph-name="eacute" unicode="&#xe9;" horiz-adv-x="558" 
d="M520 211h-317v-9c0 -67 29 -101 76 -101c40 0 64 20 69 53h163c-18 -112 -107 -166 -232 -166c-169 0 -243 105 -243 262c0 156 73 262 243 262s243 -106 243 -262c0 -14 -1 -29 -2 -39zM203 302h152c-1 63 -26 97 -76 97s-75 -34 -76 -97zM439 725l-124 -161h-144
l92 161h176z" />
    <glyph glyph-name="ebreve" unicode="&#x115;" horiz-adv-x="558" 
d="M520 211h-317v-9c0 -67 29 -101 76 -101c40 0 64 20 69 53h163c-18 -112 -107 -166 -232 -166c-169 0 -243 105 -243 262c0 156 73 262 243 262s243 -106 243 -262c0 -14 -1 -29 -2 -39zM203 302h152c-1 63 -26 97 -76 97s-75 -34 -76 -97zM279 562
c-99 0 -168 54 -169 154h124c0 -36 15 -55 45 -55s45 19 45 55h124c-1 -100 -70 -154 -169 -154z" />
    <glyph glyph-name="ecaron" unicode="&#x11b;" horiz-adv-x="558" 
d="M520 211h-317v-9c0 -67 29 -101 76 -101c40 0 64 20 69 53h163c-18 -112 -107 -166 -232 -166c-169 0 -243 105 -243 262c0 156 73 262 243 262s243 -106 243 -262c0 -14 -1 -29 -2 -39zM203 302h152c-1 63 -26 97 -76 97s-75 -34 -76 -97zM344 564h-130l-119 161h135
l49 -68l49 68h135z" />
    <glyph glyph-name="ecircumflex" unicode="&#xea;" horiz-adv-x="558" 
d="M520 211h-317v-9c0 -67 29 -101 76 -101c40 0 64 20 69 53h163c-18 -112 -107 -166 -232 -166c-169 0 -243 105 -243 262c0 156 73 262 243 262s243 -106 243 -262c0 -14 -1 -29 -2 -39zM203 302h152c-1 63 -26 97 -76 97s-75 -34 -76 -97zM214 725h130l119 -161h-135
l-49 68l-49 -68h-135z" />
    <glyph glyph-name="edieresis" unicode="&#xeb;" horiz-adv-x="558" 
d="M520 211h-317v-9c0 -67 29 -101 76 -101c40 0 64 20 69 53h163c-18 -112 -107 -166 -232 -166c-169 0 -243 105 -243 262c0 156 73 262 243 262s243 -106 243 -262c0 -14 -1 -29 -2 -39zM203 302h152c-1 63 -26 97 -76 97s-75 -34 -76 -97zM251 712v-141h-143v141h143z
M450 712v-141h-143v141h143z" />
    <glyph glyph-name="edotaccent" unicode="&#x117;" horiz-adv-x="558" 
d="M520 211h-317v-9c0 -67 29 -101 76 -101c40 0 64 20 69 53h163c-18 -112 -107 -166 -232 -166c-169 0 -243 105 -243 262c0 156 73 262 243 262s243 -106 243 -262c0 -14 -1 -29 -2 -39zM203 302h152c-1 63 -26 97 -76 97s-75 -34 -76 -97zM351 712v-141h-144v141h144z
" />
    <glyph glyph-name="egrave" unicode="&#xe8;" horiz-adv-x="558" 
d="M520 211h-317v-9c0 -67 29 -101 76 -101c40 0 64 20 69 53h163c-18 -112 -107 -166 -232 -166c-169 0 -243 105 -243 262c0 156 73 262 243 262s243 -106 243 -262c0 -14 -1 -29 -2 -39zM203 302h152c-1 63 -26 97 -76 97s-75 -34 -76 -97zM243 564l-124 161h176l92 -161
h-144z" />
    <glyph glyph-name="emacron" unicode="&#x113;" horiz-adv-x="558" 
d="M520 211h-317v-9c0 -67 29 -101 76 -101c40 0 64 20 69 53h163c-18 -112 -107 -166 -232 -166c-169 0 -243 105 -243 262c0 156 73 262 243 262s243 -106 243 -262c0 -14 -1 -29 -2 -39zM203 302h152c-1 63 -26 97 -76 97s-75 -34 -76 -97zM123 583v120h312v-120h-312z
" />
    <glyph glyph-name="emdash" unicode="&#x2014;" horiz-adv-x="1000" 
d="M1000 258h-1000v135h1000v-135z" />
    <glyph glyph-name="endash" unicode="&#x2013;" horiz-adv-x="500" 
d="M500 258h-500v135h500v-135z" />
    <glyph glyph-name="eogonek" unicode="&#x119;" horiz-adv-x="558" 
d="M520 211h-317v-9c0 -67 29 -101 76 -101c40 0 64 20 69 53h163c-14 -84 -66 -135 -144 -155c-49 -31 -71 -67 -71 -94v-5c0 -22 13 -36 40 -36c19 0 35 5 49 16l41 -62c-24 -24 -64 -37 -111 -37c-87 0 -140 39 -140 99v7c0 40 23 77 63 103c-140 16 -202 116 -202 260
c0 156 73 262 243 262s243 -106 243 -262c0 -14 -1 -29 -2 -39zM203 302h152c-1 63 -26 97 -76 97s-75 -34 -76 -97z" />
    <glyph glyph-name="estimated" unicode="&#x212e;" horiz-adv-x="756" 
d="M706 352c0 -11 0 -28 -2 -39h-505v-168c30 -54 103 -85 179 -85c84 0 158 38 187 93h95c-53 -101 -152 -165 -282 -165c-196 0 -328 147 -328 362s132 362 328 362c203 0 328 -157 328 -360zM557 386v169c-30 53 -103 84 -179 84s-149 -31 -179 -84v-169h358z" />
    <glyph glyph-name="exclamdbl" unicode="&#x203c;" horiz-adv-x="601" 
d="M87 0v148h166v-148h-166zM99 219l-12 381v100h166v-100l-12 -381h-142zM348 0v148h166v-148h-166zM360 219l-12 381v100h166v-100l-12 -381h-142z" />
    <glyph glyph-name="florin" unicode="&#x192;" horiz-adv-x="405" 
d="M97 -26v403h-75v123h75v48c0 109 55 159 192 159c35 0 73 -1 98 -5v-118h-65c-45 0 -59 -15 -59 -51v-33h124v-123h-124v-414c0 -117 -58 -181 -193 -181c-20 0 -58 1 -77 3v119h41c44 0 63 21 63 70z" />
    <glyph glyph-name="fraction" unicode="&#x2044;" horiz-adv-x="177" 
d="M326 700l-342 -700h-133l342 700h133z" />
    <glyph glyph-name="franc" unicode="&#x20a3;" horiz-adv-x="534" 
d="M1 438h60v262h446v-143h-267v-119h149v-74h-149v-39h149v-74h-149v-251h-179v251h-60v74h60v39h-60v74z" />
    <glyph glyph-name="gbreve" unicode="&#x11f;" horiz-adv-x="575" 
d="M356 250c0 105 -24 139 -77 139s-77 -34 -77 -139s24 -139 77 -139s77 34 77 139zM522 500v-531c0 -117 -73 -202 -230 -202c-140 0 -215 66 -229 167h168c3 -35 26 -54 61 -54c42 0 64 23 64 77v119c-17 -51 -67 -88 -136 -88c-118 0 -184 89 -184 262s66 262 184 262
c69 0 119 -37 136 -88v76h166zM304 562c-99 0 -168 54 -169 154h124c0 -36 15 -55 45 -55s45 19 45 55h124c-1 -100 -70 -154 -169 -154z" />
    <glyph glyph-name="gcircumflex" unicode="&#x11d;" horiz-adv-x="575" 
d="M356 250c0 105 -24 139 -77 139s-77 -34 -77 -139s24 -139 77 -139s77 34 77 139zM522 500v-531c0 -117 -73 -202 -230 -202c-140 0 -215 66 -229 167h168c3 -35 26 -54 61 -54c42 0 64 23 64 77v119c-17 -51 -67 -88 -136 -88c-118 0 -184 89 -184 262s66 262 184 262
c69 0 119 -37 136 -88v76h166zM239 725h130l119 -161h-135l-49 68l-49 -68h-135z" />
    <glyph glyph-name="gcommaaccent" unicode="&#x123;" horiz-adv-x="575" 
d="M356 250c0 -105 -24 -139 -77 -139s-77 34 -77 139s24 139 77 139s77 -34 77 -139zM522 -31v531h-166v-76c-17 51 -67 88 -136 88c-118 0 -184 -89 -184 -262s66 -262 184 -262c69 0 119 37 136 88v-119c0 -54 -22 -77 -64 -77c-35 0 -58 19 -61 54h-168
c14 -101 89 -167 229 -167c157 0 230 85 230 202zM283 724h130l-40 -170h-154z" />
    <glyph glyph-name="gdotaccent" unicode="&#x121;" horiz-adv-x="575" 
d="M356 250c0 -105 -24 -139 -77 -139s-77 34 -77 139s24 139 77 139s77 -34 77 -139zM522 -31v531h-166v-76c-17 51 -67 88 -136 88c-118 0 -184 -89 -184 -262s66 -262 184 -262c69 0 119 37 136 88v-119c0 -54 -22 -77 -64 -77c-35 0 -58 19 -61 54h-168
c14 -101 89 -167 229 -167c157 0 230 85 230 202zM376 712v-141h-144v141h144z" />
    <glyph glyph-name="gravecomb" unicode="&#x300;" horiz-adv-x="0" 
d="M-242 569l-124 161h176l92 -161h-144z" />
    <glyph glyph-name="guillemotleft" unicode="&#xab;" horiz-adv-x="618" 
d="M296 376l-126 -64l126 -64v-143l-261 150v114l261 150v-143zM583 376l-126 -64l126 -64v-143l-261 150v114l261 150v-143z" />
    <glyph glyph-name="guillemotright" unicode="&#xbb;" horiz-adv-x="618" 
d="M448 312l-126 64v143l261 -150v-114l-261 -150v143zM161 312l-126 64v143l261 -150v-114l-261 -150v143z" />
    <glyph glyph-name="guilsinglleft" unicode="&#x2039;" horiz-adv-x="331" 
d="M296 376l-126 -64l126 -64v-143l-261 150v114l261 150v-143z" />
    <glyph glyph-name="guilsinglright" unicode="&#x203a;" horiz-adv-x="331" 
d="M161 312l-126 64v143l261 -150v-114l-261 -150v143z" />
    <glyph glyph-name="hcircumflex" unicode="&#x125;" horiz-adv-x="566" 
d="M515 320v-320h-166v316c0 51 -19 73 -56 73c-46 0 -74 -38 -74 -104v-285h-166v700h166v-278c18 54 67 90 137 90c101 0 159 -63 159 -192zM71 924h130l119 -161h-135l-49 68l-49 -68h-135z" />
    <glyph glyph-name="house" unicode="&#x2302;" horiz-adv-x="640" 
d="M221 134h198v161l-99 108l-99 -108v-161zM587 0h-534v348l267 288l267 -288v-348z" />
    <glyph glyph-name="iacute" unicode="&#xed;" horiz-adv-x="280" 
d="M57 0v500h166v-500h-166zM306 725l-124 -161h-144l92 161h176z" />
    <glyph glyph-name="ibreve" unicode="&#x12d;" horiz-adv-x="280" 
d="M57 0v500h166v-500h-166zM140 562c-99 0 -168 54 -169 154h124c0 -36 15 -55 45 -55s45 19 45 55h124c-1 -100 -70 -154 -169 -154z" />
    <glyph glyph-name="icircumflex" unicode="&#xee;" horiz-adv-x="280" 
d="M57 0v500h166v-500h-166zM75 725h130l119 -161h-135l-49 68l-49 -68h-135z" />
    <glyph glyph-name="idieresis" unicode="&#xef;" horiz-adv-x="280" 
d="M57 0v500h166v-500h-166zM112 712v-141h-143v141h143zM311 712v-141h-143v141h143z" />
    <glyph glyph-name="igrave" unicode="&#xec;" horiz-adv-x="280" 
d="M57 0v500h166v-500h-166zM98 564l-124 161h176l92 -161h-144z" />
    <glyph glyph-name="imacron" unicode="&#x12b;" horiz-adv-x="280" 
d="M57 0v500h166v-500h-166zM-16 583v120h312v-120h-312z" />
    <glyph glyph-name="Delta" unicode="&#x2206;" horiz-adv-x="642" 
d="M230 700h182l222 -700h-626zM321 509l-98 -373h195z" />
    <glyph glyph-name="iogonek" unicode="&#x12f;" horiz-adv-x="280" 
d="M57 0v500h166v-500c-50 -30 -75 -66 -75 -95v-5c0 -22 13 -36 40 -36c19 0 35 5 49 16l41 -62c-24 -24 -64 -37 -111 -37c-87 0 -140 39 -140 99v7c0 45 30 87 80 113h-50zM57 567v133h166v-133h-166z" />
    <glyph glyph-name="itilde" unicode="&#x129;" horiz-adv-x="280" 
d="M57 0v500h166v-500h-166zM192 711h128c0 -106 -35 -147 -103 -147c-61 0 -87 40 -112 40c-13 0 -17 -9 -17 -27v-5h-128c0 106 35 147 103 147c61 0 87 -40 112 -40c13 0 17 9 17 27v5z" />
    <glyph glyph-name="jcircumflex" unicode="&#x135;" horiz-adv-x="280" 
d="M57 -26v526h166v-537c0 -117 -58 -181 -193 -181c-20 0 -58 1 -77 3v119h41c44 0 63 21 63 70zM75 725h130l119 -161h-135l-49 68l-49 -68h-135z" />
    <glyph glyph-name="kcommaaccent" unicode="&#x137;" horiz-adv-x="534" 
d="M53 0v700h166v-383h32l85 183h172l-123 -240l143 -260h-174l-104 204h-31v-204h-166zM301 -218h-130l40 170h154z" />
    <glyph glyph-name="lacute" unicode="&#x13a;" horiz-adv-x="280" 
d="M223 0h-166v700h166v-700zM309 924l-124 -161h-144l92 161h176z" />
    <glyph glyph-name="lcaron" unicode="&#x13e;" horiz-adv-x="399" 
d="M223 0h-166v700h166v-700zM399 700v-140c0 -69 -51 -118 -144 -121v62c48 2 71 20 71 59h-71v140h144z" />
    <glyph glyph-name="lcommaaccent" unicode="&#x13c;" horiz-adv-x="280" 
d="M223 0h-166v700h166v-700zM168 -218h-130l40 170h154z" />
    <glyph glyph-name="lira" unicode="&#x20a4;" horiz-adv-x="554" 
d="M44 407h44c-14 30 -21 66 -21 110c0 109 81 195 222 195s222 -86 222 -195v-26h-176v25c0 31 -13 53 -46 53c-31 0 -47 -20 -47 -53c0 -52 7 -83 19 -109h151v-74h-130c1 -8 2 -17 2 -26v-8h128v-74h-144c-12 -31 -30 -59 -53 -82h304v-143h-472v133c22 26 41 57 50 92
h-53v74h65c1 6 1 9 1 13c0 7 -1 16 -2 21h-64v74z" />
    <glyph glyph-name="logicalnot" unicode="&#xac;" horiz-adv-x="558" 
d="M44 263v125h470v-275h-152v150h-318z" />
    <glyph glyph-name="longs" unicode="&#x17f;" horiz-adv-x="405" 
d="M387 584h-65c-45 0 -59 -15 -59 -51v-533h-166v377h-75v123h75v48c0 109 55 159 192 159c35 0 73 -1 98 -5v-118z" />
    <glyph glyph-name="lozenge" unicode="&#x25ca;" horiz-adv-x="578" 
d="M289 761l244 -459l-244 -459l-244 459zM289 154l80 148l-80 148l-80 -148z" />
    <glyph glyph-name="minus" unicode="&#x2212;" horiz-adv-x="558" 
d="M44 263v125h470v-125h-470z" />
    <glyph glyph-name="mu" unicode="&#xb5;" horiz-adv-x="568" 
d="M349 0v77c-13 -54 -43 -89 -86 -89c-19 0 -36 8 -44 23v-229h-166v718h166v-319c0 -52 19 -74 56 -74c46 0 74 39 74 104v289h166v-500h-166z" />
    <glyph glyph-name="nacute" unicode="&#x144;" horiz-adv-x="566" 
d="M515 320v-320h-166v316c0 51 -19 73 -56 73c-46 0 -74 -38 -74 -104v-285h-166v500h166v-78c18 54 67 90 137 90c101 0 159 -63 159 -192zM444 725l-124 -161h-144l92 161h176z" />
    <glyph glyph-name="uni00A0" unicode="&#xa0;" horiz-adv-x="260" 
 />
    <glyph glyph-name="ncaron" unicode="&#x148;" horiz-adv-x="566" 
d="M515 320v-320h-166v316c0 51 -19 73 -56 73c-46 0 -74 -38 -74 -104v-285h-166v500h166v-78c18 54 67 90 137 90c101 0 159 -63 159 -192zM348 564h-130l-119 161h135l49 -68l49 68h135z" />
    <glyph glyph-name="ncommaaccent" unicode="&#x146;" horiz-adv-x="566" 
d="M515 320v-320h-166v316c0 51 -19 73 -56 73c-46 0 -74 -38 -74 -104v-285h-166v500h166v-78c18 54 67 90 137 90c101 0 159 -63 159 -192zM311 -218h-130l40 170h154z" />
    <glyph glyph-name="ntilde" unicode="&#xf1;" horiz-adv-x="566" 
d="M515 320v-320h-166v316c0 51 -19 73 -56 73c-46 0 -74 -38 -74 -104v-285h-166v500h166v-78c18 54 67 90 137 90c101 0 159 -63 159 -192zM335 711h128c0 -106 -35 -147 -103 -147c-61 0 -87 40 -112 40c-13 0 -17 -9 -17 -27v-5h-128c0 106 35 147 103 147
c61 0 87 -40 112 -40c13 0 17 9 17 27v5z" />
    <glyph glyph-name="oacute" unicode="&#xf3;" horiz-adv-x="558" 
d="M202 250c0 -105 24 -139 77 -139s77 34 77 139s-24 139 -77 139s-77 -34 -77 -139zM36 250c0 158 75 262 243 262s243 -104 243 -262s-75 -262 -243 -262s-243 104 -243 262zM439 725l-124 -161h-144l92 161h176z" />
    <glyph glyph-name="obreve" unicode="&#x14f;" horiz-adv-x="558" 
d="M202 250c0 -105 24 -139 77 -139s77 34 77 139s-24 139 -77 139s-77 -34 -77 -139zM36 250c0 158 75 262 243 262s243 -104 243 -262s-75 -262 -243 -262s-243 104 -243 262zM279 562c-99 0 -168 54 -169 154h124c0 -36 15 -55 45 -55s45 19 45 55h124
c-1 -100 -70 -154 -169 -154z" />
    <glyph glyph-name="ocircumflex" unicode="&#xf4;" horiz-adv-x="558" 
d="M202 250c0 -105 24 -139 77 -139s77 34 77 139s-24 139 -77 139s-77 -34 -77 -139zM36 250c0 158 75 262 243 262s243 -104 243 -262s-75 -262 -243 -262s-243 104 -243 262zM214 725h130l119 -161h-135l-49 68l-49 -68h-135z" />
    <glyph glyph-name="odieresis" unicode="&#xf6;" horiz-adv-x="558" 
d="M202 250c0 -105 24 -139 77 -139s77 34 77 139s-24 139 -77 139s-77 -34 -77 -139zM36 250c0 158 75 262 243 262s243 -104 243 -262s-75 -262 -243 -262s-243 104 -243 262zM250 712v-141h-143v141h143zM449 712v-141h-143v141h143z" />
    <glyph glyph-name="ograve" unicode="&#xf2;" horiz-adv-x="558" 
d="M202 250c0 -105 24 -139 77 -139s77 34 77 139s-24 139 -77 139s-77 -34 -77 -139zM36 250c0 158 75 262 243 262s243 -104 243 -262s-75 -262 -243 -262s-243 104 -243 262zM243 564l-124 161h176l92 -161h-144z" />
    <glyph glyph-name="ohungarumlaut" unicode="&#x151;" horiz-adv-x="558" 
d="M202 250c0 -105 24 -139 77 -139s77 34 77 139s-24 139 -77 139s-77 -34 -77 -139zM36 250c0 158 75 262 243 262s243 -104 243 -262s-75 -262 -243 -262s-243 104 -243 262zM554 725l-132 -169h-140l102 169h170zM338 725l-102 -169h-140l72 169h170z" />
    <glyph glyph-name="omacron" unicode="&#x14d;" horiz-adv-x="558" 
d="M202 250c0 -105 24 -139 77 -139s77 34 77 139s-24 139 -77 139s-77 -34 -77 -139zM36 250c0 158 75 262 243 262s243 -104 243 -262s-75 -262 -243 -262s-243 104 -243 262zM123 583v120h312v-120h-312z" />
    <glyph glyph-name="onedotenleader" unicode="&#x2024;" horiz-adv-x="294" 
d="M231 166v-166h-168v166h168z" />
    <glyph glyph-name="orthogonal" unicode="&#x221f;" horiz-adv-x="604" 
d="M586 143v-143h-515v575h179v-432h336z" />
    <glyph glyph-name="oslashacute" unicode="&#x1ff;" horiz-adv-x="558" 
d="M408 538h86l-48 -81c51 -45 76 -118 76 -207c0 -158 -75 -262 -243 -262c-40 0 -74 6 -104 16l-25 -42h-86l48 80c-52 46 -76 118 -76 208c0 158 75 262 243 262c39 0 74 -6 103 -17zM356 250c0 20 -1 37 -3 52l-110 -184c10 -5 22 -7 36 -7c53 0 77 34 77 139zM202 250
c0 -20 0 -38 2 -53l110 184c-10 5 -22 8 -35 8c-53 0 -77 -34 -77 -139zM439 725l-124 -161h-144l92 161h176z" />
    <glyph glyph-name="otilde" unicode="&#xf5;" horiz-adv-x="558" 
d="M202 250c0 -105 24 -139 77 -139s77 34 77 139s-24 139 -77 139s-77 -34 -77 -139zM36 250c0 158 75 262 243 262s243 -104 243 -262s-75 -262 -243 -262s-243 104 -243 262zM331 711h128c0 -106 -35 -147 -103 -147c-61 0 -87 40 -112 40c-13 0 -17 -9 -17 -27v-5h-128
c0 106 35 147 103 147c61 0 87 -40 112 -40c13 0 17 9 17 27v5z" />
    <glyph glyph-name="macron" unicode="&#xaf;" horiz-adv-x="418" 
d="M53 587v120h312v-120h-312z" />
    <glyph glyph-name="peseta" unicode="&#x20a7;" horiz-adv-x="1236" 
d="M1010 0h-250c-145 0 -195 47 -195 172v205h-53c-29 -90 -107 -139 -225 -139h-57v-238h-169v700h226c143 0 225 -73 236 -200h42v142h156v-142h115v-52c31 40 88 64 162 64c128 0 188 -65 188 -147v-9h-154v9c0 23 -11 37 -34 37c-24 0 -35 -14 -35 -36
c0 -26 15 -40 57 -49l39 -8c102 -21 149 -69 149 -149c0 -98 -56 -160 -198 -160zM809 365v12h-88v-185c0 -57 18 -70 79 -70h207c28 0 42 11 42 31c0 21 -13 31 -55 40l-39 8c-97 20 -146 72 -146 164zM230 381h39c57 0 87 27 87 88s-30 88 -87 88h-39v-176z" />
    <glyph glyph-name="quotedblbase" unicode="&#x201e;" horiz-adv-x="517" 
d="M231 166v-166c0 -80 -60 -137 -168 -140v73c56 2 84 23 84 67h-84v166h168zM454 166v-166c0 -80 -60 -137 -168 -140v73c56 2 84 23 84 67h-84v166h168z" />
    <glyph glyph-name="quotereversed" unicode="&#x201b;" horiz-adv-x="294" 
d="M63 610v166h168v-166h-84c0 -44 28 -65 84 -67v-73c-108 3 -168 60 -168 140z" />
    <glyph glyph-name="quotesinglbase" unicode="&#x201a;" horiz-adv-x="294" 
d="M231 166v-166c0 -80 -60 -137 -168 -140v73c56 2 84 23 84 67h-84v166h168z" />
    <glyph glyph-name="racute" unicode="&#x155;" 
d="M343 374c-77 0 -124 -48 -124 -140v-234h-166v500h166v-100c13 75 55 112 126 112c15 0 27 -1 35 -4l-2 -135c-10 1 -20 1 -35 1zM372 725l-124 -161h-144l92 161h176z" />
    <glyph glyph-name="rcaron" unicode="&#x159;" 
d="M343 374c-77 0 -124 -48 -124 -140v-234h-166v500h166v-100c13 75 55 112 126 112c15 0 27 -1 35 -4l-2 -135c-10 1 -20 1 -35 1zM277 564h-130l-119 161h135l49 -68l49 68h135z" />
    <glyph glyph-name="rcommaaccent" unicode="&#x157;" 
d="M343 374c-77 0 -124 -48 -124 -140v-234h-166v500h166v-100c13 75 55 112 126 112c15 0 27 -1 35 -4l-2 -135c-10 1 -20 1 -35 1zM168 -218h-130l40 170h154z" />
    <glyph glyph-name="revlogicalnot" unicode="&#x2310;" horiz-adv-x="558" 
d="M514 388v-125h-318v-150h-152v275h470z" />
    <glyph glyph-name="sacute" unicode="&#x15b;" horiz-adv-x="501" 
d="M39 148v4h166v-11c0 -26 17 -44 49 -44c33 0 49 19 49 44c0 28 -16 42 -54 50l-57 12c-100 21 -155 71 -155 152c0 91 71 157 205 157c136 0 205 -67 205 -149v-7h-166v8c0 20 -13 35 -40 35c-26 0 -40 -14 -40 -35c0 -23 18 -38 56 -46l57 -12c107 -23 155 -66 155 -155
c0 -97 -77 -163 -215 -163c-145 0 -215 69 -215 160zM399 725l-124 -161h-144l92 161h176z" />
    <glyph glyph-name="scaron" unicode="&#x161;" horiz-adv-x="501" 
d="M39 148v4h166v-11c0 -26 17 -44 49 -44c33 0 49 19 49 44c0 28 -16 42 -54 50l-57 12c-100 21 -155 71 -155 152c0 91 71 157 205 157c136 0 205 -67 205 -149v-7h-166v8c0 20 -13 35 -40 35c-26 0 -40 -14 -40 -35c0 -23 18 -38 56 -46l57 -12c107 -23 155 -66 155 -155
c0 -97 -77 -163 -215 -163c-145 0 -215 69 -215 160zM306 564h-130l-119 161h135l49 -68l49 68h135z" />
    <glyph glyph-name="scedilla" unicode="&#x15f;" horiz-adv-x="497" 
d="M39 148v4h166v-11c0 -26 17 -44 49 -44c33 0 49 19 49 44c0 28 -16 42 -54 50l-57 12c-100 21 -155 71 -155 152c0 91 71 157 205 157c136 0 205 -67 205 -149v-7h-166v8c0 20 -13 35 -40 35c-26 0 -40 -14 -40 -35c0 -23 18 -38 56 -46l57 -12c107 -23 155 -66 155 -155
c0 -80 -52 -138 -146 -156l-19 -36c59 -7 92 -44 92 -91c0 -61 -48 -106 -136 -106c-51 0 -93 15 -122 36l37 70c20 -14 42 -23 64 -23c21 0 35 8 35 26s-16 28 -42 28c-10 0 -27 -2 -36 -5l-17 21l36 75c-119 11 -176 75 -176 158z" />
    <glyph glyph-name="scircumflex" unicode="&#x15d;" horiz-adv-x="501" 
d="M39 148v4h166v-11c0 -26 17 -44 49 -44c33 0 49 19 49 44c0 28 -16 42 -54 50l-57 12c-100 21 -155 71 -155 152c0 91 71 157 205 157c136 0 205 -67 205 -149v-7h-166v8c0 20 -13 35 -40 35c-26 0 -40 -14 -40 -35c0 -23 18 -38 56 -46l57 -12c107 -23 155 -66 155 -155
c0 -97 -77 -163 -215 -163c-145 0 -215 69 -215 160zM175 725h130l119 -161h-135l-49 68l-49 -68h-135z" />
    <glyph glyph-name="sterling" unicode="&#xa3;" horiz-adv-x="554" 
d="M44 372h58c-21 38 -35 85 -35 145c0 109 81 195 222 195s222 -86 222 -195v-26h-176v25c0 31 -13 53 -46 53c-31 0 -47 -20 -47 -53c0 -67 14 -107 31 -144h139v-104h-132c-8 -48 -32 -92 -65 -125h304v-143h-472v133c32 36 56 83 62 135h-65v104z" />
    <glyph glyph-name="tcaron" unicode="&#x165;" horiz-adv-x="545" 
d="M261 377v-192c0 -57 18 -70 79 -70h51v-119c-23 -2 -72 -3 -101 -3c-145 0 -195 47 -195 172v212h-75v123h75v142h166v-142h130v-123h-130zM545 712v-140c0 -69 -51 -118 -144 -121v62c48 2 71 20 71 59h-71v140h144z" />
    <glyph glyph-name="tcommaaccent" unicode="&#x163;" horiz-adv-x="420" 
d="M108 -202l37 70c20 -14 42 -23 64 -23c21 0 35 8 35 26s-16 28 -42 28c-10 0 -27 -2 -36 -5l-17 21l43 89c-71 20 -97 70 -97 161v212h-75v123h75v142h166v-142h130v-123h-130v-192c0 -57 18 -70 79 -70h51v-119c-23 -2 -70 -3 -99 -3l-18 -34c59 -7 92 -44 92 -91
c0 -61 -48 -106 -136 -106c-51 0 -93 15 -122 36z" />
    <glyph glyph-name="tilde" unicode="&#x2dc;" horiz-adv-x="418" 
d="M261 717h128c0 -106 -35 -147 -103 -147c-61 0 -87 40 -112 40c-13 0 -17 -9 -17 -27v-5h-128c0 106 35 147 103 147c61 0 87 -40 112 -40c13 0 17 9 17 27v5z" />
    <glyph glyph-name="tildecomb" unicode="&#x303;" horiz-adv-x="0" 
d="M-180 717h128c0 -106 -35 -147 -103 -147c-61 0 -87 40 -112 40c-13 0 -17 -9 -17 -27v-5h-128c0 106 35 147 103 147c61 0 87 -40 112 -40c13 0 17 9 17 27v5z" />
    <glyph glyph-name="uacute" unicode="&#xfa;" horiz-adv-x="566" 
d="M51 180v320h166v-316c0 -51 19 -73 56 -73c46 0 74 38 74 104v285h166v-500h-166v78c-18 -54 -67 -90 -137 -90c-101 0 -159 63 -159 192zM447 725l-124 -161h-144l92 161h176z" />
    <glyph glyph-name="ubreve" unicode="&#x16d;" horiz-adv-x="566" 
d="M51 180v320h166v-316c0 -51 19 -73 56 -73c46 0 74 38 74 104v285h166v-500h-166v78c-18 -54 -67 -90 -137 -90c-101 0 -159 63 -159 192zM283 562c-99 0 -168 54 -169 154h124c0 -36 15 -55 45 -55s45 19 45 55h124c-1 -100 -70 -154 -169 -154z" />
    <glyph glyph-name="ucircumflex" unicode="&#xfb;" horiz-adv-x="566" 
d="M51 180v320h166v-316c0 -51 19 -73 56 -73c46 0 74 38 74 104v285h166v-500h-166v78c-18 -54 -67 -90 -137 -90c-101 0 -159 63 -159 192zM218 725h130l119 -161h-135l-49 68l-49 -68h-135z" />
    <glyph glyph-name="udieresis" unicode="&#xfc;" horiz-adv-x="566" 
d="M51 180v320h166v-316c0 -51 19 -73 56 -73c46 0 74 38 74 104v285h166v-500h-166v78c-18 -54 -67 -90 -137 -90c-101 0 -159 63 -159 192zM255 712v-141h-143v141h143zM454 712v-141h-143v141h143z" />
    <glyph glyph-name="ugrave" unicode="&#xf9;" horiz-adv-x="566" 
d="M51 180v320h166v-316c0 -51 19 -73 56 -73c46 0 74 38 74 104v285h166v-500h-166v78c-18 -54 -67 -90 -137 -90c-101 0 -159 63 -159 192zM243 564l-124 161h176l92 -161h-144z" />
    <glyph glyph-name="uhungarumlaut" unicode="&#x171;" horiz-adv-x="566" 
d="M51 180v320h166v-316c0 -51 19 -73 56 -73c46 0 74 38 74 104v285h166v-500h-166v78c-18 -54 -67 -90 -137 -90c-101 0 -159 63 -159 192zM560 725l-132 -169h-140l102 169h170zM344 725l-102 -169h-140l72 169h170z" />
    <glyph glyph-name="umacron" unicode="&#x16b;" horiz-adv-x="566" 
d="M51 180v320h166v-316c0 -51 19 -73 56 -73c46 0 74 38 74 104v285h166v-500h-166v78c-18 -54 -67 -90 -137 -90c-101 0 -159 63 -159 192zM127 583v120h312v-120h-312z" />
    <glyph glyph-name="underscoredbl" unicode="&#x2017;" horiz-adv-x="588" 
d="M44 -252v105h500v-105h-500zM44 -111v105h500v-105h-500z" />
    <glyph glyph-name="uni0191" unicode="&#x191;" horiz-adv-x="534" 
d="M240 277v-314c0 -116 -60 -181 -193 -181c-21 0 -58 1 -77 3v122h30c42 0 61 19 61 68v725h446v-143h-267v-137h236v-143h-236z" />
    <glyph glyph-name="uni02C9" unicode="&#x2c9;" horiz-adv-x="418" 
d="M53 587v120h312v-120h-312z" />
    <glyph glyph-name="uni0302" unicode="&#x302;" horiz-adv-x="0" 
d="M-297 730h130l119 -161h-135l-49 68l-49 -68h-135z" />
    <glyph glyph-name="uni0304" unicode="&#x304;" horiz-adv-x="0" 
d="M-388 588v120h312v-120h-312z" />
    <glyph glyph-name="uni0306" unicode="&#x306;" horiz-adv-x="0" 
d="M-232 567c-99 0 -168 54 -169 154h124c0 -36 15 -55 45 -55s45 19 45 55h124c-1 -100 -70 -154 -169 -154z" />
    <glyph glyph-name="uni0307" unicode="&#x307;" horiz-adv-x="0" 
d="M-160 717v-141h-144v141h144z" />
    <glyph glyph-name="uni0308" unicode="&#x308;" horiz-adv-x="0" 
d="M-260 717v-141h-143v141h143zM-61 717v-141h-143v141h143z" />
    <glyph glyph-name="uni030A" unicode="&#x30a;" horiz-adv-x="0" 
d="M-117 649c0 -67 -49 -107 -115 -107s-115 40 -115 107s49 107 115 107s115 -40 115 -107zM-203 649c0 19 -11 31 -29 31s-29 -12 -29 -31s11 -31 29 -31s29 12 29 31z" />
    <glyph glyph-name="uni030C" unicode="&#x30c;" horiz-adv-x="0" 
d="M-167 569h-130l-119 161h135l49 -68l49 68h135z" />
    <glyph glyph-name="uni0327" unicode="&#x327;" horiz-adv-x="0" 
d="M-361 -202l37 70c20 -14 42 -23 64 -23c21 0 35 8 35 26s-16 28 -42 28c-10 0 -27 -2 -36 -5l-17 21l41 85h106l-22 -41c59 -7 92 -44 92 -91c0 -61 -48 -106 -136 -106c-51 0 -93 15 -122 36z" />
    <glyph glyph-name="uni0400" unicode="&#x400;" horiz-adv-x="557" 
d="M61 0v700h451v-143h-272v-127h236v-143h-236v-144h277v-143h-456zM256 763l-124 161h176l92 -161h-144z" />
    <glyph glyph-name="afii10051" unicode="&#x402;" horiz-adv-x="742" 
d="M13 557v143h535v-143h-178v-138c35 25 90 43 148 43c118 0 186 -70 186 -190v-105c0 -112 -64 -174 -188 -174c-22 0 -50 1 -70 3v140h28c34 0 51 15 51 55v62c0 43 -22 66 -65 66c-35 0 -68 -12 -90 -28v-291h-179v557h-178z" />
    <glyph glyph-name="afii10052" unicode="&#x403;" horiz-adv-x="523" 
d="M61 700h452v-143h-273v-557h-179v700zM455 924l-124 -161h-144l92 161h176z" />
    <glyph glyph-name="afii10053" unicode="&#x404;" horiz-adv-x="660" 
d="M44 350c0 115 19 209 74 275c49 58 120 87 217 87c182 0 285 -108 285 -258h-178c-2 73 -39 115 -107 115c-37 0 -63 -13 -82 -40c-16 -24 -25 -56 -28 -108h177v-143h-177c3 -52 12 -84 28 -107c19 -27 45 -40 82 -40c68 0 107 43 107 115h178
c0 -150 -103 -258 -285 -258c-97 0 -168 29 -217 87c-55 66 -74 160 -74 275z" />
    <glyph glyph-name="afii10054" unicode="&#x405;" horiz-adv-x="600" 
d="M567 206c0 -126 -89 -218 -260 -218c-165 0 -261 87 -261 213v12h179v-15c0 -44 28 -72 82 -72c53 0 81 28 81 72c0 42 -24 68 -91 82l-54 11c-127 26 -202 89 -202 214c0 118 91 207 250 207s250 -92 250 -200v-11h-179v11c0 39 -26 62 -71 62c-46 0 -71 -23 -71 -62
c0 -41 26 -63 93 -77l54 -11c133 -27 200 -96 200 -218z" />
    <glyph glyph-name="afii10055" unicode="&#x406;" horiz-adv-x="301" 
d="M240 700v-700h-179v700h179z" />
    <glyph glyph-name="afii10056" unicode="&#x407;" horiz-adv-x="301" 
d="M240 700v-700h-179v700h179zM122 911v-141h-143v141h143zM321 911v-141h-143v141h143z" />
    <glyph glyph-name="afii10057" unicode="&#x408;" horiz-adv-x="559" 
d="M259 131c41 0 63 26 63 83v486h179v-487c0 -139 -83 -225 -242 -225s-242 86 -242 225v21h179v-20c0 -57 22 -83 63 -83z" />
    <glyph glyph-name="afii10058" unicode="&#x409;" horiz-adv-x="971" 
d="M941 215c0 -143 -86 -215 -235 -215h-278v557h-145v-370c0 -144 -53 -194 -198 -194c-30 0 -56 1 -77 3v139h35c43 0 61 13 61 59v506h503v-270h99c149 0 235 -72 235 -215zM607 288v-146h77c51 0 78 21 78 73s-27 73 -78 73h-77z" />
    <glyph glyph-name="afii10059" unicode="&#x40a;" horiz-adv-x="938" 
d="M908 215c0 -143 -86 -215 -235 -215h-278v287h-155v-287h-179v700h179v-270h155v270h179v-270h99c149 0 235 -72 235 -215zM574 288v-146h77c51 0 78 21 78 73s-27 73 -78 73h-77z" />
    <glyph glyph-name="afii10060" unicode="&#x40b;" horiz-adv-x="747" 
d="M13 557v143h535v-143h-178v-138c35 25 90 43 148 43c118 0 186 -70 186 -190v-272h-179v253c0 43 -22 66 -65 66c-35 0 -68 -12 -90 -28v-291h-179v557h-178z" />
    <glyph glyph-name="afii10061" unicode="&#x40c;" horiz-adv-x="627" 
d="M607 700l-171 -341l198 -359h-194l-148 287h-52v-287h-179v700h179v-270h52l125 270h190zM485 924l-124 -161h-144l92 161h176z" />
    <glyph glyph-name="uni040D" unicode="&#x40d;" horiz-adv-x="655" 
d="M235 0l185 400v-400h174v700h-174l-185 -400v400h-174v-700h174zM297 763l-124 161h176l92 -161h-144z" />
    <glyph glyph-name="afii10062" unicode="&#x40e;" horiz-adv-x="624" 
d="M236 191l5 12l-224 497h182l119 -304l115 304h182l-236 -569c-42 -102 -93 -131 -193 -131c-16 0 -41 0 -57 2v141h38c36 0 54 10 69 48zM313 759c-99 0 -168 54 -169 154h124c0 -36 15 -55 45 -55s45 19 45 55h124c-1 -100 -70 -154 -169 -154z" />
    <glyph glyph-name="afii10145" unicode="&#x40f;" horiz-adv-x="645" 
d="M412 0v-120h-179v120h-172v700h179v-557h165v557h179v-700h-172z" />
    <glyph glyph-name="uni0450" unicode="&#x450;" horiz-adv-x="558" 
d="M520 211h-317v-9c0 -67 29 -101 76 -101c40 0 64 20 69 53h163c-18 -112 -107 -166 -232 -166c-169 0 -243 105 -243 262c0 156 73 262 243 262s243 -106 243 -262c0 -14 -1 -29 -2 -39zM203 302h152c-1 63 -26 97 -76 97s-75 -34 -76 -97zM243 564l-124 161h176l92 -161
h-144z" />
    <glyph glyph-name="afii10099" unicode="&#x452;" horiz-adv-x="566" 
d="M349 -26v342c0 51 -19 73 -56 73c-46 0 -74 -38 -74 -104v-285h-166v556h-55v88h55v56h166v-56h112v-88h-112v-134c18 54 67 90 137 90c101 0 159 -63 159 -192v-357c0 -117 -58 -181 -193 -181c-20 0 -58 1 -77 3v119h41c44 0 63 21 63 70z" />
    <glyph glyph-name="afii10100" unicode="&#x453;" horiz-adv-x="431" 
d="M413 377h-194v-377h-166v500h360v-123zM392 725l-124 -161h-144l92 161h176z" />
    <glyph glyph-name="afii10101" unicode="&#x454;" horiz-adv-x="548" 
d="M281 -12c-168 0 -245 104 -245 262s77 262 245 262c144 0 224 -74 236 -181h-166c-8 37 -28 58 -70 58s-70 -23 -76 -81h116v-117h-116c6 -58 34 -80 76 -80s62 21 70 58h166c-12 -107 -92 -181 -236 -181z" />
    <glyph glyph-name="afii10102" unicode="&#x455;" horiz-adv-x="501" 
d="M39 148v4h166v-11c0 -26 17 -44 49 -44c33 0 49 19 49 44c0 28 -16 42 -54 50l-57 12c-100 21 -155 71 -155 152c0 91 71 157 205 157c136 0 205 -67 205 -149v-7h-166v8c0 20 -13 35 -40 35c-26 0 -40 -14 -40 -35c0 -23 18 -38 56 -46l57 -12c107 -23 155 -66 155 -155
c0 -97 -77 -163 -215 -163c-145 0 -215 69 -215 160z" />
    <glyph glyph-name="afii10103" unicode="&#x456;" horiz-adv-x="280" 
d="M57 567v133h166v-133h-166zM57 0v500h166v-500h-166z" />
    <glyph glyph-name="afii10104" unicode="&#x457;" horiz-adv-x="280" 
d="M57 0v500h166v-500h-166zM112 712v-141h-143v141h143zM311 712v-141h-143v141h143z" />
    <glyph glyph-name="afii10105" unicode="&#x458;" horiz-adv-x="280" 
d="M57 -26v526h166v-537c0 -117 -58 -181 -193 -181c-20 0 -58 1 -77 3v119h41c44 0 63 21 63 70zM57 567v133h166v-133h-166z" />
    <glyph glyph-name="afii10106" unicode="&#x459;" horiz-adv-x="811" 
d="M515 500v-174h74c125 0 195 -56 195 -163s-70 -163 -195 -163h-240v377h-94v-220c0 -123 -48 -164 -184 -164c-20 0 -45 1 -59 3v119h23c38 0 54 11 54 60v325h426zM515 113h56c33 0 52 16 52 50s-19 50 -52 50h-56v-100z" />
    <glyph glyph-name="afii10107" unicode="&#x45a;" horiz-adv-x="780" 
d="M484 500v-174h74c125 0 195 -56 195 -163s-70 -163 -195 -163h-240v195h-99v-195h-166v500h166v-182h99v182h166zM484 113h56c33 0 52 16 52 50s-19 50 -52 50h-56v-100z" />
    <glyph glyph-name="afii10108" unicode="&#x45b;" horiz-adv-x="566" 
d="M-2 644h55v56h166v-56h112v-88h-112v-134c18 54 67 90 137 90c101 0 159 -63 159 -192v-320h-166v316c0 51 -19 73 -56 73c-46 0 -74 -38 -74 -104v-285h-166v556h-55v88z" />
    <glyph glyph-name="afii10109" unicode="&#x45c;" horiz-adv-x="534" 
d="M53 0v500h166v-183h32l85 183h172l-123 -240l143 -260h-174l-104 204h-31v-204h-166zM433 725l-124 -161h-144l92 161h176z" />
    <glyph glyph-name="uni045D" unicode="&#x45d;" horiz-adv-x="548" 
d="M219 500v-257l119 257h157v-500h-166v257l-119 -257h-157v500h166zM245 564l-124 161h176l92 -161h-144z" />
    <glyph glyph-name="afii10110" unicode="&#x45e;" horiz-adv-x="544" 
d="M178 -41l14 41l-179 500h170l90 -315l88 315h170l-192 -553c-46 -132 -83 -165 -191 -165c-22 0 -54 0 -74 2v121h37c32 0 52 11 67 54zM273 562c-99 0 -168 54 -169 154h124c0 -36 15 -55 45 -55s45 19 45 55h124c-1 -100 -70 -154 -169 -154z" />
    <glyph glyph-name="afii10193" unicode="&#x45f;" horiz-adv-x="540" 
d="M487 500v-500h-134v-110h-166v110h-134v500h166v-377h102v377h166z" />
    <glyph glyph-name="afii10050" unicode="&#x490;" horiz-adv-x="523" 
d="M513 557h-273v-557h-179v700h273v140h179v-283z" />
    <glyph glyph-name="afii10098" unicode="&#x491;" horiz-adv-x="431" 
d="M413 377h-194v-377h-166v500h193v108h167v-231z" />
    <glyph glyph-name="uni2016" unicode="&#x2016;" horiz-adv-x="487" 
d="M80 -130v879h137v-879h-137zM270 -130v879h137v-879h-137z" />
    <glyph glyph-name="uni201F" unicode="&#x201f;" horiz-adv-x="517" 
d="M63 610v166h168v-166h-84c0 -44 28 -65 84 -67v-73c-108 3 -168 60 -168 140zM286 610v166h168v-166h-84c0 -44 28 -65 84 -67v-73c-108 3 -168 60 -168 140z" />
    <glyph glyph-name="uni203E" unicode="&#x203e;" horiz-adv-x="418" 
d="M53 587v120h312v-120h-312z" />
    <glyph glyph-name="zerosuperior" unicode="&#x2070;" 
d="M371 468c0 -100 -14 -149 -45 -188c-28 -35 -71 -52 -129 -52s-101 17 -129 52c-31 39 -45 88 -45 188s14 149 45 188c28 35 71 52 129 52s101 -17 129 -52c31 -39 45 -88 45 -188zM239 468c0 63 -3 97 -12 115c-6 12 -16 17 -30 17s-24 -5 -30 -17
c-9 -18 -12 -52 -12 -115s3 -97 12 -115c6 -12 16 -17 30 -17s24 5 30 17c9 18 12 52 12 115z" />
    <glyph glyph-name="uni2071" unicode="&#x2071;" 
d="M127 236v323h140v-323h-140zM127 600v100h140v-100h-140z" />
    <glyph glyph-name="fivesuperior" unicode="&#x2075;" 
d="M31 370h133c1 -24 13 -37 33 -37c22 0 35 16 35 61c0 48 -12 62 -33 62c-13 0 -26 -7 -29 -24h-124l12 268h283v-108h-161l-4 -72c11 15 34 25 61 25c76 0 124 -52 124 -151c0 -106 -55 -165 -164 -165c-105 0 -160 55 -166 141z" />
    <glyph glyph-name="sixsuperior" unicode="&#x2076;" 
d="M356 578h-133c-2 26 -10 36 -27 36c-24 0 -33 -16 -33 -97c15 17 40 28 72 28c79 0 130 -54 130 -152c0 -104 -63 -165 -165 -165c-60 0 -107 20 -134 59c-27 40 -35 86 -35 168c0 101 5 158 38 201c26 33 68 52 126 52c90 0 148 -43 161 -130zM162 389
c0 -44 12 -61 36 -61c25 0 36 17 36 61c0 45 -11 61 -36 61c-24 0 -36 -16 -36 -61z" />
    <glyph glyph-name="sevensuperior" unicode="&#x2077;" 
d="M33 591v109h326v-93l-137 -371h-140l136 355h-185z" />
    <glyph glyph-name="eightsuperior" unicode="&#x2078;" 
d="M197 607c-25 0 -37 -15 -37 -40s12 -40 37 -40s37 15 37 40s-12 40 -37 40zM197 434c-25 0 -40 -15 -40 -53s15 -53 40 -53s40 15 40 53s-15 53 -40 53zM197 228c-102 0 -173 54 -173 144c0 56 28 92 76 112c-40 17 -64 54 -64 100c0 70 57 124 161 124s161 -54 161 -124
c0 -46 -24 -83 -64 -100c48 -20 76 -56 76 -112c0 -90 -71 -144 -173 -144z" />
    <glyph glyph-name="ninesuperior" unicode="&#x2079;" 
d="M38 358h133c2 -26 10 -36 27 -36c24 0 33 16 33 97c-15 -17 -40 -28 -72 -28c-79 0 -130 54 -130 152c0 104 63 165 165 165c60 0 107 -20 134 -59c27 -40 35 -86 35 -168c0 -101 -5 -158 -38 -201c-26 -33 -68 -52 -126 -52c-90 0 -148 43 -161 130zM232 547
c0 44 -12 61 -36 61c-25 0 -36 -17 -36 -61c0 -45 11 -61 36 -61c24 0 36 16 36 61z" />
    <glyph glyph-name="uni207A" unicode="&#x207a;" 
d="M137 307v106h-100v110h100v106h120v-106h100v-110h-100v-106h-120z" />
    <glyph glyph-name="uni207B" unicode="&#x207b;" 
d="M357 413h-320v110h320v-110z" />
    <glyph glyph-name="uni207C" unicode="&#x207c;" 
d="M357 489h-320v110h320v-110zM357 336h-320v110h320v-110z" />
    <glyph glyph-name="uni207D" unicode="&#x207d;" 
d="M116 468c0 246 56 299 214 299v-107c-61 0 -86 -20 -86 -192s25 -192 86 -192v-107c-158 0 -214 53 -214 299z" />
    <glyph glyph-name="uni207E" unicode="&#x207e;" 
d="M278 468c0 -246 -56 -299 -214 -299v107c61 0 86 20 86 192s-25 192 -86 192v107c158 0 214 -53 214 -299z" />
    <glyph glyph-name="zeroinferior" unicode="&#x2080;" 
d="M371 105c0 -100 -14 -149 -45 -188c-28 -35 -71 -52 -129 -52s-101 17 -129 52c-31 39 -45 88 -45 188s14 149 45 188c28 35 71 52 129 52s101 -17 129 -52c31 -39 45 -88 45 -188zM239 105c0 63 -3 97 -12 115c-6 12 -16 17 -30 17s-24 -5 -30 -17
c-9 -18 -12 -52 -12 -115s3 -97 12 -115c6 -12 16 -17 30 -17s24 5 30 17c9 18 12 52 12 115z" />
    <glyph glyph-name="fiveinferior" unicode="&#x2085;" 
d="M31 7h133c1 -24 13 -37 33 -37c22 0 35 16 35 61c0 48 -12 62 -33 62c-13 0 -26 -7 -29 -24h-124l12 268h283v-108h-161l-4 -72c11 15 34 25 61 25c76 0 124 -52 124 -151c0 -106 -55 -165 -164 -165c-105 0 -160 55 -166 141z" />
    <glyph glyph-name="sixinferior" unicode="&#x2086;" 
d="M356 215h-133c-2 26 -10 36 -27 36c-24 0 -33 -16 -33 -97c15 17 40 28 72 28c79 0 130 -54 130 -152c0 -104 -63 -165 -165 -165c-60 0 -107 20 -134 59c-27 40 -35 86 -35 168c0 101 5 158 38 201c26 33 68 52 126 52c90 0 148 -43 161 -130zM162 26
c0 -44 12 -61 36 -61c25 0 36 17 36 61c0 45 -11 61 -36 61c-24 0 -36 -16 -36 -61z" />
    <glyph glyph-name="seveninferior" unicode="&#x2087;" 
d="M33 228v109h326v-93l-137 -371h-140l136 355h-185z" />
    <glyph glyph-name="eightinferior" unicode="&#x2088;" 
d="M197 244c-25 0 -37 -15 -37 -40s12 -40 37 -40s37 15 37 40s-12 40 -37 40zM197 71c-25 0 -40 -15 -40 -53s15 -53 40 -53s40 15 40 53s-15 53 -40 53zM197 -135c-102 0 -173 54 -173 144c0 56 28 92 76 112c-40 17 -64 54 -64 100c0 70 57 124 161 124s161 -54 161 -124
c0 -46 -24 -83 -64 -100c48 -20 76 -56 76 -112c0 -90 -71 -144 -173 -144z" />
    <glyph glyph-name="nineinferior" unicode="&#x2089;" 
d="M38 -5h133c2 -26 10 -36 27 -36c24 0 33 16 33 97c-15 -17 -40 -28 -72 -28c-79 0 -130 54 -130 152c0 104 63 165 165 165c60 0 107 -20 134 -59c27 -40 35 -86 35 -168c0 -101 -5 -158 -38 -201c-26 -33 -68 -52 -126 -52c-90 0 -148 43 -161 130zM232 184
c0 44 -12 61 -36 61c-25 0 -36 -17 -36 -61c0 -45 11 -61 36 -61c24 0 36 16 36 61z" />
    <glyph glyph-name="uni208A" unicode="&#x208a;" 
d="M137 -56v106h-100v110h100v106h120v-106h100v-110h-100v-106h-120z" />
    <glyph glyph-name="uni208B" unicode="&#x208b;" 
d="M357 50h-320v110h320v-110z" />
    <glyph glyph-name="uni208C" unicode="&#x208c;" 
d="M357 126h-320v110h320v-110zM357 -27h-320v110h320v-110z" />
    <glyph glyph-name="uni208D" unicode="&#x208d;" 
d="M116 105c0 246 56 299 214 299v-107c-61 0 -86 -20 -86 -192s25 -192 86 -192v-107c-158 0 -214 53 -214 299z" />
    <glyph glyph-name="uni208E" unicode="&#x208e;" 
d="M278 105c0 -246 -56 -299 -214 -299v107c61 0 86 20 86 192s-25 192 -86 192v107c158 0 214 -53 214 -299z" />
    <glyph glyph-name="uni2090" unicode="&#x2090;" 
d="M226 -92c-9 -27 -41 -44 -80 -44c-66 0 -114 40 -114 113c0 72 48 113 114 113c41 0 73 -20 80 -44v62c0 26 -9 38 -28 38c-16 0 -26 -10 -27 -33h-126c6 73 54 122 153 122c104 0 154 -55 154 -134v-179c0 -19 4 -37 9 -49h-129c-3 8 -5 19 -6 35zM226 -23
c0 18 -13 28 -38 28s-38 -10 -38 -28s13 -29 38 -29s38 11 38 29z" />
    <glyph glyph-name="uni2091" unicode="&#x2091;" 
d="M359 51v-27h-200v-5c0 -51 13 -66 38 -66c20 0 30 11 35 36h120c-18 -86 -75 -124 -155 -124c-105 0 -162 65 -162 186c0 119 58 184 162 184s162 -65 162 -184zM197 147c-25 0 -38 -16 -38 -57h75c0 41 -13 57 -37 57z" />
    <glyph glyph-name="uni2092" unicode="&#x2092;" 
d="M359 51v-2c0 -120 -58 -184 -162 -184s-162 64 -162 186c0 120 58 184 162 184s162 -64 162 -184zM235 50c0 67 -11 86 -38 86s-38 -19 -38 -86s11 -86 38 -86s38 19 38 86z" />
    <glyph glyph-name="uni2093" unicode="&#x2093;" 
d="M237 -123l-40 111l-40 -111h-136l89 175l-79 171h132l34 -108l34 108h132l-79 -171l89 -175h-136z" />
    <glyph glyph-name="uni20A0" unicode="&#x20a0;" horiz-adv-x="761" 
d="M503 543h-167c-8 31 -25 50 -63 50c-51 0 -71 -33 -71 -140c0 -109 25 -141 85 -141c33 0 62 9 83 27v151h359v-119h-192v-63h156v-118h-156v-72h197v-118h-364v217c-22 -14 -63 -23 -102 -23c-148 0 -233 79 -233 259c0 178 83 259 239 259c141 0 207 -67 229 -169z" />
    <glyph glyph-name="uni20A2" unicode="&#x20a2;" horiz-adv-x="657" 
d="M44 350c0 219 78 362 290 362c172 0 275 -98 283 -250h-169c-8 73 -45 116 -114 116c-79 0 -119 -45 -119 -228c0 -125 11 -188 56 -218v262h123v-69c6 54 34 77 80 77c10 0 19 -1 24 -2l-1 -99c-7 1 -15 1 -24 1c-51 0 -79 -31 -79 -95v-75c32 13 54 49 58 106h165
c-7 -152 -114 -250 -283 -250c-217 0 -290 146 -290 362z" />
    <glyph glyph-name="uni20A6" unicode="&#x20a6;" horiz-adv-x="655" 
d="M-2 455h63v245h159l200 -396v396h174v-245h63v-86h-63v-38h63v-86h-63v-245h-159l-200 408v-408h-174v245h-63v86h63v38h-63v86z" />
    <glyph glyph-name="uni20A8" unicode="&#x20a8;" horiz-adv-x="1025" 
d="M376 65l-5 87c-4 65 -25 86 -86 86h-45v-238h-179v700h268c151 0 230 -84 230 -214c0 -95 -46 -155 -120 -176c73 -13 102 -57 108 -149l6 -95c2 -29 7 -50 15 -66h-179c-7 15 -12 41 -13 65zM240 381h53c56 0 87 25 87 88s-31 88 -87 88h-53v-176zM590 148v4h164v-11
c0 -26 11 -43 40 -43c27 0 39 17 39 43c0 27 -17 38 -52 47l-50 13c-95 25 -143 71 -143 156c0 92 71 155 194 155c122 0 193 -67 193 -147v-9h-160v10c0 21 -9 37 -33 37s-33 -16 -33 -37c0 -24 17 -35 55 -45l50 -13c98 -26 143 -74 143 -157c0 -97 -78 -163 -204 -163
c-127 0 -203 69 -203 160z" />
    <glyph glyph-name="uni20A9" unicode="&#x20a9;" horiz-adv-x="974" 
d="M870 350h90v-66h-107l-72 -284h-162l-72 284h-121l-71 -284h-162l-73 284h-107v66h90l-7 29h-83v66h66l-65 255h178l49 -255h106l64 255h152l64 -255h105l50 255h178l-65 -255h65v-66h-82zM450 379l-7 -29h87l-7 29h-73zM253 379l6 -29h64l7 29h-77zM643 379l7 -29h64
l6 29h-77zM487 523l-20 -78h39zM271 284l16 -79l20 79h-36zM667 284l20 -79l15 79h-35z" />
    <glyph glyph-name="afii57636" unicode="&#x20aa;" horiz-adv-x="932" 
d="M61 0v700h351c170 0 246 -84 246 -238v-200h-171v196c0 79 -31 106 -100 106h-155v-564h-171zM871 700v-700h-351c-170 0 -246 84 -246 238v200h171v-196c0 -79 31 -106 100 -106h155v564h171z" />
    <glyph glyph-name="afii61248" unicode="&#x2105;" horiz-adv-x="975" 
d="M592 700h133l-342 -700h-133zM939 219c0 -146 -53 -226 -181 -226s-181 80 -181 226s53 226 181 226s181 -80 181 -226zM806 219c0 87 -7 117 -48 117s-48 -30 -48 -117s7 -117 48 -117s48 30 48 117zM36 481c0 146 53 226 181 226c110 0 171 -56 177 -161h-132
c-2 36 -14 52 -45 52c-41 0 -48 -30 -48 -117s7 -117 48 -117c31 0 43 16 45 52h132c-6 -105 -67 -161 -177 -161c-128 0 -181 80 -181 226z" />
    <glyph glyph-name="uni2117" unicode="&#x2117;" horiz-adv-x="754" 
d="M709 350c0 -244 -126 -362 -332 -362s-332 118 -332 362s126 362 332 362s332 -118 332 -362zM101 350c0 -205 93 -310 276 -310s276 105 276 310s-93 310 -276 310s-276 -105 -276 -310zM569 416c0 -100 -60 -143 -168 -143h-47v-132h-134v418h181
c108 0 168 -43 168 -143zM434 416c0 37 -17 49 -56 49h-24v-98h24c39 0 56 12 56 49z" />
    <glyph glyph-name="uni2120" unicode="&#x2120;" horiz-adv-x="714" 
d="M160 440c15 0 23 9 23 23c0 17 -7 25 -27 30l-31 8c-66 17 -96 45 -96 101c0 62 43 104 127 104c83 0 126 -44 126 -99v-8h-104v9c0 13 -9 22 -22 22c-16 0 -22 -9 -22 -22s8 -21 36 -28l30 -8c60 -16 92 -43 92 -104c0 -65 -43 -107 -132 -107c-84 0 -132 41 -132 103v7
h109v-8c0 -14 8 -23 23 -23zM522 366h-54l-47 119v-119h-106v334h98l82 -207l82 207h98v-334h-106v119z" />
    <glyph glyph-name="onefifth" unicode="&#x2155;" horiz-adv-x="965" 
d="M720 700l-342 -700h-133l342 700h133zM292 236h-133v341l-94 -40v114l111 49h116v-464zM602 133h133c1 -24 13 -37 33 -37c22 0 35 16 35 61c0 48 -12 62 -33 62c-13 0 -26 -7 -29 -24h-124l12 268h283v-108h-161l-4 -72c11 15 34 25 61 25c76 0 124 -52 124 -151
c0 -106 -55 -165 -164 -165c-105 0 -160 55 -166 141z" />
    <glyph glyph-name="twofifths" unicode="&#x2156;" horiz-adv-x="965" 
d="M720 700l-342 -700h-133l342 700h133zM35 541v24c0 89 65 143 161 143c95 0 162 -53 162 -143c0 -49 -15 -78 -52 -120l-91 -101h143v-108h-314v95l153 175c17 19 31 36 31 58c0 21 -11 34 -32 34c-22 0 -32 -13 -32 -34v-23h-129zM602 133h133c1 -24 13 -37 33 -37
c22 0 35 16 35 61c0 48 -12 62 -33 62c-13 0 -26 -7 -29 -24h-124l12 268h283v-108h-161l-4 -72c11 15 34 25 61 25c76 0 124 -52 124 -151c0 -106 -55 -165 -164 -165c-105 0 -160 55 -166 141z" />
    <glyph glyph-name="threefifths" unicode="&#x2157;" horiz-adv-x="965" 
d="M720 700l-342 -700h-133l342 700h133zM197 607c-22 0 -31 -14 -31 -34v-5h-124v15c0 72 56 125 155 125c98 0 155 -52 155 -130c0 -45 -24 -81 -65 -95c49 -14 77 -54 77 -109c0 -86 -60 -146 -167 -146c-108 0 -167 63 -167 144v17h130v-12c0 -31 13 -45 37 -45
c23 0 36 14 36 49c0 32 -14 48 -45 48h-46v101h44c27 0 42 14 42 40c0 24 -9 37 -31 37zM602 133h133c1 -24 13 -37 33 -37c22 0 35 16 35 61c0 48 -12 62 -33 62c-13 0 -26 -7 -29 -24h-124l12 268h283v-108h-161l-4 -72c11 15 34 25 61 25c76 0 124 -52 124 -151
c0 -106 -55 -165 -164 -165c-105 0 -160 55 -166 141z" />
    <glyph glyph-name="fourfifths" unicode="&#x2158;" horiz-adv-x="965" 
d="M720 700l-342 -700h-133l342 700h133zM128 418h70v119zM378 418v-108h-44v-74h-136v74h-182v101l171 289h147v-282h44zM602 133h133c1 -24 13 -37 33 -37c22 0 35 16 35 61c0 48 -12 62 -33 62c-13 0 -26 -7 -29 -24h-124l12 268h283v-108h-161l-4 -72c11 15 34 25 61 25
c76 0 124 -52 124 -151c0 -106 -55 -165 -164 -165c-105 0 -160 55 -166 141z" />
    <glyph glyph-name="onesixth" unicode="&#x2159;" horiz-adv-x="965" 
d="M720 700l-342 -700h-133l342 700h133zM292 236h-133v341l-94 -40v114l111 49h116v-464zM927 342h-133c-2 26 -10 36 -27 36c-24 0 -33 -16 -33 -97c15 17 40 28 72 28c79 0 130 -54 130 -152c0 -104 -63 -165 -165 -165c-60 0 -107 20 -134 59c-27 40 -35 86 -35 168
c0 101 5 158 38 201c26 33 68 52 126 52c90 0 148 -43 161 -130zM733 153c0 -44 12 -61 36 -61c25 0 36 17 36 61c0 45 -11 61 -36 61c-24 0 -36 -16 -36 -61z" />
    <glyph glyph-name="fivesixths" unicode="&#x215a;" horiz-adv-x="965" 
d="M720 700l-342 -700h-133l342 700h133zM31 370h133c1 -24 13 -37 33 -37c22 0 35 16 35 61c0 48 -12 62 -33 62c-13 0 -26 -7 -29 -24h-124l12 268h283v-108h-161l-4 -72c11 15 34 25 61 25c76 0 124 -52 124 -151c0 -106 -55 -165 -164 -165c-105 0 -160 55 -166 141z
M927 342h-133c-2 26 -10 36 -27 36c-24 0 -33 -16 -33 -97c15 17 40 28 72 28c79 0 130 -54 130 -152c0 -104 -63 -165 -165 -165c-60 0 -107 20 -134 59c-27 40 -35 86 -35 168c0 101 5 158 38 201c26 33 68 52 126 52c90 0 148 -43 161 -130zM733 153c0 -44 12 -61 36 -61
c25 0 36 17 36 61c0 45 -11 61 -36 61c-24 0 -36 -16 -36 -61z" />
    <glyph glyph-name="uni215F" unicode="&#x215f;" horiz-adv-x="965" 
d="M720 700l-342 -700h-133l342 700h133zM292 236h-133v341l-94 -40v114l111 49h116v-464z" />
    <glyph glyph-name="uni2219" unicode="&#x2219;" horiz-adv-x="294" 
d="M231 408v-166h-168v166h168z" />
    <glyph glyph-name="uni2318" unicode="&#x2318;" horiz-adv-x="824" 
d="M209 456h52v52c0 32 -22 53 -52 53s-51 -21 -51 -53c0 -33 20 -52 51 -52zM261 190h-52c-31 0 -51 -19 -51 -52c0 -32 21 -53 51 -53s52 21 52 53v52zM375 287h74v72h-74v-72zM563 456h52c31 0 51 19 51 52c0 32 -21 53 -51 53s-52 -21 -52 -53v-52zM449 190h-74v-51
c0 -88 -59 -151 -166 -151c-101 0 -165 59 -165 150s64 149 165 149h52v72h-52c-101 0 -165 58 -165 149s64 150 165 150c107 0 166 -63 166 -151v-51h74v51c0 88 59 151 166 151c101 0 165 -59 165 -150s-64 -149 -165 -149h-52v-72h52c101 0 165 -58 165 -149
s-64 -150 -165 -150c-107 0 -166 63 -166 151v51zM615 190h-52v-52c0 -32 22 -53 52 -53s51 21 51 53c0 33 -20 52 -51 52z" />
    <glyph glyph-name="uogonek" unicode="&#x173;" horiz-adv-x="566" 
d="M347 0v78c-18 -54 -67 -90 -137 -90c-101 0 -159 63 -159 192v320h166v-316c0 -51 19 -73 56 -73c46 0 74 38 74 104v285h166v-500h-50c-50 -30 -75 -66 -75 -95v-5c0 -22 13 -36 40 -36c19 0 35 5 49 16l41 -62c-24 -24 -64 -37 -111 -37c-87 0 -140 39 -140 99v7
c0 45 30 87 80 113z" />
    <glyph glyph-name="uring" unicode="&#x16f;" horiz-adv-x="566" 
d="M51 180v320h166v-316c0 -51 19 -73 56 -73c46 0 74 38 74 104v285h166v-500h-166v78c-18 -54 -67 -90 -137 -90c-101 0 -159 63 -159 192zM398 644c0 -67 -49 -107 -115 -107s-115 40 -115 107s49 107 115 107s115 -40 115 -107zM312 644c0 19 -11 31 -29 31
s-29 -12 -29 -31s11 -31 29 -31s29 12 29 31z" />
    <glyph glyph-name="utilde" unicode="&#x169;" horiz-adv-x="566" 
d="M51 180v320h166v-316c0 -51 19 -73 56 -73c46 0 74 38 74 104v285h166v-500h-166v78c-18 -54 -67 -90 -137 -90c-101 0 -159 63 -159 192zM335 711h128c0 -106 -35 -147 -103 -147c-61 0 -87 40 -112 40c-13 0 -17 -9 -17 -27v-5h-128c0 106 35 147 103 147
c61 0 87 -40 112 -40c13 0 17 9 17 27v5z" />
    <glyph glyph-name="wcircumflex" unicode="&#x175;" horiz-adv-x="834" 
d="M356 500h122l92 -322l82 322h169l-159 -500h-160l-85 297l-85 -297h-160l-159 500h169l82 -322zM352 725h130l119 -161h-135l-49 68l-49 -68h-135z" />
    <glyph glyph-name="yacute" unicode="&#xfd;" horiz-adv-x="544" 
d="M178 -41l14 41l-179 500h170l90 -315l88 315h170l-192 -553c-46 -132 -83 -165 -191 -165c-22 0 -54 0 -74 2v121h37c32 0 52 11 67 54zM432 725l-124 -161h-144l92 161h176z" />
    <glyph glyph-name="ycircumflex" unicode="&#x177;" horiz-adv-x="544" 
d="M178 -41l14 41l-179 500h170l90 -315l88 315h170l-192 -553c-46 -132 -83 -165 -191 -165c-22 0 -54 0 -74 2v121h37c32 0 52 11 67 54zM211 725h130l119 -161h-135l-49 68l-49 -68h-135z" />
    <glyph glyph-name="ydieresis" unicode="&#xff;" horiz-adv-x="544" 
d="M178 -41l14 41l-179 500h170l90 -315l88 315h170l-192 -553c-46 -132 -83 -165 -191 -165c-22 0 -54 0 -74 2v121h37c32 0 52 11 67 54zM248 712v-141h-143v141h143zM447 712v-141h-143v141h143z" />
    <glyph glyph-name="yen" unicode="&#xa5;" horiz-adv-x="634" 
d="M406 0h-178v188h-126v74h126v43h-126v74h90l-178 321h185l118 -253l118 253h185l-178 -321h90v-74h-126v-43h126v-74h-126v-188z" />
    <glyph glyph-name="zacute" unicode="&#x17a;" horiz-adv-x="478" 
d="M236 123h211v-123h-416v113l204 264h-196v123h401v-113zM419 725l-124 -161h-144l92 161h176z" />
    <glyph glyph-name="zcaron" unicode="&#x17e;" horiz-adv-x="478" 
d="M236 123h211v-123h-416v113l204 264h-196v123h401v-113zM312 564h-130l-119 161h135l49 -68l49 68h135z" />
    <glyph glyph-name="zdotaccent" unicode="&#x17c;" horiz-adv-x="478" 
d="M236 123h211v-123h-416v113l204 264h-196v123h401v-113zM318 712v-141h-144v141h144z" />
    <glyph glyph-name="space" unicode=" " horiz-adv-x="260" 
 />
    <glyph glyph-name="ampersand" unicode="&#x26;" horiz-adv-x="686" 
d="M298 455l158 -187c7 29 10 64 10 94h162c-4 -83 -27 -156 -64 -216l127 -146h-198l-34 40c-47 -35 -107 -52 -168 -52c-152 0 -247 81 -247 206c0 83 47 147 121 185l-3 4c-49 57 -69 107 -69 159c0 106 82 170 205 170s205 -64 205 -170v-27h-164v27c0 31 -13 47 -41 47
s-41 -17 -41 -47s11 -53 41 -87zM300 116c26 0 51 7 73 23l-122 141c-25 -20 -41 -47 -41 -83c0 -55 38 -81 90 -81z" />
    <glyph glyph-name=".null" horiz-adv-x="0" 
 />
    <glyph glyph-name=".null" horiz-adv-x="0" 
 />
    <glyph glyph-name=".null" horiz-adv-x="0" 
 />
    <glyph glyph-name="CR" unicode="&#x9;" horiz-adv-x="237" 
 />
    <glyph glyph-name="CR" unicode="&#xd;" horiz-adv-x="237" 
 />
    <glyph glyph-name="Scommaaccent" unicode="&#x218;" horiz-adv-x="600" 
d="M567 206c0 -126 -89 -218 -260 -218c-165 0 -261 87 -261 213v12h179v-15c0 -44 28 -72 82 -72c53 0 81 28 81 72c0 42 -24 68 -91 82l-54 11c-127 26 -202 89 -202 214c0 118 91 207 250 207s250 -92 250 -200v-11h-179v11c0 39 -26 62 -71 62c-46 0 -71 -23 -71 -62
c0 -41 26 -63 93 -77l54 -11c133 -27 200 -96 200 -218zM348 -218h-130l40 170h154z" />
    <glyph glyph-name="scommaaccent" unicode="&#x219;" horiz-adv-x="501" 
d="M39 148v4h166v-11c0 -26 17 -44 49 -44c33 0 49 19 49 44c0 28 -16 42 -54 50l-57 12c-100 21 -155 71 -155 152c0 91 71 157 205 157c136 0 205 -67 205 -149v-7h-166v8c0 20 -13 35 -40 35c-26 0 -40 -14 -40 -35c0 -23 18 -38 56 -46l57 -12c107 -23 155 -66 155 -155
c0 -97 -77 -163 -215 -163c-145 0 -215 69 -215 160zM292 -218h-130l40 170h154z" />
    <glyph glyph-name="uni021A" unicode="&#x21a;" horiz-adv-x="561" 
d="M13 557v143h535v-143h-178v-557h-179v557h-178zM305 -218h-130l40 170h154z" />
    <glyph glyph-name="uni021B" unicode="&#x21b;" horiz-adv-x="420" 
d="M261 377v-192c0 -57 18 -70 79 -70h51v-119c-23 -2 -72 -3 -101 -3c-145 0 -195 47 -195 172v212h-75v123h75v142h166v-142h130v-123h-130zM274 -218h-130l40 170h154z" />
    <glyph glyph-name="dotlessj" unicode="&#x237;" horiz-adv-x="280" 
d="M57 -26v526h166v-537c0 -117 -58 -181 -193 -181c-20 0 -58 1 -77 3v119h41c44 0 63 21 63 70z" />
    <glyph glyph-name="apostrophe" unicode="&#x2bc;" horiz-adv-x="418" 
d="M281 730v-140c0 -69 -51 -118 -144 -121v62c48 2 71 20 71 59h-71v140h144z" />
    <glyph glyph-name="Wgrave" unicode="&#x1e80;" horiz-adv-x="974" 
d="M563 700h-152l-124 -475l-95 475h-178l179 -700h162l132 503l132 -503h162l179 700h-178l-95 -475zM443 763l-124 161h176l92 -161h-144z" />
    <glyph glyph-name="wgrave" unicode="&#x1e81;" horiz-adv-x="834" 
d="M478 500h-122l-92 -322l-82 322h-169l159 -500h160l85 297l85 -297h160l159 500h-169l-82 -322zM372 564l-124 161h176l92 -161h-144z" />
    <glyph glyph-name="Wacute" unicode="&#x1e82;" horiz-adv-x="974" 
d="M411 700h152l124 -475l95 475h178l-179 -700h-162l-132 503l-132 -503h-162l-179 700h178l95 -475zM655 924l-124 -161h-144l92 161h176z" />
    <glyph glyph-name="wacute" unicode="&#x1e83;" horiz-adv-x="834" 
d="M356 500h122l92 -322l82 322h169l-159 -500h-160l-85 297l-85 -297h-160l-159 500h169l82 -322zM586 725l-124 -161h-144l92 161h176z" />
    <glyph glyph-name="Wdieresis" unicode="&#x1e84;" horiz-adv-x="974" 
d="M563 700h-152l-124 -475l-95 475h-178l179 -700h162l132 503l132 -503h162l179 700h-178l-95 -475zM459 911v-141h-143v141h143zM658 911v-141h-143v141h143z" />
    <glyph glyph-name="wdieresis" unicode="&#x1e85;" horiz-adv-x="834" 
d="M478 500h-122l-92 -322l-82 322h-169l159 -500h160l85 297l85 -297h160l159 500h-169l-82 -322zM389 712v-141h-143v141h143zM588 712v-141h-143v141h143z" />
    <glyph glyph-name="Ygrave" unicode="&#x1ef2;" horiz-adv-x="636" 
d="M318 422l122 278h182l-214 -424v-276h-180v276l-214 424h182zM278 763l-124 161h176l92 -161h-144z" />
    <glyph glyph-name="ygrave" unicode="&#x1ef3;" horiz-adv-x="544" 
d="M178 -41l14 41l-179 500h170l90 -315l88 315h170l-192 -553c-46 -132 -83 -165 -191 -165c-22 0 -54 0 -74 2v121h37c32 0 52 11 67 54zM237 564l-124 161h176l92 -161h-144z" />
    <glyph glyph-name="uni2215" unicode="&#x2215;" horiz-adv-x="177" 
d="M326 700l-342 -700h-133l342 700h133z" />
    <glyph glyph-name="fi" horiz-adv-x="680" 
d="M387 584h-65c-45 0 -59 -15 -59 -51v-33h124v-123h-124v-377h-166v377h-75v123h75v48c0 109 55 159 192 159c35 0 73 -1 98 -5v-118zM457 567v133h166v-133h-166zM457 0v500h166v-500h-166z" />
    <glyph glyph-name="fl" horiz-adv-x="680" 
d="M387 584h-65c-45 0 -59 -15 -59 -51v-33h124v-123h-124v-377h-166v377h-75v123h75v48c0 109 55 159 192 159c35 0 73 -1 98 -5v-118zM623 0h-166v700h166v-700z" />
    <glyph glyph-name="commaaccent" horiz-adv-x="418" 
d="M242 -218h-130l40 170h154z" />
    <glyph glyph-name="exclam" unicode="!" horiz-adv-x="340" 
d="M87 0v148h166v-148h-166zM99 219l-12 381v100h166v-100l-12 -381h-142z" />
    <glyph glyph-name="quotedbl" unicode="&#x22;" horiz-adv-x="456" 
d="M251 477v223h134v-223h-134zM71 477v223h134v-223h-134z" />
    <glyph glyph-name="uni2010" unicode="&#x2010;" horiz-adv-x="430" 
d="M44 258v135h342v-135h-342z" />
    <glyph glyph-name="figuredash" unicode="&#x2012;" horiz-adv-x="588" 
d="M544 258h-500v135h500v-135z" />
    <glyph glyph-name="numbersign" unicode="#" horiz-adv-x="713" 
d="M326 0l35 162h-91l-35 -162h-149l35 162h-91v125h118l27 126h-111v125h138l36 162h149l-36 -162h91l36 162h149l-36 -162h92v-125h-119l-27 -126h112v-125h-139l-35 -162h-149zM324 413l-27 -126h91l27 126h-91z" />
    <glyph glyph-name="dollar" unicode="$" horiz-adv-x="600" 
d="M232 -92v87c-119 22 -186 100 -186 206v12h179v-15c0 -44 28 -72 82 -72c53 0 81 28 81 72c0 42 -24 68 -91 82l-54 11c-127 26 -202 89 -202 214c0 97 62 176 174 199v88h152v-88c111 -24 174 -103 174 -192v-11h-179v11c0 39 -26 62 -71 62c-46 0 -71 -23 -71 -62
c0 -41 26 -63 93 -77l54 -11c133 -27 200 -96 200 -218c0 -106 -63 -187 -183 -211v-87h-152z" />
    <glyph glyph-name="percent" unicode="%" horiz-adv-x="851" 
d="M510 700h118l-287 -700h-118zM170 523c0 -72 9 -92 36 -92s36 20 36 92s-9 92 -36 92s-36 -20 -36 -92zM49 523c0 123 50 189 156 189c108 0 158 -66 158 -189s-50 -189 -158 -189c-106 0 -156 66 -156 189zM681 177c0 72 -9 92 -36 92s-36 -20 -36 -92s9 -92 36 -92
s36 20 36 92zM802 177c0 -123 -50 -189 -156 -189c-108 0 -158 66 -158 189s50 189 158 189c106 0 156 -66 156 -189z" />
    <glyph glyph-name="zero.tnum" horiz-adv-x="586" 
d="M543 350c0 -142 -20 -234 -72 -294c-39 -45 -98 -68 -178 -68s-139 23 -178 68c-52 60 -72 152 -72 294s20 234 72 294c39 45 98 68 178 68s139 -23 178 -68c52 -60 72 -152 72 -294zM370 350c0 105 -4 168 -21 198c-13 22 -32 31 -56 31s-43 -9 -56 -31
c-17 -30 -21 -93 -21 -198s4 -168 21 -198c13 -22 32 -31 56 -31s43 9 56 31c17 30 21 93 21 198z" />
    <glyph glyph-name="one.tnum" horiz-adv-x="451" 
d="M353 0h-173v546l-140 -62v140l165 76h148v-700z" />
    <glyph glyph-name="two.tnum" horiz-adv-x="562" 
d="M512 501c0 -74 -20 -116 -75 -180l-164 -188h249v-133h-466v123l237 273c33 38 46 66 46 107c0 49 -18 76 -60 76s-60 -27 -60 -76v-34h-173v32c0 114 81 211 233 211s233 -97 233 -211z" />
    <glyph glyph-name="three.tnum" horiz-adv-x="554" 
d="M275 121c47 0 71 30 71 84c0 74 -27 97 -94 97h-49v132h49c48 0 78 19 78 78c0 44 -20 67 -55 67c-36 0 -56 -23 -56 -67v-13h-167v18c0 118 83 195 223 195c139 0 223 -79 223 -190c0 -83 -42 -131 -108 -150c85 -19 129 -83 129 -174c0 -126 -97 -210 -244 -210
c-148 0 -244 84 -244 210v24h173v-17c0 -54 24 -84 71 -84z" />
    <glyph glyph-name="four.tnum" horiz-adv-x="559" 
d="M169 260h125v209zM534 260v-133h-72v-127h-168v127h-271v133l262 440h177v-440h72z" />
    <glyph glyph-name="five.tnum" horiz-adv-x="551" 
d="M278 331c-28 0 -45 -15 -53 -36h-160l18 405h399v-133h-239l-7 -150c19 22 54 37 99 37c107 0 181 -72 181 -234c0 -142 -81 -232 -238 -232c-150 0 -228 81 -237 213h174c4 -52 22 -80 63 -80c44 0 65 30 65 105c0 73 -20 105 -65 105z" />
    <glyph glyph-name="six.tnum" horiz-adv-x="573" 
d="M520 521h-170c-2 41 -20 63 -54 63c-52 0 -76 -54 -78 -186c21 36 64 56 115 56c110 0 201 -82 201 -230c0 -145 -91 -236 -238 -236c-183 0 -247 124 -247 338c0 287 86 386 249 386c134 0 213 -71 222 -191zM223 225c0 -69 23 -104 69 -104s69 35 69 104
s-23 104 -69 104s-69 -35 -69 -104z" />
    <glyph glyph-name="seven.tnum" horiz-adv-x="528" 
d="M30 567v133h462v-122l-215 -578h-176l217 567h-288z" />
    <glyph glyph-name="eight.tnum" horiz-adv-x="572" 
d="M286 712c144 0 233 -76 233 -189c0 -72 -42 -128 -102 -151c73 -26 123 -82 123 -174c0 -130 -99 -210 -254 -210s-254 80 -254 210c0 92 50 148 123 174c-60 23 -102 79 -102 151c0 113 89 189 233 189zM286 121c50 0 81 32 81 94c0 61 -31 93 -81 93s-81 -32 -81 -93
c0 -62 31 -94 81 -94zM286 436c41 0 65 25 65 71s-24 72 -65 72s-65 -26 -65 -72s24 -71 65 -71z" />
    <glyph glyph-name="nine.tnum" horiz-adv-x="578" 
d="M58 179h170c2 -41 20 -63 54 -63c52 0 76 54 78 186c-21 -36 -64 -56 -115 -56c-110 0 -201 82 -201 230c0 145 91 236 238 236c183 0 247 -124 247 -338c0 -287 -86 -386 -249 -386c-134 0 -213 71 -222 191zM355 475c0 69 -23 104 -69 104s-69 -35 -69 -104
s23 -104 69 -104s69 35 69 104z" />
    <glyph glyph-name="thinspace" unicode="&#x2009;" horiz-adv-x="200" 
 />
    <glyph glyph-name="parenleft.case" horiz-adv-x="371" 
d="M71 351c0 377 78 453 281 453v-125c-77 0 -115 -16 -115 -328s38 -328 115 -328v-125c-203 0 -281 76 -281 453z" />
    <glyph glyph-name="parenright.case" horiz-adv-x="371" 
d="M300 351c0 -377 -78 -453 -281 -453v125c77 0 115 16 115 328s-38 328 -115 328v125c203 0 281 -76 281 -453z" />
    <glyph glyph-name="hyphen.case" horiz-adv-x="430" 
d="M44 282v135h342v-135h-342z" />
    <glyph glyph-name="at.case" horiz-adv-x="770" 
d="M385 693c-144 0 -191 -79 -191 -344c0 -277 55 -343 191 -343c39 0 76 7 105 25l37 -99c-42 -22 -95 -33 -146 -33c-197 0 -319 88 -319 450c0 324 90 451 323 451s323 -129 323 -444c0 -168 -78 -260 -223 -260c-136 0 -209 87 -209 234c0 153 71 228 179 228
c60 0 100 -24 115 -63c-17 140 -63 198 -185 198zM414 327c0 -85 24 -122 81 -122s81 37 81 122c0 84 -24 122 -81 122s-81 -38 -81 -122z" />
    <glyph glyph-name="bracketleft.case" horiz-adv-x="381" 
d="M71 -88v876h274v-124h-108v-628h108v-124h-274z" />
    <glyph glyph-name="bracketright.case" horiz-adv-x="381" 
d="M310 788v-876h-274v124h108v628h-108v124h274z" />
    <glyph glyph-name="braceleft.case" horiz-adv-x="397" 
d="M35 288v124h20c42 0 60 28 60 70v131c0 121 53 175 184 175h63v-124h-20c-40 0 -60 -26 -60 -70v-138c0 -51 -21 -91 -73 -106c52 -15 73 -55 73 -106v-138c0 -44 20 -70 60 -70h20v-124h-63c-131 0 -184 54 -184 175v131c0 42 -18 70 -60 70h-20z" />
    <glyph glyph-name="braceright.case" horiz-adv-x="397" 
d="M362 412v-124h-20c-42 0 -60 -28 -60 -70v-131c0 -121 -53 -175 -184 -175h-63v124h20c40 0 60 26 60 70v138c0 51 21 91 73 106c-52 15 -73 55 -73 106v138c0 44 -20 70 -60 70h-20v124h63c131 0 184 -54 184 -175v-131c0 -42 18 -70 60 -70h20z" />
    <glyph glyph-name="exclamdown.case" horiz-adv-x="340" 
d="M87 552v148h166v-148h-166zM87 100l12 381h142l12 -381v-100h-166v100z" />
    <glyph glyph-name="guillemotleft.case" horiz-adv-x="618" 
d="M296 414l-126 -64l126 -64v-143l-261 150v114l261 150v-143zM583 414l-126 -64l126 -64v-143l-261 150v114l261 150v-143z" />
    <glyph glyph-name="periodcentered.case" horiz-adv-x="294" 
d="M231 432v-166h-168v166h168z" />
    <glyph glyph-name="guillemotright.case" horiz-adv-x="618" 
d="M448 350l-126 64v143l261 -150v-114l-261 -150v143zM161 350l-126 64v143l261 -150v-114l-261 -150v143z" />
    <glyph glyph-name="questiondown.case" horiz-adv-x="548" 
d="M219 187c0 -42 20 -66 57 -66s57 24 57 66v15h166v-15c0 -116 -74 -199 -223 -199c-148 0 -223 83 -223 199c0 75 22 117 81 170c55 48 64 68 64 107v32h166v-48c0 -71 -17 -104 -76 -155c-53 -46 -69 -68 -69 -106zM364 700v-148h-166v148h166z" />
    <glyph glyph-name="endash.case" horiz-adv-x="500" 
d="M500 282h-500v135h500v-135z" />
    <glyph glyph-name="emdash.case" horiz-adv-x="1000" 
d="M1000 282h-1000v135h1000v-135z" />
    <glyph glyph-name="bullet.case" horiz-adv-x="362" 
d="M312 350c0 -72 -59 -131 -131 -131s-131 59 -131 131s59 131 131 131s131 -59 131 -131z" />
    <glyph glyph-name="guilsinglleft.case" horiz-adv-x="331" 
d="M296 414l-126 -64l126 -64v-143l-261 150v114l261 150v-143z" />
    <glyph glyph-name="guilsinglright.case" horiz-adv-x="331" 
d="M161 350l-126 64v143l261 -150v-114l-261 -150v143z" />
    <glyph glyph-name="zero.numerator" 
d="M371 468c0 -100 -14 -149 -45 -188c-28 -35 -71 -52 -129 -52s-101 17 -129 52c-31 39 -45 88 -45 188s14 149 45 188c28 35 71 52 129 52s101 -17 129 -52c31 -39 45 -88 45 -188zM239 468c0 63 -3 97 -12 115c-6 12 -16 17 -30 17s-24 -5 -30 -17
c-9 -18 -12 -52 -12 -115s3 -97 12 -115c6 -12 16 -17 30 -17s24 5 30 17c9 18 12 52 12 115z" />
    <glyph glyph-name="one.numerator" 
d="M292 236h-133v341l-94 -40v114l111 49h116v-464z" />
    <glyph glyph-name="two.numerator" 
d="M35 541v24c0 89 65 143 161 143c95 0 162 -53 162 -143c0 -49 -15 -78 -52 -120l-91 -101h143v-108h-314v95l153 175c17 19 31 36 31 58c0 21 -11 34 -32 34c-22 0 -32 -13 -32 -34v-23h-129z" />
    <glyph glyph-name="three.numerator" 
d="M197 607c-22 0 -31 -14 -31 -34v-5h-124v15c0 72 56 125 155 125c98 0 155 -52 155 -130c0 -45 -24 -81 -65 -95c49 -14 77 -54 77 -109c0 -86 -60 -146 -167 -146c-108 0 -167 63 -167 144v17h130v-12c0 -31 13 -45 37 -45c23 0 36 14 36 49c0 32 -14 48 -45 48h-46v101
h44c27 0 42 14 42 40c0 24 -9 37 -31 37z" />
    <glyph glyph-name="four.numerator" 
d="M128 418h70v119zM378 418v-108h-44v-74h-136v74h-182v101l171 289h147v-282h44z" />
    <glyph glyph-name="five.numerator" 
d="M31 370h133c1 -24 13 -37 33 -37c22 0 35 16 35 61c0 48 -12 62 -33 62c-13 0 -26 -7 -29 -24h-124l12 268h283v-108h-161l-4 -72c11 15 34 25 61 25c76 0 124 -52 124 -151c0 -106 -55 -165 -164 -165c-105 0 -160 55 -166 141z" />
    <glyph glyph-name="six.numerator" 
d="M356 578h-133c-2 26 -10 36 -27 36c-24 0 -33 -16 -33 -97c15 17 40 28 72 28c79 0 130 -54 130 -152c0 -104 -63 -165 -165 -165c-60 0 -107 20 -134 59c-27 40 -35 86 -35 168c0 101 5 158 38 201c26 33 68 52 126 52c90 0 148 -43 161 -130zM162 389
c0 -44 12 -61 36 -61c25 0 36 17 36 61c0 45 -11 61 -36 61c-24 0 -36 -16 -36 -61z" />
    <glyph glyph-name="seven.numerator" 
d="M33 591v109h326v-93l-137 -371h-140l136 355h-185z" />
    <glyph glyph-name="eight.numerator" 
d="M197 607c-25 0 -37 -15 -37 -40s12 -40 37 -40s37 15 37 40s-12 40 -37 40zM197 434c-25 0 -40 -15 -40 -53s15 -53 40 -53s40 15 40 53s-15 53 -40 53zM197 228c-102 0 -173 54 -173 144c0 56 28 92 76 112c-40 17 -64 54 -64 100c0 70 57 124 161 124s161 -54 161 -124
c0 -46 -24 -83 -64 -100c48 -20 76 -56 76 -112c0 -90 -71 -144 -173 -144z" />
    <glyph glyph-name="nine.numerator" 
d="M38 358h133c2 -26 10 -36 27 -36c24 0 33 16 33 97c-15 -17 -40 -28 -72 -28c-79 0 -130 54 -130 152c0 104 63 165 165 165c60 0 107 -20 134 -59c27 -40 35 -86 35 -168c0 -101 -5 -158 -38 -201c-26 -33 -68 -52 -126 -52c-90 0 -148 43 -161 130zM232 547
c0 44 -12 61 -36 61c-25 0 -36 -17 -36 -61c0 -45 11 -61 36 -61c24 0 36 16 36 61z" />
    <glyph glyph-name="zero.denominator" 
d="M371 231c0 -100 -14 -149 -45 -188c-28 -35 -71 -52 -129 -52s-101 17 -129 52c-31 39 -45 88 -45 188s14 149 45 188c28 35 71 52 129 52s101 -17 129 -52c31 -39 45 -88 45 -188zM239 231c0 63 -3 97 -12 115c-6 12 -16 17 -30 17s-24 -5 -30 -17
c-9 -18 -12 -52 -12 -115s3 -97 12 -115c6 -12 16 -17 30 -17s24 5 30 17c9 18 12 52 12 115z" />
    <glyph glyph-name="one.denominator" 
d="M292 -1h-133v341l-94 -40v114l111 49h116v-464z" />
    <glyph glyph-name="two.denominator" 
d="M35 304v24c0 89 65 143 161 143c95 0 162 -53 162 -143c0 -49 -15 -78 -52 -120l-91 -101h143v-108h-314v95l153 175c17 19 31 36 31 58c0 21 -11 34 -32 34c-22 0 -32 -13 -32 -34v-23h-129z" />
    <glyph glyph-name="three.denominator" 
d="M197 370c-22 0 -31 -14 -31 -34v-5h-124v15c0 72 56 125 155 125c98 0 155 -52 155 -130c0 -45 -24 -81 -65 -95c49 -14 77 -54 77 -109c0 -86 -60 -146 -167 -146c-108 0 -167 63 -167 144v17h130v-12c0 -31 13 -45 37 -45c23 0 36 14 36 49c0 32 -14 48 -45 48h-46v101
h44c27 0 42 14 42 40c0 24 -9 37 -31 37z" />
    <glyph glyph-name="four.denominator" 
d="M128 181h70v119zM378 181v-108h-44v-74h-136v74h-182v101l171 289h147v-282h44z" />
    <glyph glyph-name="five.denominator" 
d="M31 133h133c1 -24 13 -37 33 -37c22 0 35 16 35 61c0 48 -12 62 -33 62c-13 0 -26 -7 -29 -24h-124l12 268h283v-108h-161l-4 -72c11 15 34 25 61 25c76 0 124 -52 124 -151c0 -106 -55 -165 -164 -165c-105 0 -160 55 -166 141z" />
    <glyph glyph-name="six.denominator" 
d="M356 341h-133c-2 26 -10 36 -27 36c-24 0 -33 -16 -33 -97c15 17 40 28 72 28c79 0 130 -54 130 -152c0 -104 -63 -165 -165 -165c-60 0 -107 20 -134 59c-27 40 -35 86 -35 168c0 101 5 158 38 201c26 33 68 52 126 52c90 0 148 -43 161 -130zM162 152
c0 -44 12 -61 36 -61c25 0 36 17 36 61c0 45 -11 61 -36 61c-24 0 -36 -16 -36 -61z" />
    <glyph glyph-name="seven.denominator" 
d="M33 354v109h326v-93l-137 -371h-140l136 355h-185z" />
    <glyph glyph-name="eight.denominator" 
d="M197 370c-25 0 -37 -15 -37 -40s12 -40 37 -40s37 15 37 40s-12 40 -37 40zM197 197c-25 0 -40 -15 -40 -53s15 -53 40 -53s40 15 40 53s-15 53 -40 53zM197 -9c-102 0 -173 54 -173 144c0 56 28 92 76 112c-40 17 -64 54 -64 100c0 70 57 124 161 124s161 -54 161 -124
c0 -46 -24 -83 -64 -100c48 -20 76 -56 76 -112c0 -90 -71 -144 -173 -144z" />
    <glyph glyph-name="nine.denominator" 
d="M38 121h133c2 -26 10 -36 27 -36c24 0 33 16 33 97c-15 -17 -40 -28 -72 -28c-79 0 -130 54 -130 152c0 104 63 165 165 165c60 0 107 -20 134 -59c27 -40 35 -86 35 -168c0 -101 -5 -158 -38 -201c-26 -33 -68 -52 -126 -52c-90 0 -148 43 -161 130zM232 310
c0 44 -12 61 -36 61c-25 0 -36 -17 -36 -61c0 -45 11 -61 36 -61c24 0 36 16 36 61z" />
    <glyph glyph-name="uni03A9" unicode="&#x3a9;" horiz-adv-x="674" 
d="M337 712c94 0 170 -29 218 -87c55 -65 73 -148 73 -240c0 -121 -40 -201 -117 -242h105v-143h-253v143c57 27 86 84 86 207c0 97 -7 145 -29 178c-19 28 -46 41 -83 41s-64 -13 -83 -41c-22 -33 -29 -81 -29 -178c0 -123 29 -180 86 -207v-143h-253v143h105
c-77 41 -117 121 -117 242c0 92 18 175 73 240c48 58 124 87 218 87z" />
    <glyph glyph-name="H18533" unicode="&#x25cf;" horiz-adv-x="1000" 
d="M162 326c0 186 152 338 338 338s338 -152 338 -338s-152 -338 -338 -338s-338 152 -338 338z" />
    <glyph glyph-name="V" unicode="V" horiz-adv-x="644" 
d="M413 0h-182l-222 700h180l133 -509l133 509h180z" />
    <glyph glyph-name="uni2094" unicode="&#x2094;" 
d="M35 49v27h200v5c0 51 -13 66 -38 66c-20 0 -30 -11 -35 -36h-120c18 86 75 124 155 124c105 0 162 -65 162 -186c0 -119 -58 -184 -162 -184s-162 65 -162 184zM197 -47c25 0 38 16 38 57h-75c0 -41 13 -57 37 -57z" />
    <glyph glyph-name="tonos" unicode="&#x384;" horiz-adv-x="418" 
d="M323 730l-89 -196h-139l59 196h169z" />
    <glyph glyph-name="dieresistonos" unicode="&#x385;" horiz-adv-x="418" 
d="M181 632v-132h-143v132h143zM380 632v-132h-143v132h143zM355 783l-94 -128h-133l59 128h168z" />
    <glyph glyph-name="Alphatonos" unicode="&#x386;" horiz-adv-x="671" 
d="M259 700h182l222 -700h-180l-31 117h-205l-30 -117h-180zM350 509l-67 -256h134zM216 700l-89 -196h-139l59 196h169z" />
    <glyph glyph-name="anoteleia" unicode="&#x387;" horiz-adv-x="294" 
d="M231 408v-166h-168v166h168z" />
    <glyph glyph-name="Epsilontonos" unicode="&#x388;" horiz-adv-x="715" 
d="M219 0v700h451v-143h-272v-127h236v-143h-236v-144h277v-143h-456zM204 700l-89 -196h-139l59 196h169z" />
    <glyph glyph-name="Etatonos" unicode="&#x389;" horiz-adv-x="803" 
d="M563 0v287h-165v-287h-179v700h179v-270h165v270h179v-700h-179zM204 700l-89 -196h-139l59 196h169z" />
    <glyph glyph-name="Iotatonos" unicode="&#x38a;" horiz-adv-x="459" 
d="M398 700v-700h-179v700h179zM204 700l-89 -196h-139l59 196h169z" />
    <glyph glyph-name="Omicrontonos" unicode="&#x38c;" horiz-adv-x="775" 
d="M731 350c0 -115 -19 -209 -74 -275c-49 -58 -120 -87 -217 -87s-168 29 -217 87c-55 66 -74 160 -74 275s19 209 74 275c49 58 120 87 217 87s168 -29 217 -87c55 -66 74 -160 74 -275zM328 350c0 -95 8 -146 30 -179c19 -27 45 -40 82 -40s63 13 82 40
c22 33 30 84 30 179s-8 146 -30 179c-19 27 -45 40 -82 40s-63 -13 -82 -40c-22 -33 -30 -84 -30 -179zM204 700l-89 -196h-139l59 196h169z" />
    <glyph glyph-name="Upsilontonos" unicode="&#x38e;" horiz-adv-x="835" 
d="M517 422l122 278h182l-214 -424v-276h-180v276l-214 424h182zM204 700l-89 -196h-139l59 196h169z" />
    <glyph glyph-name="Omegatonos" unicode="&#x38f;" horiz-adv-x="779" 
d="M204 700l-89 -196h-139l59 196h169zM442 712c94 0 170 -29 218 -87c55 -65 73 -148 73 -240c0 -121 -40 -201 -117 -242h105v-143h-253v143c57 27 86 84 86 207c0 97 -7 145 -29 178c-19 28 -46 41 -83 41s-64 -13 -83 -41c-22 -33 -29 -81 -29 -178
c0 -123 29 -180 86 -207v-143h-253v143h105c-77 41 -117 121 -117 242c0 92 18 175 73 240c48 58 124 87 218 87z" />
    <glyph glyph-name="iotadieresistonos" unicode="&#x390;" horiz-adv-x="295" 
d="M53 108v392h166v-347c0 -30 11 -40 37 -40h15v-120c-26 -2 -54 -3 -83 -3c-93 0 -135 28 -135 118zM108 689v-132h-143v132h143zM307 689v-132h-143v132h143zM282 840l-94 -128h-133l59 128h168z" />
    <glyph glyph-name="Alpha" unicode="&#x391;" horiz-adv-x="642" 
d="M230 700h182l222 -700h-180l-31 117h-205l-30 -117h-180zM321 509l-67 -256h134z" />
    <glyph glyph-name="Beta" unicode="&#x392;" horiz-adv-x="623" 
d="M398 494c0 54 -27 75 -78 75h-80v-150h80c51 0 78 21 78 75zM348 0h-287v700h278c155 0 233 -67 233 -192c0 -74 -37 -121 -98 -143c72 -22 117 -80 117 -159c0 -138 -85 -206 -243 -206zM412 215c0 59 -26 84 -82 84h-90v-168h90c56 0 82 25 82 84z" />
    <glyph glyph-name="Gamma" unicode="&#x393;" horiz-adv-x="523" 
d="M61 700h452v-143h-273v-557h-179v700z" />
    <glyph glyph-name="uni0394" unicode="&#x394;" horiz-adv-x="642" 
d="M230 700h182l222 -700h-626zM321 509l-98 -373h195z" />
    <glyph glyph-name="Epsilon" unicode="&#x395;" horiz-adv-x="557" 
d="M61 0v700h451v-143h-272v-127h236v-143h-236v-144h277v-143h-456z" />
    <glyph glyph-name="Zeta" unicode="&#x396;" horiz-adv-x="562" 
d="M35 133l273 424h-263v143h477v-133l-273 -424h278v-143h-492v133z" />
    <glyph glyph-name="Eta" unicode="&#x397;" horiz-adv-x="645" 
d="M405 0v287h-165v-287h-179v700h179v-270h165v270h179v-700h-179z" />
    <glyph glyph-name="Theta" unicode="&#x398;" horiz-adv-x="670" 
d="M626 350c0 -115 -19 -209 -74 -275c-49 -58 -120 -87 -217 -87s-168 29 -217 87c-55 66 -74 160 -74 275s19 209 74 275c49 58 120 87 217 87s168 -29 217 -87c55 -66 74 -160 74 -275zM223 350c0 -97 8 -146 30 -179c19 -27 45 -40 82 -40s63 13 82 40
c22 33 30 82 30 179s-8 146 -30 179c-19 27 -45 40 -82 40s-63 -13 -82 -40c-22 -33 -30 -82 -30 -179zM260 404v-108h148v108h-148z" />
    <glyph glyph-name="Iota" unicode="&#x399;" horiz-adv-x="301" 
d="M240 700v-700h-179v700h179z" />
    <glyph glyph-name="Kappa" unicode="&#x39a;" horiz-adv-x="627" 
d="M607 700l-171 -341l198 -359h-194l-148 287h-52v-287h-179v700h179v-270h52l125 270h190z" />
    <glyph glyph-name="Lambda" unicode="&#x39b;" horiz-adv-x="642" 
d="M230 700h182l222 -700h-180l-133 509l-133 -509h-180z" />
    <glyph glyph-name="Mu" unicode="&#x39c;" horiz-adv-x="854" 
d="M493 0h-132l-127 338v-338h-173v700h169l197 -522l197 522h169v-700h-173v338z" />
    <glyph glyph-name="Nu" unicode="&#x39d;" horiz-adv-x="655" 
d="M420 0l-185 400v-400h-174v700h174l185 -400v400h174v-700h-174z" />
    <glyph glyph-name="Xi" unicode="&#x39e;" horiz-adv-x="599" 
d="M45 557v143h509v-143h-509zM40 0v143h519v-143h-519zM81 287v143h437v-143h-437z" />
    <glyph glyph-name="Omicron" unicode="&#x39f;" horiz-adv-x="670" 
d="M626 350c0 -115 -19 -209 -74 -275c-49 -58 -120 -87 -217 -87s-168 29 -217 87c-55 66 -74 160 -74 275s19 209 74 275c49 58 120 87 217 87s168 -29 217 -87c55 -66 74 -160 74 -275zM223 350c0 -95 8 -146 30 -179c19 -27 45 -40 82 -40s63 13 82 40
c22 33 30 84 30 179s-8 146 -30 179c-19 27 -45 40 -82 40s-63 -13 -82 -40c-22 -33 -30 -84 -30 -179z" />
    <glyph glyph-name="Pi" unicode="&#x3a0;" horiz-adv-x="645" 
d="M405 0v557h-165v-557h-179v700h523v-700h-179z" />
    <glyph glyph-name="Rho" unicode="&#x3a1;" horiz-adv-x="617" 
d="M353 238h-113v-238h-179v700h292c154 0 238 -84 238 -231c0 -148 -84 -231 -238 -231zM240 381h85c57 0 87 27 87 88s-30 88 -87 88h-85v-176z" />
    <glyph glyph-name="Sigma" unicode="&#x3a3;" horiz-adv-x="550" 
d="M44 145l141 216l-141 195v144h475v-143h-269l127 -175v-43l-128 -196h270v-143h-475v145z" />
    <glyph glyph-name="Tau" unicode="&#x3a4;" horiz-adv-x="561" 
d="M13 557v143h535v-143h-178v-557h-179v557h-178z" />
    <glyph glyph-name="Upsilon" unicode="&#x3a5;" horiz-adv-x="636" 
d="M318 422l122 278h182l-214 -424v-276h-180v276l-214 424h182z" />
    <glyph glyph-name="Phi" unicode="&#x3a6;" horiz-adv-x="807" 
d="M314 237v226c-72 -2 -110 -36 -110 -113s38 -111 110 -113zM493 463v-226c72 2 110 36 110 113s-38 111 -110 113zM314 700h179v-99c163 -11 283 -80 283 -251s-120 -240 -283 -251v-99h-179v99c-163 11 -283 80 -283 251s120 240 283 251v99z" />
    <glyph glyph-name="Chi" unicode="&#x3a7;" horiz-adv-x="636" 
d="M438 0l-120 256l-120 -256h-184l185 362l-170 338h184l105 -234l105 234h184l-170 -338l185 -362h-184z" />
    <glyph glyph-name="Psi" unicode="&#x3a8;" horiz-adv-x="768" 
d="M297 700h174v-404c44 5 72 34 72 111v293h174v-289c0 -158 -88 -237 -246 -258v-153h-174v153c-158 21 -246 100 -246 258v289h174v-293c0 -77 28 -106 72 -111v404z" />
    <glyph glyph-name="Iotadieresis" unicode="&#x3aa;" horiz-adv-x="301" 
d="M240 700v-700h-179v700h179zM122 911v-141h-143v141h143zM321 911v-141h-143v141h143z" />
    <glyph glyph-name="Upsilondieresis" unicode="&#x3ab;" horiz-adv-x="636" 
d="M318 422l122 278h182l-214 -424v-276h-180v276l-214 424h182zM290 911v-141h-143v141h143zM489 911v-141h-143v141h143z" />
    <glyph glyph-name="alphatonos" unicode="&#x3ac;" horiz-adv-x="592" 
d="M356 250c0 105 -24 139 -77 139s-77 -34 -77 -139s24 -139 77 -139s77 34 77 139zM356 76c-17 -51 -67 -88 -136 -88c-118 0 -184 89 -184 262s66 262 184 262c69 0 119 -37 136 -88v76h166v-347c0 -30 11 -40 37 -40h15v-120c-26 -2 -54 -3 -83 -3
c-93 0 -124 30 -135 86zM468 725l-124 -161h-144l92 161h176z" />
    <glyph glyph-name="epsilontonos" unicode="&#x3ad;" horiz-adv-x="507" 
d="M333 200h-72c-40 0 -62 -17 -62 -48c0 -30 24 -50 60 -50c38 0 59 18 60 45h167v-7c0 -90 -87 -152 -227 -152s-227 62 -227 152c0 63 41 102 105 115c-55 13 -94 54 -94 111c0 83 75 146 213 146c142 0 213 -64 213 -150v-9h-161c0 27 -17 44 -52 44
c-33 0 -51 -16 -51 -44s22 -45 54 -45h74v-108zM418 725l-124 -161h-144l92 161h176z" />
    <glyph glyph-name="etatonos" unicode="&#x3ae;" horiz-adv-x="566" 
d="M515 320v-538h-166v534c0 51 -19 73 -56 73c-46 0 -74 -38 -74 -104v-285h-166v500h166v-78c18 54 67 90 137 90c101 0 159 -63 159 -192zM450 725l-124 -161h-144l92 161h176z" />
    <glyph glyph-name="iotatonos" unicode="&#x3af;" horiz-adv-x="295" 
d="M53 108v392h166v-347c0 -30 11 -40 37 -40h15v-120c-26 -2 -54 -3 -83 -3c-93 0 -135 28 -135 118zM303 725l-124 -161h-144l92 161h176z" />
    <glyph glyph-name="upsilondieresistonos" unicode="&#x3b0;" horiz-adv-x="558" 
d="M279 -12c139 0 230 66 230 197v315h-166v-314c0 -52 -21 -75 -64 -75s-64 23 -64 75v314h-166v-315c0 -131 91 -197 230 -197zM251 689v-132h-143v132h143zM450 689v-132h-143v132h143zM425 840l-94 -128h-133l59 128h168z" />
    <glyph glyph-name="alpha" unicode="&#x3b1;" horiz-adv-x="592" 
d="M356 250c0 105 -24 139 -77 139s-77 -34 -77 -139s24 -139 77 -139s77 34 77 139zM356 76c-17 -51 -67 -88 -136 -88c-118 0 -184 89 -184 262s66 262 184 262c69 0 119 -37 136 -88v76h166v-347c0 -30 11 -40 37 -40h15v-120c-26 -2 -54 -3 -83 -3
c-93 0 -124 30 -135 86z" />
    <glyph glyph-name="beta" unicode="&#x3b2;" horiz-adv-x="584" 
d="M523 514c0 -73 -42 -131 -118 -146c82 -8 148 -71 148 -168c0 -138 -86 -212 -193 -212c-74 0 -123 32 -141 87v-293h-166v712c0 138 78 218 235 218c156 0 235 -84 235 -198zM357 509c0 52 -25 80 -69 80c-54 0 -69 -36 -69 -110v-239c0 -89 19 -129 84 -129
c55 0 84 33 84 95c0 72 -36 100 -99 100h-24v123h24c45 0 69 22 69 80z" />
    <glyph glyph-name="gamma" unicode="&#x3b3;" horiz-adv-x="544" 
d="M188 8l-175 492h170l89 -323l89 323h170l-175 -492v-226h-168v226z" />
    <glyph glyph-name="delta" unicode="&#x3b4;" horiz-adv-x="558" 
d="M86 577v123h394v-123h-207l149 -101c71 -48 100 -124 100 -226c0 -158 -75 -262 -243 -262s-243 104 -243 262c0 128 49 222 161 252zM202 250c0 -105 24 -139 77 -139s77 34 77 139s-24 139 -77 139s-77 -34 -77 -139z" />
    <glyph glyph-name="epsilon" unicode="&#x3b5;" horiz-adv-x="507" 
d="M333 200h-72c-40 0 -62 -17 -62 -48c0 -30 24 -50 60 -50c38 0 59 18 60 45h167v-7c0 -90 -87 -152 -227 -152s-227 62 -227 152c0 63 41 102 105 115c-55 13 -94 54 -94 111c0 83 75 146 213 146c142 0 213 -64 213 -150v-9h-161c0 27 -17 44 -52 44
c-33 0 -51 -16 -51 -44s22 -45 54 -45h74v-108z" />
    <glyph glyph-name="zeta" unicode="&#x3b6;" horiz-adv-x="473" 
d="M376 105c48 -2 67 -23 67 -62c0 -55 -41 -157 -89 -224l-135 34c24 44 43 95 53 136c-165 8 -239 76 -239 211c0 154 92 279 244 377h-193v123h359v-126c-156 -102 -244 -211 -244 -358c0 -70 43 -105 177 -111z" />
    <glyph glyph-name="eta" unicode="&#x3b7;" horiz-adv-x="566" 
d="M515 320v-538h-166v534c0 51 -19 73 -56 73c-46 0 -74 -38 -74 -104v-285h-166v500h166v-78c18 54 67 90 137 90c101 0 159 -63 159 -192z" />
    <glyph glyph-name="theta" unicode="&#x3b8;" horiz-adv-x="596" 
d="M554 356c0 -260 -78 -369 -256 -369s-256 109 -256 369s78 369 256 369s256 -109 256 -369zM235 570c-17 -26 -25 -72 -28 -153h182c-3 81 -12 127 -28 153c-14 23 -35 33 -63 33s-49 -10 -63 -33zM361 142c16 26 25 72 28 153h-182c3 -81 11 -127 28 -153
c14 -23 35 -33 63 -33s49 10 63 33z" />
    <glyph glyph-name="iota" unicode="&#x3b9;" horiz-adv-x="295" 
d="M53 108v392h166v-347c0 -30 11 -40 37 -40h15v-120c-26 -2 -54 -3 -83 -3c-93 0 -135 28 -135 118z" />
    <glyph glyph-name="kappa" unicode="&#x3ba;" horiz-adv-x="534" 
d="M53 0v500h166v-183h32l85 183h172l-123 -240l143 -260h-174l-104 204h-31v-204h-166z" />
    <glyph glyph-name="lambda" unicode="&#x3bb;" horiz-adv-x="518" 
d="M179 494l-14 41c-15 43 -35 54 -67 54h-37v121c20 2 52 2 74 2c108 0 145 -33 191 -165l192 -547h-170l-88 309l-90 -309h-170z" />
    <glyph glyph-name="uni03BC" unicode="&#x3bc;" horiz-adv-x="568" 
d="M349 0v77c-13 -54 -43 -89 -86 -89c-19 0 -36 8 -44 23v-229h-166v718h166v-319c0 -52 19 -74 56 -74c46 0 74 39 74 104v289h166v-500h-166z" />
    <glyph glyph-name="nu" unicode="&#x3bd;" horiz-adv-x="544" 
d="M357 0h-170l-174 500h170l89 -323l89 323h170z" />
    <glyph glyph-name="xi" unicode="&#x3be;" horiz-adv-x="492" 
d="M301 -9c-161 10 -266 84 -267 217c-1 105 63 173 158 200c-77 13 -127 65 -127 141c0 92 66 163 206 163c139 0 205 -69 206 -163h-163c-1 27 -15 44 -43 44c-29 0 -44 -17 -44 -54c0 -46 25 -65 71 -65h69v-123h-47c-68 0 -121 -44 -121 -121c0 -74 65 -119 205 -125
c48 -2 67 -23 67 -62c0 -55 -41 -157 -89 -224l-135 34c24 44 44 97 54 138z" />
    <glyph glyph-name="omicron" unicode="&#x3bf;" horiz-adv-x="558" 
d="M202 250c0 -105 24 -139 77 -139s77 34 77 139s-24 139 -77 139s-77 -34 -77 -139zM36 250c0 158 75 262 243 262s243 -104 243 -262s-75 -262 -243 -262s-243 104 -243 262z" />
    <glyph glyph-name="pi" unicode="&#x3c0;" horiz-adv-x="610" 
d="M267 377v-377h-166v377h-75v123h558v-123h-75v-377h-166v377h-76z" />
    <glyph glyph-name="rho" unicode="&#x3c1;" horiz-adv-x="566" 
d="M44 -218v468c0 158 75 262 243 262s243 -104 243 -262c0 -173 -66 -262 -184 -262c-69 0 -119 37 -136 88v-294h-166zM364 250c0 105 -24 139 -77 139s-77 -34 -77 -139s24 -139 77 -139s77 34 77 139z" />
    <glyph glyph-name="sigma1" unicode="&#x3c2;" horiz-adv-x="536" 
d="M280 389h-1c-48 0 -76 -30 -76 -127c0 -116 53 -152 210 -157c49 -1 67 -23 67 -62c0 -54 -37 -155 -87 -223l-136 33c23 44 44 91 53 134c-176 14 -274 101 -274 268c0 151 74 257 244 257c149 0 233 -80 238 -196h-165c-5 51 -27 73 -73 73z" />
    <glyph glyph-name="sigma" unicode="&#x3c3;" horiz-adv-x="570" 
d="M279 500h276v-123h-83c30 -26 50 -78 50 -133c0 -152 -75 -256 -243 -256s-243 104 -243 256s75 256 243 256zM356 244c0 99 -24 133 -77 133s-77 -34 -77 -133s24 -133 77 -133s77 34 77 133z" />
    <glyph glyph-name="tau" unicode="&#x3c4;" horiz-adv-x="481" 
d="M315 377v-219c0 -38 11 -45 47 -45h27v-120c-19 -2 -56 -3 -84 -3c-125 0 -157 29 -157 137v250h-138v123h455v-123h-150z" />
    <glyph glyph-name="upsilon" unicode="&#x3c5;" horiz-adv-x="558" 
d="M279 -12c-139 0 -230 66 -230 197v315h166v-314c0 -52 21 -75 64 -75s64 23 64 75v314h166v-315c0 -131 -91 -197 -230 -197z" />
    <glyph glyph-name="phi" unicode="&#x3c6;" horiz-adv-x="733" 
d="M38 244c0 136 45 233 191 252l25 -131c-38 -11 -59 -38 -59 -121c0 -121 34 -133 91 -133v389h161c179 0 248 -90 248 -256s-69 -256 -248 -256v-206h-161v206c-179 0 -248 90 -248 256zM538 244c0 121 -34 133 -91 133v-266c57 0 91 12 91 133z" />
    <glyph glyph-name="chi" unicode="&#x3c7;" horiz-adv-x="530" 
d="M356 -218l-91 270l-91 -270h-174l142 369l-132 349h173l82 -251l82 251h173l-132 -349l142 -369h-174z" />
    <glyph glyph-name="psi" unicode="&#x3c8;" horiz-adv-x="719" 
d="M279 500h161v-386c45 2 69 29 69 84v302h161v-298c0 -126 -91 -202 -230 -211v-209h-161v209c-139 9 -230 85 -230 211v298h161v-302c0 -55 24 -82 69 -84v386z" />
    <glyph glyph-name="omega" unicode="&#x3c9;" horiz-adv-x="784" 
d="M309 402h166v-169c0 -92 11 -123 53 -123c32 0 50 29 50 123c0 80 -17 174 -52 267h169c35 -92 50 -183 50 -266c0 -167 -69 -246 -197 -246c-82 0 -134 35 -156 103c-22 -68 -74 -103 -156 -103c-128 0 -197 79 -197 246c0 83 15 174 50 266h169
c-35 -93 -52 -187 -52 -267c0 -94 18 -123 50 -123c42 0 53 31 53 123v169z" />
    <glyph glyph-name="iotadieresis" unicode="&#x3ca;" horiz-adv-x="295" 
d="M53 108v392h166v-347c0 -30 11 -40 37 -40h15v-120c-26 -2 -54 -3 -83 -3c-93 0 -135 28 -135 118zM108 712v-141h-143v141h143zM307 712v-141h-143v141h143z" />
    <glyph glyph-name="upsilondieresis" unicode="&#x3cb;" horiz-adv-x="558" 
d="M279 -12c139 0 230 66 230 197v315h-166v-314c0 -52 -21 -75 -64 -75s-64 23 -64 75v314h-166v-315c0 -131 91 -197 230 -197zM251 712v-141h-143v141h143zM450 712v-141h-143v141h143z" />
    <glyph glyph-name="omicrontonos" unicode="&#x3cc;" horiz-adv-x="558" 
d="M202 250c0 -105 24 -139 77 -139s77 34 77 139s-24 139 -77 139s-77 -34 -77 -139zM36 250c0 158 75 262 243 262s243 -104 243 -262s-75 -262 -243 -262s-243 104 -243 262zM439 725l-124 -161h-144l92 161h176z" />
    <glyph glyph-name="upsilontonos" unicode="&#x3cd;" horiz-adv-x="558" 
d="M279 -12c-139 0 -230 66 -230 197v315h166v-314c0 -52 21 -75 64 -75s64 23 64 75v314h166v-315c0 -131 -91 -197 -230 -197zM439 725l-124 -161h-144l92 161h176z" />
    <glyph glyph-name="omegatonos" unicode="&#x3ce;" horiz-adv-x="784" 
d="M309 402h166v-169c0 -92 11 -123 53 -123c32 0 50 29 50 123c0 80 -17 174 -52 267h169c35 -92 50 -183 50 -266c0 -167 -69 -246 -197 -246c-82 0 -134 35 -156 103c-22 -68 -74 -103 -156 -103c-128 0 -197 79 -197 246c0 83 15 174 50 266h169
c-35 -93 -52 -187 -52 -267c0 -94 18 -123 50 -123c42 0 53 31 53 123v169zM548 725l-124 -161h-144l92 161h176z" />
    </font>
</defs>
</svg>
